<?xml version="1.0" encoding="utf-8"?>
<!-- Generator: Adobe Illustrator 24.2.1, SVG Export Plug-In . SVG Version: 6.00 Build 0)  -->
<svg version="1.1" id="Layer_1" xmlns="http://www.w3.org/2000/svg" xmlns:xlink="http://www.w3.org/1999/xlink" x="0px" y="0px"
	 viewBox="0 0 538.5 145.2" style="enable-background:new 0 0 538.5 145.2;" xml:space="preserve">
<style type="text/css">
	.st0{fill:#86108C;}
	.st1{fill:none;stroke:#FFFFFF;stroke-width:2;stroke-linecap:round;stroke-linejoin:round;}
	.st2{fill:#FFFFFF;}
	.st3{opacity:0.5;fill:none;stroke:#86108C;stroke-width:5;stroke-linecap:round;stroke-linejoin:round;enable-background:new    ;}
	.st4{fill:#86108C;stroke:#FFFFFF;stroke-width:2;stroke-linecap:round;stroke-linejoin:round;}
	.st5{fill:#FFFFFF;stroke:#86108C;stroke-miterlimit:10;}
</style>
<path class="st0" d="M180.1,23.4h16c2.6,0,5.2,0.3,7.7,0.9c2.1,0.5,4.1,1.4,5.9,2.6c1.6,1.2,2.9,2.7,3.8,4.5
	c0.9,2.1,1.4,4.3,1.3,6.6c0.1,2.3-0.4,4.6-1.4,6.7c-0.9,1.8-2.3,3.4-4,4.6c-1.8,1.3-3.9,2.2-6.1,2.7c-2.5,0.6-5,0.9-7.6,0.8h-8.3v23
	h-7.3L180.1,23.4L180.1,23.4z M187.4,46.6h7.8c1.7,0,3.3-0.1,4.9-0.5c1.4-0.3,2.7-0.8,3.9-1.5c1.1-0.6,1.9-1.5,2.5-2.6
	c0.6-1.2,0.9-2.6,0.9-4c0.1-1.4-0.3-2.8-0.9-4c-0.6-1-1.5-1.9-2.5-2.6c-1.2-0.7-2.5-1.2-3.8-1.4c-1.6-0.3-3.2-0.4-4.8-0.4h-7.9
	L187.4,46.6L187.4,46.6z"/>
<path class="st0" d="M247.7,75.9h-7.4V53.2l-19.6-29.8h9l14.5,23.7l14.6-23.7h8.5l-19.6,29.8L247.7,75.9L247.7,75.9z"/>
<path class="st0" d="M321,67.7c-2.1,2.9-4.9,5.2-8.1,6.8c-3.7,1.8-7.8,2.7-11.9,2.6c-3.8,0.1-7.5-0.6-11.1-2
	c-3.3-1.3-6.2-3.2-8.7-5.7s-4.4-5.5-5.7-8.7c-1.4-3.5-2.1-7.3-2.1-11.2c0-3.8,0.7-7.7,2.1-11.2c1.3-3.3,3.3-6.2,5.9-8.7
	c2.6-2.4,5.6-4.3,8.9-5.6c3.5-1.4,7.3-2,11.1-2c1.8,0,3.6,0.2,5.4,0.5s3.6,0.8,5.3,1.5c1.6,0.7,3.2,1.5,4.6,2.6
	c1.4,1,2.6,2.2,3.6,3.5l-5.8,4.4c-1.4-1.9-3.3-3.4-5.5-4.4c-2.4-1.2-5-1.8-7.6-1.8c-2.8,0-5.7,0.5-8.3,1.7c-2.4,1.1-4.5,2.6-6.3,4.6
	c-1.7,2-3.1,4.2-4,6.7c-0.9,2.6-1.4,5.4-1.4,8.1c0,2.8,0.4,5.6,1.4,8.3c0.9,2.5,2.2,4.7,3.9,6.7c1.7,1.9,3.8,3.4,6.2,4.4
	c2.6,1.1,5.4,1.7,8.2,1.6c2.8,0,5.6-0.6,8.1-1.8c2.4-1.2,4.5-3,6-5.2L321,67.7z"/>
<path class="st0" d="M385,49.6c0,3.8-0.7,7.6-2.1,11.1c-1.4,3.3-3.4,6.3-5.9,8.7c-2.5,2.5-5.5,4.4-8.8,5.7c-7.2,2.7-15,2.7-22.2,0
	c-3.3-1.3-6.3-3.2-8.8-5.7s-4.5-5.5-5.8-8.7c-1.4-3.5-2.1-7.3-2.1-11.2c0-3.8,0.7-7.7,2.1-11.2c1.3-3.3,3.3-6.2,5.8-8.7
	c2.5-2.4,5.5-4.3,8.8-5.6c7.2-2.7,15-2.7,22.2,0c3.3,1.3,6.3,3.2,8.8,5.6c2.5,2.5,4.5,5.4,5.8,8.7C384.3,41.9,385,45.7,385,49.6z
	 M377.1,49.6c0-2.8-0.5-5.5-1.4-8.1c-0.9-2.5-2.3-4.7-4-6.7c-1.7-1.9-3.9-3.5-6.3-4.6c-5.3-2.2-11.2-2.2-16.5,0
	c-2.4,1.1-4.5,2.6-6.2,4.6s-3.1,4.2-4,6.7c-0.9,2.6-1.4,5.4-1.4,8.1c0,2.8,0.5,5.6,1.4,8.2c0.9,2.5,2.2,4.8,4,6.7
	c1.7,1.9,3.9,3.5,6.3,4.5c2.6,1.1,5.3,1.7,8.1,1.6c2.8,0,5.6-0.5,8.2-1.6c2.4-1,4.5-2.6,6.3-4.5c1.8-2,3.1-4.2,4-6.7
	C376.6,55.2,377,52.4,377.1,49.6L377.1,49.6z"/>
<path class="st0" d="M436.4,65.3h0.1V23.4h7.3v52.5h-9.3L406.9,33h-0.1v42.9h-7.3V23.4h9.6L436.4,65.3z"/>
<path class="st0" d="M193.9,119.4c-1.6,0.6-3.2,0.9-4.9,0.9c-1.8,0-3.5-0.3-5.1-1c-1.5-0.6-2.9-1.6-4-2.7c-1.2-1.2-2-2.6-2.6-4.2
	c-1.2-3.4-1.2-7.2,0-10.6c0.6-1.6,1.5-3,2.6-4.2s2.5-2.1,4-2.7c1.6-0.7,3.4-1,5.1-1c1.5,0,3.1,0.3,4.5,0.8s2.7,1.3,3.8,2.4l-0.5,0.6
	c-0.5-0.5-1.1-1-1.7-1.4c-1.2-0.8-2.6-1.3-4.1-1.5c-0.7-0.1-1.4-0.2-2.1-0.2c-1.7,0-3.3,0.3-4.9,1c-1.4,0.6-2.7,1.5-3.8,2.7
	s-1.9,2.5-2.4,4c-0.6,1.6-0.9,3.2-0.9,4.9c0,1.7,0.3,3.3,0.9,4.9c0.5,1.5,1.4,2.8,2.4,4c1.1,1.1,2.4,2,3.8,2.7c1.6,0.7,3.2,1,4.9,1
	c1.6,0,3.1-0.3,4.6-0.9s2.8-1.5,3.8-2.7l0.6,0.5C196.8,118,195.5,118.9,193.9,119.4z"/>
<path class="st0" d="M248.4,111.5c0,1.2-0.2,2.4-0.6,3.5c-0.8,2.1-2.4,3.7-4.4,4.5c-1.1,0.4-2.3,0.6-3.4,0.6c-1.2,0-2.3-0.2-3.4-0.6
	c-2.1-0.8-3.7-2.5-4.4-4.5c-0.8-2.3-0.8-4.7,0-7c0.4-1,1-1.9,1.8-2.7c0.8-0.8,1.7-1.4,2.7-1.8c1.1-0.4,2.2-0.6,3.4-0.6
	s2.3,0.2,3.4,0.6c1,0.4,1.9,1,2.7,1.8s1.4,1.7,1.7,2.7C248.2,109.1,248.4,110.3,248.4,111.5z M247.6,111.5c0-1-0.2-2.1-0.5-3.1
	c-0.3-0.9-0.9-1.8-1.5-2.5c-0.7-0.7-1.5-1.3-2.4-1.7c-1-0.4-2.1-0.6-3.2-0.6c-1.1,0-2.2,0.2-3.2,0.6c-0.9,0.4-1.7,1-2.4,1.7
	s-1.2,1.6-1.5,2.5c-0.4,1-0.5,2-0.5,3.1s0.2,2.1,0.5,3.1c0.3,0.9,0.9,1.8,1.5,2.5c0.7,0.7,1.5,1.3,2.4,1.7c1,0.4,2.1,0.6,3.2,0.6
	c1.1,0,2.2-0.2,3.2-0.6c0.9-0.4,1.7-1,2.4-1.7s1.2-1.6,1.5-2.5C247.4,113.6,247.6,112.6,247.6,111.5z"/>
<path class="st0" d="M284.5,119.7V93h0.8v26.7H284.5z"/>
<path class="st0" d="M338.4,111.5c0,1.2-0.2,2.4-0.6,3.5c-0.8,2.1-2.4,3.7-4.4,4.5c-1.1,0.4-2.3,0.6-3.4,0.6c-1.2,0-2.3-0.2-3.4-0.6
	c-1-0.4-1.9-1-2.7-1.8c-0.8-0.8-1.4-1.7-1.8-2.7c-0.8-2.3-0.8-4.7,0-7c0.4-1,1-1.9,1.8-2.7c0.8-0.8,1.7-1.4,2.7-1.8
	c1.1-0.4,2.3-0.6,3.4-0.6c1.2,0,2.3,0.2,3.4,0.6c1,0.4,1.9,1,2.7,1.8c0.8,0.8,1.4,1.7,1.7,2.7C338.2,109.1,338.4,110.3,338.4,111.5z
	 M337.6,111.5c0-1-0.2-2.1-0.5-3.1c-0.3-0.9-0.9-1.8-1.5-2.5c-0.7-0.7-1.5-1.3-2.4-1.7c-2.1-0.8-4.4-0.8-6.4,0
	c-0.9,0.4-1.7,1-2.4,1.7c-0.7,0.7-1.2,1.6-1.5,2.5c-0.4,1-0.5,2-0.5,3.1s0.2,2.1,0.5,3.1c0.3,0.9,0.9,1.8,1.5,2.5
	c0.7,0.7,1.5,1.3,2.4,1.7c2.1,0.8,4.4,0.8,6.4,0c1.9-0.8,3.3-2.3,4-4.2C337.5,113.6,337.7,112.6,337.6,111.5z"/>
<path class="st0" d="M387,107.9c0.4-1.5,1.2-2.8,2.4-3.7c1.1-0.9,2.5-1.3,3.9-1.3c0.9,0,1.9,0.2,2.7,0.6c0.7,0.4,1.3,0.9,1.8,1.6
	c0.4,0.7,0.8,1.4,0.9,2.2c0.2,0.8,0.3,1.7,0.3,2.5v9.8h-0.8v-9.7c0-0.7-0.1-1.4-0.2-2.1s-0.4-1.4-0.8-2s-0.9-1.1-1.5-1.5
	c-0.7-0.4-1.6-0.6-2.4-0.6s-1.6,0.2-2.4,0.6s-1.5,0.9-2,1.6c-0.6,0.7-1,1.6-1.3,2.5c-0.3,1.1-0.5,2.2-0.5,3.3v8.1h-0.8V110
	c0-0.7-0.1-1.4-0.2-2.1s-0.4-1.4-0.7-2c-0.4-0.6-0.9-1.1-1.5-1.5c-0.7-0.4-1.5-0.7-2.4-0.6c-0.8,0-1.6,0.2-2.4,0.6s-1.4,0.9-1.9,1.6
	c-0.6,0.7-1,1.6-1.3,2.5c-0.3,1.1-0.5,2.2-0.5,3.3v8.1h-0.8v-12.2c0-0.3,0-0.6,0-1s0-0.8,0-1.1s0-0.8,0-1.1s0-0.7-0.1-0.9h0.8
	c0,0.2,0,0.5,0.1,0.9s0,0.7,0,1.1s0,0.8,0,1.2s0,0.7,0,1h0.1c0.4-1.4,1.3-2.6,2.4-3.5c0.5-0.4,1.1-0.7,1.7-0.9
	c0.6-0.2,1.3-0.3,1.9-0.3c0.8,0,1.5,0.1,2.2,0.4c0.6,0.2,1.1,0.6,1.6,1.1c0.4,0.5,0.8,1,1,1.6c0.3,0.6,0.5,1.3,0.6,2L387,107.9z"/>
<path class="st0" d="M437.2,107.8c1.2-3,4.1-5,7.3-4.9c1.1,0,2.2,0.2,3.3,0.7c1,0.4,1.8,1,2.6,1.8c0.7,0.8,1.3,1.7,1.7,2.7
	c0.4,1.1,0.6,2.3,0.6,3.5s-0.2,2.3-0.6,3.4c-0.4,1-0.9,1.9-1.7,2.7c-0.7,0.8-1.6,1.4-2.6,1.8s-2.1,0.7-3.3,0.7
	c-0.8,0-1.5-0.1-2.3-0.3c-0.7-0.2-1.4-0.5-2.1-0.9c-0.6-0.4-1.2-0.9-1.7-1.5s-0.9-1.3-1.2-2.1h-0.1v4.4h-0.8V93h0.8v14.9
	L437.2,107.8z M451.8,111.6c0-1-0.2-2-0.5-3c-0.3-0.9-0.8-1.8-1.5-2.5c-0.6-0.7-1.4-1.3-2.3-1.8c-0.9-0.4-2-0.7-3-0.7
	s-2.1,0.2-3,0.6s-1.7,1-2.3,1.7c-0.7,0.7-1.2,1.6-1.5,2.5c-0.7,2-0.7,4.2,0,6.1c0.4,0.9,0.9,1.8,1.5,2.5c0.7,0.7,1.5,1.3,2.3,1.7
	c0.9,0.4,2,0.6,3,0.6c2,0,4-0.8,5.4-2.3c0.6-0.7,1.1-1.6,1.5-2.5C451.7,113.7,451.8,112.6,451.8,111.6L451.8,111.6z"/>
<path class="st0" d="M489.1,97.3c-0.2,0-0.4-0.1-0.6-0.2c-0.2-0.2-0.3-0.4-0.2-0.7c0-0.2,0.1-0.5,0.2-0.6c0.3-0.3,0.8-0.3,1.1,0l0,0
	c0.3,0.4,0.3,0.9,0,1.3C489.5,97.2,489.3,97.3,489.1,97.3z M488.7,119.7v-16.2h0.8v16.2H488.7z"/>
<path class="st0" d="M538.2,116c0,0.6,0,1.3,0.1,2s0.1,1.3,0.2,1.7h-0.7c-0.1-0.3-0.1-0.6-0.1-0.9s0-0.7-0.1-1.1s-0.1-0.7-0.1-1.1
	s0-0.7,0-0.9h-0.1c-0.4,1.4-1.2,2.5-2.4,3.3c-1.1,0.7-2.4,1.1-3.7,1.1c-0.7,0-1.4-0.1-2-0.3c-0.6-0.2-1.2-0.5-1.8-0.8
	c-0.5-0.4-1-0.9-1.2-1.4c-0.3-0.6-0.5-1.4-0.5-2.1c-0.1-1,0.3-2,0.9-2.8c0.6-0.7,1.4-1.3,2.2-1.6c0.9-0.4,1.9-0.7,2.9-0.8
	c0.9-0.1,1.9-0.2,2.8-0.2h2.8v-1.3c0.1-1.5-0.4-2.9-1.5-4c-1.1-0.9-2.4-1.3-3.8-1.2c-0.9,0-1.8,0.2-2.7,0.5
	c-0.8,0.3-1.6,0.8-2.2,1.4l-0.4-0.6c0.8-0.7,1.6-1.2,2.6-1.5c0.9-0.3,1.9-0.5,2.8-0.5c1.6-0.1,3.2,0.4,4.4,1.4
	c1.2,1.2,1.8,2.8,1.6,4.5V116z M537.4,110.8h-2.5c-0.9,0-1.9,0.1-2.8,0.2c-0.9,0.1-1.8,0.3-2.7,0.7c-0.8,0.3-1.5,0.8-2,1.4
	c-0.9,1.3-1,3-0.3,4.4c0.3,0.5,0.7,0.9,1.1,1.2c0.5,0.3,1,0.5,1.5,0.7c0.5,0.1,1,0.2,1.6,0.2c1,0,2.1-0.2,3-0.7
	c0.8-0.4,1.4-1,1.9-1.7s0.8-1.5,1-2.3s0.3-1.6,0.3-2.5L537.4,110.8z"/>
<path id="path1948" class="st1" d="M73.9,51h-29c-6.1,0-11.5,3.7-13.1,10.7c-1.9,8-2,13,0,21.4c1.5,6.2,5.1,10.7,11.2,10.7h7.2
	 M94.9,51.6V40.3c0-5.7-4.8-10-10.5-10.9c-3.6-0.6-7.3-0.9-11-0.9c-3.4,0-6.7,0.3-10,0.9c-8.9,1.6-10.5,4.9-10.5,10.9v9.3"/>
<path id="path1950" class="st1" d="M71.2,93.7h31.5c6.1,0,8.4-4.3,10.5-10.7c2.2-6.6,2.1-12.9,0-21.4c-1.5-6.1-4.4-10.7-10.5-10.7
	h-7.9v9.3c-0.1,7.3-5.9,13.2-13.1,13.4h-21c-5.8,0.1-10.5,4.9-10.5,10.7v20c0,5.7,5,9,10.5,10.7c6.8,2.1,14.2,2.1,21,0
	c5.3-1.5,10.5-4.6,10.5-10.7v-9.8"/>
<path class="st2" d="M62,35.2c2.1,0,3.8,1.6,3.9,3.7s-1.6,3.8-3.7,3.9c-2.1,0-3.8-1.6-3.9-3.7V39C58.3,36.9,59.9,35.2,62,35.2z"/>
<path class="st2" d="M83.1,102c2.1,0,3.8,1.6,3.9,3.7c0,2.1-1.6,3.8-3.7,3.9s-3.8-1.6-3.9-3.7v-0.1C79.3,103.7,81,102,83.1,102
	C83,102,83.1,102,83.1,102z"/>
<path class="st3" d="M24,123.1c27.9,26.8,72.3,25.9,99.1-2C138,105.7,144.9,84.2,142,63"/>
<path class="st3" d="M121.2,22.1c-27.9-26.8-72.3-25.9-99.1,2C7.2,39.6,0.3,61,3.2,82.2"/>
<circle class="st0" cx="24.1" cy="123.2" r="6.7"/>
<circle class="st0" cx="121.1" cy="22" r="6.7"/>
<path class="st0" d="M499.8,75.9h-33.5v-5.6l21.5-21.7c0.8-0.8,1.6-1.6,2.3-2.5c0.7-0.9,1.4-1.9,2-2.8c0.6-1,1.1-2.1,1.5-3.2
	c0.3-1.1,0.5-2.3,0.5-3.5c0-1.4-0.3-2.8-0.8-4.2c-0.5-1.2-1.3-2.3-2.3-3.1c-1-0.9-2.1-1.5-3.3-2c-1.3-0.5-2.6-0.7-4-0.7
	c-2.6-0.1-5.2,0.9-7.1,2.6c-1.9,1.8-3.2,4.1-3.7,6.7l-5.3-1c0.4-1.8,1-3.5,2-5.1c0.9-1.6,2.1-2.9,3.5-4.1s3.1-2.1,4.8-2.7
	c1.9-0.7,3.8-1,5.8-1s4.1,0.3,6,0.9c1.8,0.6,3.5,1.5,5,2.8c1.4,1.2,2.6,2.8,3.4,4.5c0.9,2,1.3,4.1,1.3,6.3c0,1.6-0.2,3.2-0.7,4.7
	c-0.5,1.4-1.1,2.8-1.9,4.1s-1.7,2.5-2.7,3.7s-2.1,2.3-3.3,3.4L472,71h27.8V75.9z"/>
<path class="st0" d="M536.5,75.9h-5.3V30l-9.5,8.1l-3.3-3.7l13.3-11h4.8V75.9z"/>
<circle class="st0" cx="357.2" cy="48.9" r="6.7"/>
<path class="st0" d="M66.7,49.2L55.6,77.1c0,0,18.6,7.3,19.4,6.9s22.2-1,22.8-4.8S101,62.4,99.9,61s-5.1-10.9-5-10s-2.7-2-2.7-2
	L66.7,49.2z"/>
<path id="path1948-2" class="st4" d="M73.9,51h-29c-6.1,0-11.5,3.7-13.1,10.7c-1.9,8-2,13,0,21.4c1.5,6.2,5.1,10.7,11.2,10.7h7.2
	 M94.9,51.6V40.3c0-5.7-4.8-10-10.5-10.9c-3.6-0.6-7.3-0.9-11-0.9c-3.4,0-6.7,0.3-10,0.9c-8.9,1.6-10.5,4.9-10.5,10.9v9.3"/>
<path id="path1950-2" class="st4" d="M71.2,93.7h31.5c6.1,0,8.4-4.3,10.5-10.7c2.2-6.6,2.1-12.9,0-21.4c-1.5-6.1-4.4-10.7-10.5-10.7
	h-7.9v9.3c-0.1,7.3-5.9,13.2-13.1,13.4h-21c-5.8,0.1-10.5,4.9-10.5,10.7v20c0,5.7,5,9,10.5,10.7c6.8,2.1,14.2,2.1,21,0
	c5.3-1.5,10.5-4.6,10.5-10.7v-9.8"/>
<path class="st5" d="M62,35.2c2.1,0,3.8,1.6,3.9,3.7s-1.6,3.8-3.7,3.9c-2.1,0-3.8-1.6-3.9-3.7V39C58.3,36.9,59.9,35.2,62,35.2z"/>
<path class="st5" d="M83.1,102c2.1,0,3.8,1.6,3.9,3.7c0,2.1-1.6,3.8-3.7,3.9s-3.8-1.6-3.9-3.7v-0.1C79.3,103.7,81,102,83.1,102
	C83,102,83.1,102,83.1,102z"/>
</svg>
