<svg xmlns="http://www.w3.org/2000/svg" xmlns:xlink="http://www.w3.org/1999/xlink" viewBox="0 0 612.17 612.17"><defs><style>.cls-1{fill:url(#Degradado_sin_nombre_94);}.cls-2{isolation:isolate;}.cls-3{clip-path:url(#clip-path);}.cls-4{fill:#a0ffff;mix-blend-mode:soft-light;}.cls-5{fill:#ff664a;opacity:0.3;mix-blend-mode:multiply;}</style><linearGradient id="Degradado_sin_nombre_94" x1="-2161.75" y1="-3388.83" x2="-2554.81" y2="-2950.42" gradientTransform="translate(-3118.75 2266.38) rotate(97.2)" gradientUnits="userSpaceOnUse"><stop offset="0" stop-color="#ffee58"/><stop offset="1" stop-color="#ff9d05"/></linearGradient><clipPath id="clip-path"><circle class="cls-1" cx="306.09" cy="306.09" r="306.07" transform="translate(-126.78 306.09) rotate(-45)"/></clipPath></defs><title>planet-2</title><g class="cls-2"><g id="planet-2"><circle class="cls-1" cx="306.09" cy="306.09" r="306.07" transform="translate(-126.78 306.09) rotate(-45)"/><g class="cls-3"><path class="cls-4" d="M150.52-196.86C121.09-165.23,146-113.7,176-82.53,347.43,96.21,629.62,98.6,851.49,208.72,559.17,228.7,313.65-3.13,31-80.5,127.19,59.64,273.66,158.63,428.62,228.44s320.16,113.3,482.31,164.23c40.16,12.61,82.62,27.36,108.47,60.59-20.18,28.75-60.95,36.27-95.12,28.12s-63.8-28.7-93.75-47.06C615.58,302.55,347.77,268.13,147.48,115,77.28,61.31,14.34-7.39-70.18-33.19S-269.43-13.77-272.56,74.54c-2.26,63.83,52.36,113.76,103.68,151.77,294.47,218.09,640.13,366.57,1001,430,19.69,3.46,45,4,54-13.81-68.84,44.76-159.5,26.34-238.47,3.88-336-95.56-662.47-238.18-937.42-453.68"/><path class="cls-4" d="M-36.09,101.78C-64.51,81.1-95.4,58.91-130.53,59.49c-2.74,30.16,27,52.08,53,67.44C49.19,201.51,176,276.09,306.29,344.21,360.13,372.36,614,531.93,659.79,473.88,618.34,440.31,541,425.17,490.42,403.14q-92.88-40.47-182.66-87.61A2783.74,2783.74,0,0,1-36.09,101.78Z"/><path class="cls-5" d="M-532.58,250.43c40.49-79.66,130.05-120.1,214.87-148.23C-164.16,51.27.2,20.93,159.69,48.07s313.65,118.81,387,263C620.9,456.83,604.37,631.13,574,791.84c-10.16,53.71-15.83,121.83,30.73,150.46,31.62,19.45,72.68,9.52,107.08-4.42,213.09-86.36,357.33-310.12,367-539.83s-107-456.62-287.82-598.67S371.59-402.54,142.47-383.4-305.94-269.85-491-133.38"/></g></g></g></svg>