<?xml version="1.0" encoding="utf-8"?>
<!-- Generator: Adobe Illustrator 25.0.1, SVG Export Plug-In . SVG Version: 6.00 Build 0)  -->
<svg version="1.1" id="Layer_1" xmlns="http://www.w3.org/2000/svg" xmlns:xlink="http://www.w3.org/1999/xlink" x="0px" y="0px"
	 viewBox="0 0 1174.5 284.42" style="enable-background:new 0 0 1174.5 284.42;" xml:space="preserve">
<style type="text/css">
	.st0{fill:#FFFFFF;}
</style>
<g>
	<g>
		<path class="st0" d="M972.32,176.43c-6.19,29.44-28.32,45.37-55.35,45.37c-24.78,0-41.84-14.6-49.37-28.33
			c-5.09-9.3-6.85-13.94-6.85-51.8c0-37.85,1.76-42.51,6.85-51.8c7.53-13.72,24.59-28.33,49.37-28.33
			c29.89,0,50.48,21.03,55.35,46.71h-25.24c-3.75-12.18-15.04-22.81-30.11-22.81c-11.27,0-19.47,5.31-24.33,11.52
			c-6.21,7.96-7.98,12.4-7.98,44.71c0,32.32,1.77,36.75,7.98,44.72c4.86,6.19,13.06,11.5,24.33,11.5c13.29,0,23.48-7.3,30.11-21.47
			H972.32z"/>
		<path class="st0" d="M997.45,89.87c7.53-13.72,24.57-28.33,49.38-28.33c24.8,0,41.85,14.61,49.36,28.33
			c5.09,9.3,6.87,13.95,6.87,51.8c0,37.86-1.78,42.5-6.87,51.8c-7.51,13.73-24.56,28.33-49.36,28.33
			c-24.81,0-41.85-14.6-49.38-28.33c-5.09-9.3-6.86-13.94-6.86-51.8C990.59,103.82,992.36,99.17,997.45,89.87z M1022.47,186.4
			c4.88,6.19,13.06,11.5,24.36,11.5c11.28,0,19.48-5.31,24.35-11.5c6.2-7.97,7.97-12.41,7.97-44.72c0-32.31-1.77-36.75-7.97-44.71
			c-4.88-6.21-13.07-11.52-24.35-11.52c-11.3,0-19.48,5.31-24.36,11.52c-6.19,7.96-7.96,12.4-7.96,44.71
			C1014.5,173.99,1016.28,178.43,1022.47,186.4z"/>
	</g>
	<g>
		<g>
			<path class="st0" d="M149.42,40.26h29.06l83.63,144.14h0.57V40.26h30.77v202.81H264.4L180.75,98.94h-0.57v144.13h-30.76V40.26z"
				/>
			<path class="st0" d="M366.6,67.62h-51.51V40.26h133.79v27.35h-51.52v175.46H366.6V67.62z"/>
			<path class="st0" d="M620.48,40.26h71.11c17.08,0,30.49,3.98,41.31,13.38c11.4,9.68,20.22,25.07,20.22,43.3
				c0,26.2-14.8,47.56-39.31,56.12l47,90.01h-36.47l-41.87-86.59h-31.23v86.59h-30.76V40.26z M651.24,129.14h38.35
				c23.08,0,34.47-15.1,34.47-32.19c0-10.54-3.99-18.52-10.25-23.07c-5.7-4.28-11.97-6.27-22.51-6.27h-40.06V129.14z"/>
		</g>
		<path class="st0" d="M121.75,69.31V40.26H16.56h-3.14h-0.77v0.02C5.98,40.41,0.6,45.68,0.27,52.31H0.21v165.46v9.6v3.02l0,0
			c0,0.01,0,0.01,0,0.01c0,7.02,5.68,12.68,12.68,12.68c0.05,0,0.09-0.01,0.14-0.01v0.01h5.68h8.9h94.13v-29.05H30.99v-59.54h76.21
			v-27.35H30.99V69.31H121.75z"/>
		<path class="st0" d="M593.35,69.31V40.26H488.16h-3.14h-0.77v0.02c-6.67,0.12-12.05,5.4-12.37,12.02h-0.07v165.46v9.6v3.02h0.01
			c0,0.01-0.01,0.01-0.01,0.01c0,7.02,5.68,12.68,12.69,12.68c0.04,0,0.08-0.01,0.13-0.01v0.01h5.69h8.89h94.13v-29.05h-90.77
			v-59.54h76.23v-27.35h-76.23V69.31H593.35z"/>
	</g>
	<path class="st0" d="M1105.58,283.34H857.74c-16.99,0-32.98-6.55-45.07-18.47c-4.35-4.3-4.41-11.3-0.11-15.66
		c4.29-4.35,11.3-4.39,15.64-0.11c7.93,7.8,18.4,12.1,29.54,12.1h247.84c23.18,0,42.05-18.87,42.05-42.06V64.19
		c0-23.19-18.87-42.06-42.05-42.06H857.74c-23.2,0-42.06,18.87-42.06,42.06v64.54c0,6.12-4.97,11.08-11.07,11.08
		c-6.12,0-11.07-4.96-11.07-11.08V64.19c0-35.4,28.8-64.19,64.21-64.19h247.84c35.39,0,64.21,28.8,64.21,64.19v154.95
		C1169.78,254.55,1140.97,283.34,1105.58,283.34L1105.58,283.34z"/>
	<path class="st0" d="M831.45,194.97c0,14.82-12.02,26.83-26.84,26.83s-26.84-12.01-26.84-26.83c0-14.81,12.01-26.84,26.84-26.84
		S831.45,180.16,831.45,194.97z"/>
</g>
</svg>
