<?xml version="1.0" encoding="utf-8"?>
<!-- Generator: Adobe Illustrator 25.0.1, SVG Export Plug-In . SVG Version: 6.00 Build 0)  -->
<svg version="1.1" id="Layer_1" xmlns:xodm="http://www.corel.com/coreldraw/odm/2003"
	 xmlns="http://www.w3.org/2000/svg" xmlns:xlink="http://www.w3.org/1999/xlink" x="0px" y="0px" viewBox="0 0 343 81.5"
	 style="enable-background:new 0 0 343 81.5;" xml:space="preserve">
<style type="text/css">
	.st0{fill:#0C1638;}
	.st1{fill:#1052A3;}
	.st2{fill:#D41B2B;}
	.st3{fill-rule:evenodd;clip-rule:evenodd;fill:#CCCCCC;stroke:#CCCCCC;stroke-width:0.5669;stroke-miterlimit:10;}
	.st4{fill-rule:evenodd;clip-rule:evenodd;fill:#4BAEDD;}
	.st5{fill-rule:evenodd;clip-rule:evenodd;fill:#3087C9;}
	.st6{fill-rule:evenodd;clip-rule:evenodd;fill:#2B99C9;}
	.st7{fill-rule:evenodd;clip-rule:evenodd;fill:#276B9E;}
	.st8{fill:#1D3049;}
	.st9{fill:#276B9E;}
	.st10{fill:#FFFFFF;}
	.st11{fill:#D3D3D3;}
	.st12{fill:#AAAAAA;}
	.st13{fill-rule:evenodd;clip-rule:evenodd;fill:#D3D3D3;}
	.st14{fill-rule:evenodd;clip-rule:evenodd;fill:#FFFFFF;}
	.st15{fill:#606060;}
</style>
<g id="Capa_x0020_1">
	<g id="_2712199578576">
		<path class="st10" d="M71.4,9.5v42.4c0,0.7-0.3,1.2-0.9,1.6C70,53.8,69.2,54,68.3,54h-9.8c-1.8,0-2.8-0.7-2.8-2.2V9.5
			c0-1.5,1-2.2,2.9-2.2h10C70.5,7.3,71.4,8,71.4,9.5z"/>
		<path class="st10" d="M53.5,45.9V51c0,1-0.5,2.8-4,2.8H7.8c-2.6,0-4.5-0.4-5.7-1.3C0.7,51.6,0,50,0,48c0-2.4,1.2-4.5,3.4-6.4
			l28.8-23.4H4.8c-3.3,0-3.7-2.2-3.7-3.1v-4.5c0-0.9,0.4-1.7,1.1-2.3C2.9,7.6,3.9,7.4,5,7.4h38.4c3.2,0,5.6,0.4,7.3,1.3
			c1.3,0.7,2.8,2.1,2.8,5.1c0,2.7-1.4,5.3-4.2,7.6c-7.7,6.5-15.5,12.3-21.8,16.9C25.2,39.9,23,41.5,21,43h28.6c1,0,1.9,0.2,2.6,0.7
			C53.3,44.4,53.5,45.3,53.5,45.9L53.5,45.9z"/>
		<path class="st10" d="M130.6,9.8v38.6c0,2.3-0.8,3.9-2.4,4.7c-1.6,0.8-3.8,1-6.5,1h-3.4c-3.2,0-5.6-0.2-7.1-1
			c-1.6-0.8-3-2.4-4.4-4.6c-9.2-14.5-15.2-24.1-18-28.9c0.2,4,0.3,14.8,0.3,32.2c0,0.7-0.3,1.2-0.9,1.6C87.6,53.8,86.9,54,86,54
			h-9.4c-1.8,0-2.8-0.7-2.8-2.2V14.3c0-2.4,0.8-4.2,2.4-5.4c1.6-1.2,4.3-1.8,8.1-1.8h4.3c2.9,0,5,0.4,6.2,1.2
			c1.2,0.8,2.4,2.1,3.6,3.9c8.9,13.8,14.7,23.2,17.5,28.4c-0.3-4.2-0.4-14.4-0.4-30.6c0-1.8,1.1-2.7,3.2-2.7h8.8
			C129.6,7.3,130.6,8.2,130.6,9.8L130.6,9.8z"/>
		<path class="st10" d="M189.1,49.8l-14.5-35.5c-0.6-1.5-1.1-2.6-1.4-3.2c-0.3-0.6-0.9-1.3-1.7-2.1c-0.8-0.7-1.8-1.2-3-1.5
			c-1.2-0.2-2.9-0.4-4.8-0.4h-3.9c-4.1,0-6.9,0.6-8.4,1.7c-1.6,1.1-2.9,3.1-4,5.9l-14.7,35.3c-0.4,1-0.7,1.8-0.7,2.4
			c0,0.9,0.5,1.4,1.5,1.6c1.4,0.3,5.4,0.4,12.1,0.4c1,0,1.8-0.2,2.2-0.6c0.5-0.4,0.9-1,1.2-2l2.8-7.6h18l2.9,7.6
			c0.3,0.9,0.8,1.6,1.4,2c0.6,0.4,1.4,0.6,2.4,0.6c7.2,0,11.2-0.1,12-0.4c0.9-0.3,1.4-0.9,1.4-1.7C189.6,51.4,189.4,50.6,189.1,49.8
			L189.1,49.8z M155.6,33.9L155.6,33.9c3.3-9.6,5.1-15,5.4-16.3c0.3,1.1,2,6.6,5.2,16.3H155.6z"/>
		<path class="st11" d="M190.7,67c-0.8-1.1-1.4-1.6-2.1-2.3c-0.7-0.7-1.3-1.3-2-1.9c-1.4-1.2-2.8-2.2-4.3-3.2
			c-2.9-1.9-6-3.5-9.2-4.8c-6.3-2.6-12.9-3.9-19.5-4.4c-13.1-1-26.1,1.5-38.2,4.8c-12.2,3-24.4,6.2-36.8,8.6
			c-6.2,1.1-12.4,2-18.6,1.8c-6.2-0.1-12.4-1.7-18.2-4.3c5.6,3,11.8,5,18.1,5.6c6.3,0.6,12.7,0.1,19-0.6c12.6-1.5,25-3.9,37.4-6.2
			c6.2-1.2,12.3-2.3,18.4-2.7c6.1-0.5,12.2-0.4,18.2,0.5c6,0.8,11.8,2.4,17,5c2.6,1.3,5.1,2.8,7.4,4.5c1.1,0.9,2.2,1.8,3.2,2.8
			c0.5,0.5,1,1,1.4,1.5c0.4,0.5,0.9,1.1,1.1,1.4c1.4,2.3,4.2,3,6.4,1.5c2.2-1.4,2.8-4.4,1.5-6.7c-0.1-0.2-0.2-0.3-0.3-0.4L190.7,67
			L190.7,67z"/>
		<path class="st12" d="M41.9,58.9c7.5,6.8,20.9,5.6,29.9,4.5c17.4-2.3,34.4-7.2,51.4-11.5c6.7-1.7,17.4-2.3,20.2-2.5
			c2.4-0.2,6.5-0.9,8.2-3.2c3.5-4.8-6.4-4-8.9-3.4c-14,3-39.4,10.2-53.2,14.1C74.5,61.1,56.9,65.3,41.9,58.9L41.9,58.9z"/>
		<path class="st10" d="M68.9,67.9c18.7-1.5,32.5-4.2,49.2-7.3C132,58,139,57,155.6,59.4c2.9,0.4,11.9,2,12.7,5.2
			c0.8,2.8-4.7,3.6-6.6,3.5c-3.3-0.1-7.2-2.3-10.5-3c-6.2-1.4-12.6-1.9-19-1.8c-4.9,0.1-9.8,0.6-14.7,1.2
			C101.4,66.4,85.2,67.2,68.9,67.9z"/>
	</g>
	<rect x="208.4" y="6.1" class="st3" width="1.5" height="70.5"/>
	<g id="_2712199582320">
		<polygon class="st13" points="284,0 267.1,9.1 326.1,41.5 343,32.3 		"/>
		<polygon class="st13" points="247,20 225.1,31.9 284.1,64.2 306,52.3 		"/>
		<polygon class="st13" points="267.1,9.1 247,20 306,52.3 326.1,41.5 		"/>
		<polygon class="st14" points="278.8,63.4 278.8,69.4 273.9,66.5 273.9,60.4 270.1,58.5 270,74.5 273.8,76.6 273.9,70.3 278.8,73 
			278.8,79.3 282.7,81.5 282.7,65.1 		"/>
		<path class="st14" d="M263,60l3.4,1.6c0.2,0.1,0.4-0.1,0.4-0.3v-2l0-0.6c0,0,0,0,0,0l-0.1-0.5c0,0,0,0,0-0.1l-0.2-0.5
			c0,0,0,0,0-0.1l-0.3-0.4c0,0,0,0-0.1-0.1l-0.3-0.3l-0.6-0.5l-0.4-0.3l-0.4-0.3l-4.3-3.1l-1.1-0.8c0,0,0,0,0,0l-1.1-0.6
			c0,0-0.1,0-0.1,0l-0.9-0.2c0,0-0.1,0-0.1,0l-0.7,0.1c0,0-0.1,0-0.1,0l-0.5,0.3c0,0-0.1,0-0.1,0.1l-0.4,0.5c0,0,0,0,0,0.1l-0.2,0.5
			c0,0,0,0,0,0.1l-0.1,0.4c0,0,0,0,0,0.1v9.1l0,1.4c0,0.2,0,0.3,0,0.5l0,0.2c0.1,0.5,0.2,0.9,0.4,1.3l0,0c0.1,0.1,0.1,0.2,0.2,0.3
			l0.4,0.3c0.1,0.1,0.3,0.2,0.4,0.3l0.8,0.6l0.7,0.4l0.9,0.5l1,0.6l1.1,0.6l1.1,0.6l1.1,0.6l0.7,0.4c0.2,0.1,0.3,0.1,0.5,0.2
			l0.5,0.2c0.4,0.1,0.7,0.2,1.1,0.2l0,0c0.3,0,0.5-0.1,0.7-0.3l0,0c0.2-0.2,0.3-0.4,0.4-0.6l0-0.1c0.1-0.3,0.1-0.6,0.1-1v-2.4
			c0-0.1-0.1-0.2-0.2-0.3l-1.4-0.7l-2.1-1.1c-0.2-0.1-0.4,0-0.4,0.3v0.4c0,0.1,0,0.2-0.1,0.2l-0.2,0.1c-0.1,0.1-0.2,0.1-0.3,0
			l-0.8-0.3c0,0,0,0,0,0l-1.1-0.6l-0.8-0.5c0,0,0,0-0.1,0l-0.3-0.3c0,0-0.1-0.1-0.1-0.1l-0.2-0.5c0,0,0,0,0-0.1l-0.1-0.6
			c0,0,0,0,0,0v-6.1c0,0,0,0,0,0l0.1-0.5c0-0.1,0.1-0.2,0.1-0.2l0,0c0.1-0.1,0.2-0.1,0.3,0l0.3,0.2c0,0,0,0,0,0l0.6,0.4l1.8,1.2
			l0.6,0.4c0,0,0,0,0,0l0.2,0.2c0,0,0,0.1,0.1,0.1l0.1,0.2l0,0.3l0,0.3v0.3C262.9,59.9,262.9,60,263,60L263,60z"/>
		<polygon class="st14" points="297.2,64.3 298.1,63.7 298.1,62 297.9,60.7 297.4,59.9 296.6,59.6 295.9,59.7 287.6,64.6 
			286.6,65.2 286.1,66 285.8,66.8 285.7,67.7 285.7,72.3 285.8,73.3 286.2,73.8 286.7,74 287.2,73.8 287.8,73.6 288.8,73.1 
			289.9,72.6 291.1,72 292.3,71.3 293.2,70.8 294,70.5 294.4,70.5 294.5,70.6 294.5,70.9 294.5,72.4 294.5,72.7 294.4,72.9 
			294.3,73.1 294.1,73.3 293.4,73.7 289.9,76 289.4,76.2 289.2,76.1 289.1,75.9 289,75.7 289,74.7 285.7,76.7 285.7,79.8 
			285.8,80.3 286.2,80.7 286.9,80.7 287.9,80.3 295.1,76.2 296,75.6 297,75.1 297.6,74.4 297.9,73.7 298,72.9 298,68.3 298,68.3 
			298,68.1 297.9,67.2 297.5,66.7 296.9,66.6 296.3,66.7 295.7,66.9 294.8,67.4 293.6,67.9 292.5,68.5 291.4,69.1 290.5,69.6 
			289.7,70 289.3,70 289.1,69.8 289.1,69.6 289.1,67.8 289.1,67.5 289.2,67.2 289.5,67 290,66.7 292.1,65.5 293.1,64.9 293.8,64.5 
			294.3,64.3 294.6,64.4 294.7,64.6 294.7,64.8 294.7,65.8 		"/>
		<path class="st14" d="M312.7,60.6l0.7-6.5l1-0.6l1.6,5.5C316,58.9,312.7,60.6,312.7,60.6z M321.1,61.8l-0.4-1.2l-2.5-7.1l-1.8-5.2
			l-3.3,2l0,0l-3.3,1.9l-1.7,17.4l3.9-2.3l0.3-3.4l4.5-2.3l0.7,2.2L321.1,61.8L321.1,61.8L321.1,61.8z"/>
		<polygon class="st14" points="304.7,67.7 301,69.7 301,73.4 304.7,71.4 		"/>
		<polygon class="st14" points="327.7,54.9 324,57.1 324,60.8 327.7,58.6 		"/>
		<polygon class="st14" points="251.7,51.8 251.7,48.3 239.6,42.2 239.6,57.8 251.6,64.4 251.6,61.2 244.8,57.6 244.8,54.6 
			251.7,58.2 251.7,54.9 245,51.3 244.8,48.1 		"/>
		<path class="st15" d="M325.9,10.4l-4.7,3h3.8L319.6,31l-6.4-20.6h-9.2l-4.6,2.9c-0.4-0.5-0.9-1-1.4-1.4c-1.9-1.4-4.7-2-8.4-2
			c-3,0-5.3,0.4-7,1.1c-1.7,0.7-3,1.8-3.8,3.1c-0.9,1.3-1.3,2.7-1.3,4.2c0,2.2,0.8,4.1,2.5,5.5c1.7,1.4,4.4,2.6,8.3,3.5
			c2.4,0.5,3.9,1.1,4.5,1.7c0.7,0.6,1,1.3,1,2c0,0.8-0.3,1.5-1,2.1c-0.7,0.6-1.7,0.9-2.9,0.9c-1.7,0-3-0.6-3.9-1.7
			c-0.6-0.7-0.9-1.8-1.1-3.1l-8.4,0.5l-3.8,2.4H260V10.4h-8.8l-4.7,3h4.7v25.6h17.9v3l4.7-3v-6.6l3-0.2c0.5,1.7,1.4,3.2,2.7,4.5
			c1.9,1.9,5.2,2.8,10.1,2.8c2.8,0,5.1-0.4,6.9-1.2c1.8-0.8,3.2-2,4.3-3.5c1-1.5,1.5-3.2,1.5-5.1c0-1.6-0.4-3-1.1-4.2
			c-0.8-1.3-2-2.3-3.7-3.2c-0.5-0.3-1.1-0.5-1.9-0.8l1-0.1l4.7-3c-0.3-2.1-0.9-3.7-1.9-5h5.6l9.7,25.6h4.9v3l4.7-3l10.6-28.6
			L325.9,10.4L325.9,10.4z"/>
		<polygon class="st10" points="246.5,13.4 255.3,13.4 255.3,35 269.1,35 269.1,42 246.5,42 		"/>
		<path class="st10" d="M271.6,32.5L280,32c0.2,1.4,0.6,2.4,1.1,3.1c0.9,1.2,2.2,1.7,3.9,1.7c1.3,0,2.2-0.3,2.9-0.9
			c0.7-0.6,1-1.3,1-2.1c0-0.7-0.3-1.4-1-2c-0.7-0.6-2.2-1.1-4.5-1.7c-3.9-0.9-6.6-2-8.3-3.5c-1.7-1.4-2.5-3.3-2.5-5.5
			c0-1.5,0.4-2.9,1.3-4.2c0.9-1.3,2.1-2.3,3.8-3.1c1.7-0.7,4.1-1.1,7-1.1c3.7,0,6.4,0.7,8.4,2c1.9,1.4,3.1,3.5,3.4,6.5l-8.3,0.5
			c-0.2-1.3-0.7-2.2-1.4-2.8c-0.7-0.6-1.7-0.9-2.9-0.9c-1,0-1.8,0.2-2.3,0.7c-0.5,0.4-0.8,1-0.8,1.6c0,0.5,0.2,0.9,0.6,1.2
			c0.4,0.4,1.4,0.7,3,1.1c3.9,0.8,6.6,1.7,8.3,2.5c1.7,0.9,2.9,1.9,3.7,3.2c0.8,1.3,1.1,2.7,1.1,4.2c0,1.8-0.5,3.5-1.5,5.1
			c-1,1.5-2.4,2.7-4.3,3.5c-1.8,0.8-4.1,1.2-6.9,1.2c-4.9,0-8.2-0.9-10.1-2.8C272.9,37.8,271.8,35.4,271.6,32.5L271.6,32.5z"/>
		<polygon class="st10" points="299.2,13.4 308.4,13.4 314.9,34 321.2,13.4 330.2,13.4 319.6,42 310,42 		"/>
		<polygon class="st14" points="225.5,34.9 225.5,39 229.6,40.8 229.6,52.3 233.3,54.4 233.3,42.2 237.6,44.4 237.6,40.6 		"/>
		<polygon class="st14" points="342.1,40.1 343,39.6 343,37.9 342.8,36.6 342.3,35.8 341.6,35.5 340.8,35.6 332.5,40.4 331.5,41.1 
			331,41.8 330.7,42.7 330.6,43.6 330.6,48.2 330.7,49.2 331.1,49.7 331.6,49.8 332.1,49.7 332.7,49.4 333.7,49 334.8,48.4 
			336.1,47.8 337.2,47.2 338.2,46.7 338.9,46.3 339.3,46.3 339.5,46.5 339.5,46.8 339.5,48.2 339.5,48.5 339.4,48.8 339.3,49 
			339.1,49.1 338.4,49.6 334.8,51.8 334.3,52 334.1,52 334,51.8 334,51.5 334,50.6 330.5,52.6 330.5,55.7 330.6,56.1 331,56.5 
			331.7,56.6 332.8,56.2 340,52 341,51.5 342,50.9 342.6,50.3 342.9,49.6 343,48.7 343,44.3 343,44.2 343,44 342.8,43 342.4,42.5 
			341.8,42.4 341.2,42.6 340.6,42.8 339.7,43.2 338.6,43.8 337.4,44.4 336.3,45 335.4,45.5 334.6,45.8 334.2,45.8 334.1,45.7 
			334,45.4 334,44 334,43.6 334,43.3 334.1,43.1 334.4,42.9 334.9,42.6 337,41.4 338,40.8 338.7,40.3 339.2,40.1 339.5,40.2 
			339.6,40.4 339.6,40.6 339.6,41.6 		"/>
	</g>
</g>
</svg>
