<svg xmlns="http://www.w3.org/2000/svg" viewBox="0 0 892.27 193.87"><defs><style>.cls-1{fill:#fff;}</style></defs><title>tributi-white</title><g id="Layer_2" data-name="Layer 2"><g id="Layer_1-2" data-name="Layer 1"><polygon class="cls-1" points="87.43 1.65 151.92 1.65 151.92 25.69 114.37 25.69 114.37 139.67 87.43 139.67 87.43 1.65"/><path class="cls-1" d="M271.9,139.67,245,84.62H225.57v55H198.63V1.65h54.08c28.11,0,44.78,19.19,44.78,42.26,0,19.38-11.82,31.4-25.2,36.25l30.82,59.51ZM251,25.69h-25.4V62.13H251c11.82,0,19.58-7.56,19.58-18.22S262.79,25.69,251,25.69Z"/><path class="cls-1" d="M347.76,139.67V1.65H374.7v138Z"/><path class="cls-1" d="M490.84,139.67H433.08V1.65h55.44c27,0,42.65,15.12,42.65,38.77,0,15.31-10.08,25.2-17.06,28.5,8.34,3.87,19,12.59,19,31C533.11,125.71,515.47,139.67,490.84,139.67Zm-4.45-114H460V57.48h26.37c11.43,0,17.83-6.4,17.83-15.9S497.82,25.69,486.39,25.69Zm1.74,56H460v33.92h28.11c12.21,0,18-7.75,18-17S500.34,81.71,488.13,81.71Z"/><path class="cls-1" d="M630.37,140.84c-28.3,0-50.79-19.2-50.79-48.47V1.65h26.95V91.4c0,15.9,9.3,25.4,23.84,25.4s24-9.5,24-25.4V1.65h26.75V92.37C681.16,121.64,658.67,140.84,630.37,140.84Z"/><path class="cls-1" d="M788.84,25.69v114H761.9v-114H725.84v-24h99.07v24Z"/><path class="cls-1" d="M865.33,139.67V1.65h26.94v138Z"/><path class="cls-1" d="M60.74,28.23A26.84,26.84,0,0,0,39.2,19.29c-7.19.26-14.14,2.92-18.53,8.47L7.48,17.32C14.93,7.91,24.49.87,38.3.07,53.42-.81,63.9,6.82,73.12,16.85Z"/><path class="cls-1" d="M89.31,174.51A72.25,72.25,0,0,1,20,123.36H0a91.66,91.66,0,0,0,147.57,49.51l-13.75-13.74A72.53,72.53,0,0,1,89.31,174.51Z"/></g></g></svg>