<?xml version="1.0" encoding="utf-8"?>
<!-- Generator: Adobe Illustrator 23.0.2, SVG Export Plug-In . SVG Version: 6.00 Build 0)  -->
<svg version="1.1" id="Layer_1" xmlns="http://www.w3.org/2000/svg" xmlns:xlink="http://www.w3.org/1999/xlink" x="0px" y="0px"
	 viewBox="0 0 222.7 56.5" style="enable-background:new 0 0 222.7 56.5;" xml:space="preserve">
<style type="text/css">
	.st0{fill:#FFFFFF;}
</style>
<title>Recurso 22</title>
<g id="Capa_2">
	<g id="Capa_1-2">
		<path class="st0" d="M182,0c-22.5,0-40.8,12-40.8,26.7v1.6c0,15.6,16,28.2,40.8,28.2c25,0,40.8-12.6,40.8-28.2v-1.6
			C222.7,12,204.5,0,182,0z M182,51.8c-21.6,0-39.2-11.2-39.2-25.1S160.3,1.6,182,1.6s39.2,11.2,39.2,25.1S203.6,51.8,182,51.8z"/>
		<path class="st0" d="M203.8,29.3c-3.9-3.4-12.8-11.1-15.2-13c-0.9-0.8-2-1.4-3.2-1.8c-0.5-0.2-1-0.2-1.6-0.2c-0.7,0-1.4,0.1-2,0.3
			c-1.7,0.7-3.3,1.7-4.6,2.9l-0.1,0.1c-1.4,1.1-2.9,2.3-4,2.5c-0.5,0.1-1,0.2-1.5,0.2c-1,0.1-2-0.2-2.8-0.9c-0.1-0.1,0-0.2,0.1-0.4
			l0,0l3.4-3.7c2.7-2.7,5.2-5.2,11-5.3h0.3c2.6,0.1,5.2,0.7,7.6,1.8c3.2,1.6,6.8,2.5,10.4,2.5c4-0.1,7.8-1,11.4-2.7
			c-0.4-0.4-0.9-0.7-1.4-1.1c-3.1,1.4-6.5,2.2-10,2.3c-3.4,0-6.7-0.8-9.7-2.3c-2.6-1.2-5.4-1.9-8.3-2h-0.3c-3.4,0-6.8,1.2-9.4,3.4
			c-1.6,0.1-3.2,0.4-4.7,0.9c-1.1,0.4-2.2,0.6-3.3,0.6c-0.4,0-1.2,0-1.3,0c-4.1-0.7-8.1-1.8-12-3.3c-0.5,0.3-1,0.7-1.4,1.1
			c4.2,1.7,8.5,3,13,3.8c0.5,0,1.1,0.1,1.7,0.1c1.3-0.1,2.5-0.3,3.8-0.7c0.7-0.2,1.5-0.4,2.4-0.6c-0.2,0.2-0.4,0.4-0.7,0.7l-3.4,3.7
			c-0.5,0.5-0.7,1.2-0.5,1.9c0.2,0.4,0.5,0.8,0.9,1c1.1,0.6,2.4,1,3.7,0.9c0.5,0,1,0,1.5-0.1c1.4-0.3,3-1.5,4.6-2.8
			c1.3-1.2,2.9-2.1,4.5-2.7c0.4-0.1,0.8-0.2,1.2-0.2h0.3c1.3,0.2,2.4,0.8,3.4,1.6c2.8,2.1,15.4,13.1,15.5,13.2
			c0.5,0.5,0.8,1.1,0.8,1.8c0,0.7-0.4,1.3-1,1.6c-0.5,0.3-1.1,0.5-1.6,0.5c-0.5,0-1-0.1-1.5-0.4c0,0-4.4-4-5.9-5.3
			c-0.2-0.2-0.5-0.4-0.8-0.4c-0.1,0-0.2,0.1-0.3,0.2c-0.2,0.3,0,0.7,0.4,1l5,5c0.4,0.4,0.6,0.8,0.7,1.4c0,0.9-0.4,1.7-1.2,2.1
			c-0.5,0.4-1.1,0.6-1.8,0.6c-0.5,0-1-0.2-1.4-0.4l-0.7-0.7c-1.3-1.3-2.7-2.6-3.7-3.5c-0.2-0.2-0.5-0.3-0.8-0.4
			c-0.1,0-0.2,0.1-0.3,0.2c-0.1,0.1-0.2,0.3,0.1,0.7c0.1,0.1,0.2,0.2,0.2,0.3l3.6,4.1c0.4,0.5,0.5,1.2,0.1,1.8l-0.1,0.2
			c-0.1,0.1-0.2,0.2-0.3,0.3c-0.5,0.4-1.1,0.6-1.8,0.6c-0.2,0-0.3,0-0.5,0c-0.3,0-0.5-0.1-0.7-0.3h-0.1c-0.2-0.2-2-2.1-3.6-3.4
			c-0.2-0.2-0.4-0.3-0.7-0.4c-0.1,0-0.2,0-0.3,0.1c-0.3,0.3,0.1,0.8,0.3,1l3.1,3.5c0,0.1-0.1,0.1-0.1,0.2c-0.1,0.2-0.5,0.5-1.6,0.7
			h-0.4c-1.1-0.1-2.1-0.4-3.1-0.9c1.1-2.3,0.2-5.1-2.1-6.2c-0.6-0.3-1.3-0.5-2-0.5h-0.2c0.3-1.8-0.7-3.6-2.4-4.4
			c-0.6-0.3-1.3-0.4-1.9-0.4c-0.5,0-1,0.1-1.4,0.3c-0.5-0.9-1.3-1.6-2.3-1.9c-0.5-0.2-1.1-0.3-1.7-0.3c-0.9,0-1.8,0.3-2.6,0.8
			c-0.7-0.9-1.9-1.5-3.1-1.5c-1,0-2,0.4-2.8,1.1c-1-0.7-4.8-3.2-15.2-5.5c-0.5-0.1-1.6-0.5-2.4-0.6c-0.1,0.6-0.2,1.1-0.3,1.7
			l2.3,0.5c10.6,2.3,14.1,4.8,14.6,5.2c-0.8,2,0.1,4.3,2.1,5.2c0.5,0.2,1,0.3,1.5,0.3c0.2,0,0.5,0,0.7-0.1c0.3,1.6,1.5,2.9,3,3.4
			c0.4,0.2,0.9,0.3,1.4,0.3c0.3,0,0.6,0,0.9-0.1c0.7,1.5,2.3,2.6,4,2.6c0.4,0,0.8-0.1,1.2-0.2c1,2.4,3.7,3.5,6.1,2.5
			c0.6-0.2,1.1-0.6,1.6-1.1c1.2,0.7,2.6,1.1,4,1.2c0.2,0,0.4,0,0.6,0c1,0,2-0.5,2.7-1.3c0.1-0.1,0.1-0.2,0.2-0.3
			c0.4,0.1,0.8,0.2,1.3,0.2c0.9,0,1.8-0.3,2.6-0.9c0.7-0.5,1.2-1.3,1.4-2.2l0,0c0.3,0.1,0.6,0.1,0.9,0.1c0.9,0,1.8-0.3,2.6-0.8
			c1.2-0.7,1.9-2,1.9-3.4c0.3,0.1,0.6,0.1,0.9,0.1c0.9,0,1.7-0.3,2.5-0.8c1-0.6,1.6-1.6,1.7-2.8c0.1-0.8-0.1-1.6-0.5-2.2
			c5.3-2.2,10.7-3.9,16.3-5.1c0-0.6-0.1-1.1-0.2-1.7C215,25,209.3,26.9,203.8,29.3z M179,43.6c-1.7,0-3.1-1.3-3.2-3
			c0-0.2,0-0.5-0.4-0.5c-0.2,0-0.3,0.1-0.4,0.2c-0.4,0.4-1,0.7-1.6,0.7c-0.3,0-0.7-0.1-1-0.2c-1.8-0.7-1.9-2-1.8-2.5
			c0-0.1,0-0.3-0.1-0.4l-0.1-0.1h-0.1c-0.1,0-0.2,0.1-0.3,0.1c-0.4,0.3-1,0.5-1.5,0.5c-0.3,0-0.6-0.1-0.9-0.2
			c-1.6-0.6-2.5-2.2-2.1-3.9c0-0.1,0-0.2-0.1-0.3l-0.2-0.1l-0.2,0.2c-1,1-2.6,0.9-3.5-0.1s-0.9-2.6,0.1-3.5s2.6-0.9,3.5,0.1
			c0.4,0.4,0.6,0.9,0.7,1.4l0.1,0.7l0.4-0.6c0.7-1,1.7-1.6,2.9-1.6c0.4,0,0.7,0.1,1.1,0.2c1,0.4,1.6,1.3,1.6,2.3
			c0,0.3,0.3,0.3,0.3,0.3c0.1,0,0.2-0.1,0.3-0.2c0.5-0.5,1.1-0.8,1.8-0.8c0.5,0,0.9,0.1,1.4,0.3c2.4,1,1.3,4,1.3,4
			c-0.2,0.5-0.2,0.7,0,0.8h0.1h0.1c0.2,0,0.3-0.1,0.5-0.1c0.4-0.2,0.8-0.3,1.2-0.3l0,0c1.8,0.1,3.1,1.6,3,3.4
			C181.9,42.2,180.6,43.4,179,43.6L179,43.6z"/>
		<path class="st0" d="M126.4,9.7c-1.5-1.8-3.7-2.8-6.7-2.8s-5.2,0.9-6.7,2.8c-1.5,1.9-2.3,4.2-2.2,6.5c-0.1,2.4,0.7,4.7,2.2,6.6
			c1.5,1.8,3.7,2.7,6.7,2.7s5.2-0.9,6.7-2.7c1.5-1.9,2.3-4.2,2.2-6.6C128.7,13.8,127.9,11.5,126.4,9.7z M122.8,20.3
			c-1.5,1.7-4,1.9-5.7,0.5c-0.2-0.1-0.3-0.3-0.5-0.5c-0.8-1.2-1.2-2.6-1.1-4.1c-0.1-1.4,0.3-2.8,1.1-4c1.5-1.7,4-1.9,5.7-0.4
			c0.1,0.1,0.3,0.3,0.4,0.4c0.8,1.2,1.2,2.6,1.1,4C123.9,17.6,123.6,19.1,122.8,20.3z"/>
		<path class="st0" d="M88.8,8.1C87.2,7.4,85.5,7,83.7,7c-3,0-5,0.8-6.3,2.3c-0.8,1.1-1.3,2.4-1.3,3.8h4.4c0.1-0.6,0.3-1.1,0.7-1.6
			c0.6-0.6,1.5-0.9,2.3-0.8c0.8,0,1.5,0.1,2.2,0.4c0.5,0.3,0.8,0.9,0.8,1.5c0,0.6-0.4,1.1-1,1.3c-0.6,0.2-1.2,0.3-1.8,0.4l-1.6,0.2
			c-1.4,0.1-2.7,0.5-4,1.1c-1.7,0.9-2.6,2.8-2.5,4.7c-0.1,1.4,0.5,2.9,1.6,3.8c1.1,0.9,2.5,1.4,4,1.4c9.9,0.4,9.9-5.3,9.9-6.5v-6.6
			C91,10.3,90.3,8.9,88.8,8.1z M86.5,18.1c0.1,1.2-0.4,2.4-1.3,3.2c-0.8,0.6-1.8,0.9-2.8,0.9c-0.6,0-1.1-0.2-1.6-0.5
			c-0.5-0.4-0.7-1.1-0.7-1.7c0-0.8,0.4-1.6,1.1-1.9c0.7-0.3,1.4-0.5,2.1-0.6l1-0.2c0.4-0.1,0.8-0.2,1.2-0.3c0.3-0.1,0.6-0.3,0.9-0.4
			L86.5,18.1z"/>
		<path class="st0" d="M66,10.9c1-0.1,1.9,0.3,2.6,1.1c0.4,0.5,0.6,1.1,0.7,1.8h4.9c-0.3-2.5-1.2-4.2-2.6-5.2
			c-1.7-1.1-3.7-1.6-5.7-1.5c-2.4-0.1-4.7,0.8-6.4,2.5c-1.6,1.9-2.5,4.5-2.3,7c-0.1,2.3,0.6,4.6,2.1,6.5c1.4,1.7,3.6,2.5,6.5,2.5
			c2.6,0.2,5.1-1,6.7-3c0.9-1.1,1.4-2.5,1.6-3.9h-4.9c-0.1,0.8-0.4,1.6-0.9,2.2c-0.6,0.6-1.5,0.9-2.4,0.9c-1.5,0.1-2.8-0.8-3.2-2.2
			c-0.4-1-0.5-2-0.5-3.1c0-1.1,0.1-2.2,0.5-3.2C63.2,11.8,64.5,10.8,66,10.9z"/>
		<path class="st0" d="M55.9,7.1c-10.1,0-9.5,9-9.5,9v9.1H51v-8.6c-0.1-1.1,0.1-2.1,0.5-3.1c0.6-1.2,1.9-1.8,3.7-1.8h0.5l0.8,0.1
			V7.1h-0.4L55.9,7.1z"/>
		<path class="st0" d="M39,20.4c-0.2,0.3-0.4,0.5-0.6,0.7c-0.7,0.5-1.7,0.8-2.6,0.7c-0.9,0-1.7-0.2-2.4-0.6
			c-1.2-0.8-1.9-2.2-1.9-3.6h12.7c0-1.2,0-2.3-0.2-3.5c-0.2-1.3-0.7-2.5-1.4-3.6c-0.7-1.1-1.8-2-3-2.6C38.4,7.3,37,7,35.6,7.1
			C33.3,7,31,7.8,29.3,9.5c-1.6,1.6-2.4,3.9-2.4,7c0,3.2,0.9,5.6,2.7,7c1.7,1.4,3.9,2.2,6.1,2.1c2.5,0.1,4.9-0.8,6.6-2.6
			c0.7-0.7,1.3-1.6,1.6-2.6H39z M32.8,11.8c0.7-0.7,1.7-1.1,2.7-1c1,0,2,0.3,2.7,0.9c0.8,0.7,1.2,1.7,1.2,2.8h-7.8
			C31.7,13.5,32.2,12.6,32.8,11.8L32.8,11.8z"/>
		<path class="st0" d="M25.1,25.1h-4.2V14.6c0.1-1.7-1.1-3.1-2.7-3.3c-0.1,0-0.2,0-0.4,0c-1.7,0-3.1,1.3-3.2,3c0,0.1,0,0.2,0,0.3
			v10.6h-4.2V14.6c0.2-1.6-1-3.1-2.6-3.2c-0.1,0-0.3,0-0.4,0c-1.7-0.1-3.1,1.2-3.2,2.9c0,0.1,0,0.2,0,0.4v10.6H0V14.6
			C0,10.3,2.9,7,7.4,7c2,0,4,0.9,5.2,2.4C13.9,7.9,15.8,7,17.8,7c4.6,0,7.3,3.2,7.3,7.7V25.1z"/>
		<path class="st0" d="M109.4,1.5c0,0-4.6-0.5-4.6,3.2v4.9c-0.5-0.8-1.2-1.5-2-1.9C102,7.3,101,7,100,7.1c-2.1-0.1-4.2,0.9-5.5,2.5
			c-1.5,2.1-2.2,4.6-2,7.2c-0.1,2.3,0.6,4.6,2.1,6.4c1.4,1.6,4.1,2.4,6.6,2.4c8.5,0,8.4-7.2,8.4-7.2L109.4,1.5z M103.9,20.3
			c-0.7,1-1.8,1.5-2.9,1.4c-1.2,0.1-2.3-0.5-2.9-1.5c-0.7-1.2-1-2.6-0.9-4c0-1.3,0.3-2.6,0.9-3.8c0.6-1,1.7-1.6,2.9-1.5
			c0.8,0,1.7,0.3,2.3,0.8c1.1,0.9,1.6,2.6,1.6,4.7C105,17.9,104.6,19.2,103.9,20.3z"/>
		<path class="st0" d="M123.5,47c-0.2,0.3-0.4,0.5-0.6,0.7c-0.7,0.5-1.7,0.8-2.6,0.7c-0.9,0-1.7-0.2-2.4-0.6
			c-1.2-0.8-1.9-2.2-1.8-3.6h12.6c0-1.1,0-2.3-0.1-3.4c-0.2-1.3-0.7-2.5-1.4-3.6c-0.7-1.1-1.8-2-3-2.6c-1.3-0.6-2.7-0.8-4.1-0.8
			c-2.3-0.1-4.5,0.8-6.2,2.4c-1.6,1.6-2.4,3.9-2.4,6.9c0,3.2,0.9,5.5,2.6,6.9c1.7,1.4,3.9,2.2,6.1,2.1c2.4,0.1,4.8-0.8,6.5-2.5
			c0.7-0.7,1.3-1.6,1.6-2.6L123.5,47z M117.3,38.6c0.7-0.7,1.7-1.1,2.7-1c1,0,1.9,0.3,2.7,0.9c0.8,0.7,1.2,1.7,1.2,2.7h-7.8
			C116.3,40.2,116.7,39.3,117.3,38.6z"/>
		<path class="st0" d="M91.9,33.9c-1,0-2,0.2-2.8,0.7c-0.8,0.5-1.5,1.1-2,1.9v-8.3c0,0-4.6-0.5-4.6,3.3V45c0,0-0.1,7.2,8.4,7.2
			c2.4,0,5.2-0.7,6.6-2.4c1.4-1.8,2.2-4.1,2.1-6.3c0.2-2.5-0.6-5-2-7C96.1,34.8,94.1,33.8,91.9,33.9z M93.8,47
			c-0.6,1-1.7,1.5-2.9,1.5C89.8,48.5,88.7,48,88,47c-0.7-1.1-1.1-2.4-1-3.7c0-2.1,0.5-3.7,1.6-4.6c0.6-0.5,1.5-0.8,2.3-0.8
			c1.2-0.1,2.3,0.5,2.9,1.5c0.7,1.1,1,2.4,0.9,3.8C94.8,44.5,94.5,45.8,93.8,47z"/>
		<path class="st0" d="M110.6,33.9h-0.2c-10.1,0-9.5,9-9.5,9v9h4.6v-8.4c-0.1-1.1,0.1-2.1,0.5-3.1c0.6-1.2,1.9-1.8,3.7-1.8h0.6
			c0.2,0,0.5,0,0.8,0.1v-4.8L110.6,33.9z"/>
		<path class="st0" d="M66.7,31.5v20.2H71V28.2C71,28.2,66.7,28.1,66.7,31.5z"/>
		<rect x="74.5" y="28.2" class="st0" width="4.6" height="4.6"/>
		<rect x="74.5" y="34.3" class="st0" width="4.6" height="17.4"/>
	</g>
</g>
</svg>
