<svg xmlns="http://www.w3.org/2000/svg" viewBox="0 0 665 175.48"><defs><style>.cls-1{fill:#fff;}</style></defs><g id="Layer_2" data-name="Layer 2"><g id="Capa_1" data-name="Capa 1"><path class="cls-1" d="M230.19,48.33a94.85,94.85,0,0,0-21.5-18.65,5.91,5.91,0,0,0,2.24-4.87,5.07,5.07,0,0,0-1.78-4.07,6.55,6.55,0,0,0-3.89-1.31,2.32,2.32,0,0,0,.18-.33,5.52,5.52,0,0,0,1-4.31c-.8-4-5.81-7-9.14-9.09-.75-.47-1.59-1-1.82-1.17-6.75-5.81-10.69-5-12.79-3.28S175.54,7.91,170.59,13a183.65,183.65,0,0,0-96.34,0c-5-5-10.11-10.09-12.13-11.74s-6-2.53-12.79,3.28c-.23.19-1.08.7-1.83,1.17-3.32,2.06-8.34,5.11-9.13,9.09a5.52,5.52,0,0,0,1,4.31c0,.09.1.19.19.33a6.55,6.55,0,0,0-3.89,1.31,5,5,0,0,0-1.78,4.07,5.94,5.94,0,0,0,2.32,5C13.84,44.24,0,64.28,0,86.37v4.69c0,46.66,47.93,84.42,122.51,84.42,44.56,0,79.41-13.33,100.36-33.94C237.22,127.46,245.06,110,245.06,91V86.32c0-13.72-5.34-26.7-14.8-38Zm-88.3,112q-5.5.58-11.18.83l-.75,0-3,.1-.83,0c-1.21,0-2.43,0-3.65,0h-.18c-1.12,0-2.24,0-3.35,0l-1.32,0-2.21-.07-1.49-.06-2.14-.12-2.26-.14-2.21-.16-1.88-.17-1.43-.14-2-.21-1.15-.13q-3.74-.45-7.38-1l-.59-.1-2.47-.42-.41-.08c-28.66-5.23-52.84-17.2-68-33,.58-1.14.95-1.55,1.66-1.81,1.64-.61,2.53-.47,5.9.32,2.53.57,6,1.36,11.57,2.11,20.8,2.77,29.84,3.56,65.87.38,6.84-.61,11.57-3,14-7.12a13.14,13.14,0,0,0,1.44-3.77,12.85,12.85,0,0,0,1.44,3.77c2.39,4.12,7.12,6.51,14,7.12,36,3.18,45.06,2.39,65.86-.38,5.58-.75,9.05-1.54,11.58-2.11,3.37-.79,4.26-.93,5.9-.32.74.28,1.11.69,1.74,2-17.47,18.1-46.67,31.11-80.83,34.74Zm98.23-78c-29.18-4.83-62.39,7.4-73.93,12.21,1.45-7.59,1.87-19.54,1.26-28.25-.7-10,3.19-19.87,5.25-25.21l.42-1a6.36,6.36,0,0,1,1-2,5.43,5.43,0,0,1,1.17.19,17.08,17.08,0,0,0,2.58.33c4.87.19,10.63-2.62,12.27-3.47a17.24,17.24,0,0,1,4.13-1.36,22.19,22.19,0,0,0,3.7-1.12,11.17,11.17,0,0,1,2.53-.42c.86-.11,1.9-.25,3-.47C224.78,44.68,238.52,62.52,240.12,82.41ZM185.44,4.53c1.08-.85,4,.42,7.22,3.18A22,22,0,0,0,195,9.31c2.21,1.36,6.75,4.12,7.17,6.23a1.22,1.22,0,0,1-.28,1l-.14.19a17.38,17.38,0,0,1-2.11,2.92l-.72-.91c-1.08,1-5.43,5.57-6.93,5.25-2.16-.47-3.75-.8-5.86-1.41,1.08-4.73,2.77-3.65,5.58-1.78-.1-.65-.19-1.22-.28-1.73l2.43-1c-1.26-.14-2.06-.24-2.76-.33-.14-1.83-.33-3.51-.47-5.2-.7,1-.66,2.11-1,3A8.71,8.71,0,0,1,188,17.69c-.51-.51-1-1-1.59-1.5-.84-.7-1.73-1.36-2.58-2-.14.19-.23.37-.37.56,2.53,3.7,2.67,4.59-.47,8.15-2.53,2.86-5.43,5.44-8.11,8,2.11,1.17,4.27.52,6.94-2.48,3.28-3.7,3.28-3.7,8-2a6.34,6.34,0,0,1,.89.32c2,.85,3-.23,5.11-1.26a17.41,17.41,0,0,1,3.92-1.32,4.69,4.69,0,0,0,2-.09c2.62-.51,4.22-.56,4.78-.09.14.09.19.33.19.75,0,1.11-.58,1.82-2.17,2.35a24.07,24.07,0,0,1-4.44.84,24.54,24.54,0,0,0-2.71.43,8.24,8.24,0,0,0-1,.31,19.3,19.3,0,0,1-3,.89,22,22,0,0,0-5.1,1.74c-2.91,1.5-7.08,3.09-10.12,3-.75-.05-1.36-.14-2-.24-2.72-.47-5.11-.47-7,4.45l-.42,1c-2.06,5.25-6.32,16.12-5.57,27.08.79,11.15-.24,25.91-2.2,30.92l-2,5.06,4.92-2.3c.51-.14,41.88-19.34,75.89-13.58.06,1.51.12,4,.05,6.8-1.53,10.3-6.33,20-13.73,28.67a6.5,6.5,0,0,0-3.33-2.72c-2.9-1.08-4.82-.61-8.33.18a112.5,112.5,0,0,1-11.15,2.06c-20.48,2.72-29.33,3.52-64.93.33-5.49-.47-9-2.11-10.64-5-3.89-6.65,1.87-19.35,6.51-29.56,1.22-2.72,2.39-5.25,3.28-7.54,5.58-14,11.48-26.66,15-34.25l.66-1.36c4.12-8.85,8.34-15.46,13.4-20.89,1.53-1.65,3.28-3.48,5.08-5.34,1.22-1.25,2.46-2.52,3.69-3.75C179.65,9.87,183.8,5.86,185.44,4.53Zm-62.93,6.74a177.21,177.21,0,0,1,44.35,5.51c-1.3,1.35-2.51,2.63-3.58,3.77-5.34,5.76-9.84,12.74-14.15,22l-.65,1.36c-3.56,7.59-9.47,20.33-15.09,34.48-.89,2.2-2,4.68-3.23,7.35-3.07,6.75-6.6,14.5-7.76,21.48-1.17-7-4.69-14.73-7.76-21.48-1.22-2.67-2.35-5.15-3.24-7.35-5.62-14.15-11.52-26.89-15.08-34.48l-.66-1.36c-4.31-9.28-8.8-16.26-14.15-22-1.05-1.13-2.25-2.39-3.53-3.72A177.12,177.12,0,0,1,122.51,11.27ZM38.18,24.72c0-.42,0-.66.19-.75a2.93,2.93,0,0,1,1.89-.31l0,0a20.14,20.14,0,0,1,7.12,1.78c2.11,1,3.09,2.11,5.11,1.26a6.34,6.34,0,0,1,.89-.32c4.68-1.69,4.68-1.69,8,2,2.67,3,4.83,3.65,6.94,2.48-2.67-2.57-5.58-5.15-8.11-8-3.14-3.56-3-4.45-.47-8.15-.14-.19-.23-.37-.37-.56-.84.65-1.73,1.31-2.58,2-.56.47-1.08,1-1.59,1.5a8.71,8.71,0,0,1-1.69-2.11c-.37-.93-.33-2-1-3-.14,1.69-.33,3.37-.47,5.2-.7.09-1.5.19-2.76.33l2.44,1c-.1.51-.19,1.08-.29,1.73,2.82-1.87,4.5-2.95,5.58,1.78-2.11.61-3.7.94-5.86,1.41-1,.2-3-1.54-4.72-3.11a2.71,2.71,0,0,0-.71-.73A14.66,14.66,0,0,1,43,16.76l-.14-.19a1.27,1.27,0,0,1-.29-1c.43-2.11,5-4.87,7.17-6.23a21.38,21.38,0,0,0,2.39-1.6c3.23-2.76,6.14-4,7.22-3.18C61,5.86,65.17,9.9,69.61,14.37c1.22,1.23,2.47,2.5,3.69,3.76,1.78,1.84,3.51,3.65,5,5.28,5.06,5.43,9.27,12,13.4,20.89l.65,1.36c3.52,7.59,9.42,20.24,15,34.25.89,2.29,2.07,4.82,3.28,7.54,4.64,10.21,10.4,22.91,6.52,29.56-1.69,2.9-5.16,4.54-10.64,5-35.6,3.19-44.46,2.39-64.93-.33a111.91,111.91,0,0,1-11.15-2.06c-3.51-.79-5.43-1.26-8.34-.18A6.52,6.52,0,0,0,18.9,122C11,112.71,6.12,102.24,5,91.11c0-1.8,0-3.35.09-4.41,34-5.76,75.37,13.44,75.89,13.58l4.92,2.3-2-5.06c-2-5-3-19.77-2.2-30.92.75-11-3.51-21.83-5.58-27.08l-.42-1c-1.92-4.92-4.31-4.92-7-4.45-.66.1-1.27.19-2,.24-3,.09-7.21-1.5-10.12-3a22.08,22.08,0,0,0-5.11-1.74,18.86,18.86,0,0,1-3-.89,6.72,6.72,0,0,0-.83-.27,22,22,0,0,0-2.87-.47,26.28,26.28,0,0,1-4.3-.79C38.79,26.59,38.18,25.86,38.18,24.72Zm3.28,7.15c1,.2,2,.33,2.81.44a11.27,11.27,0,0,1,2.53.42,21.91,21.91,0,0,0,3.7,1.12,17,17,0,0,1,4.12,1.36c1.64.85,7.41,3.66,12.28,3.47a16.93,16.93,0,0,0,2.57-.33,5.59,5.59,0,0,1,1.18-.19,6.36,6.36,0,0,1,1,2l.42,1c2.06,5.34,6,15.23,5.25,25.21-.61,8.71-.19,20.66,1.26,28.25-11.5-4.8-44.53-17-73.65-12.25a51.53,51.53,0,0,1,6.52-21.06h0C17.71,50,28.09,40,41.46,31.87Z"/><path class="cls-1" d="M638.6,25.66q-13.32,0-19.86,8.2a30.08,30.08,0,0,0-6.54,19.36,29.94,29.94,0,0,0,6.54,19.45q6.54,8.06,19.86,8.07t19.86-8.07A29.94,29.94,0,0,0,665,53.22a30.08,30.08,0,0,0-6.54-19.36Q651.92,25.66,638.6,25.66Zm9.06,39.54q-3.18,4.22-9.11,4.21a10.77,10.77,0,0,1-9.12-4.21q-3.2-4.22-3.19-12t3.19-11.95a10.81,10.81,0,0,1,9.12-4.19q5.94,0,9.11,4.19t3.17,11.95Q650.83,61,647.66,65.2Z"/><path class="cls-1" d="M547,29.29a33.16,33.16,0,0,0-15.18-3.37q-13.14,0-18.53,6.84a20,20,0,0,0-3.83,11.18h13.08a9.84,9.84,0,0,1,1.94-4.76c1.34-1.58,3.64-2.37,6.88-2.37A14.06,14.06,0,0,1,538,38c1.49.81,2.24,2.27,2.24,4.4,0,1.74-1,3-2.92,3.85a22,22,0,0,1-5.43,1.19l-4.63.56q-7.9,1-12,3.34-7.42,4.28-7.42,13.83c0,4.91,1.53,8.71,4.62,11.39s7,3.8,11.69,4c29.58,1.32,29.24-15.59,29.51-19.1V42Q553.65,32.67,547,29.29Zm-6.87,29.53q-.14,6.8-3.88,9.37a14.18,14.18,0,0,1-8.18,2.57,7.49,7.49,0,0,1-4.76-1.55q-2-1.54-2-5a6.18,6.18,0,0,1,3.2-5.75,20.1,20.1,0,0,1,6.22-1.85l3.09-.57a21.61,21.61,0,0,0,3.63-.94,12.85,12.85,0,0,0,2.63-1.3Z"/><path class="cls-1" d="M479.58,37.51c3.38,0,5.86,1,7.46,3.13a11.64,11.64,0,0,1,2.06,5.22h14.59q-1.2-11-7.73-15.42c-4.36-2.89-9.94-4.35-16.78-4.35q-12.06,0-18.91,7.39t-6.85,20.69q0,11.78,6.2,19.17T479,80.74q13.17,0,19.87-8.87a21.85,21.85,0,0,0,4.69-11.65H489a12.17,12.17,0,0,1-2.55,6.63c-1.4,1.7-3.77,2.56-7.11,2.56q-7.06,0-9.62-6.45a24.72,24.72,0,0,1-1.41-9.12,26.92,26.92,0,0,1,1.41-9.55Q472.37,37.51,479.58,37.51Z"/><path class="cls-1" d="M434.91,79.58V54.29c0-4.14.53-7.2,1.56-9.2,1.87-3.54,5.51-5.31,10.95-5.31.41,0,.95,0,1.62,0s1.41.09,2.28.2V26.19l-1.17-.08-.64,0c-30,0-28.2,26.53-28.2,26.53v27Z"/><path class="cls-1" d="M414.52,46.82a25.55,25.55,0,0,0-4.11-10.68,21.08,21.08,0,0,0-8.93-7.64,29.48,29.48,0,0,0-12.15-2.42q-11.37,0-18.48,7.16t-7.12,20.59q0,14.33,7.89,20.68a28.16,28.16,0,0,0,18.2,6.36q12.48,0,19.43-7.54A18.24,18.24,0,0,0,414,65.49H399.55a9.84,9.84,0,0,1-1.86,2.06c-1.92,1.58-4.53,2.06-7.61,2.06a12.92,12.92,0,0,1-7.24-1.74c-3.39-2.08-5.3-5.61-5.5-10.79H415A68.72,68.72,0,0,0,414.52,46.82Zm-36.85,1.34a14,14,0,0,1,3.6-8q2.87-3,8.06-3a11.8,11.8,0,0,1,8,2.79c2.15,1.85,3.35,4.58,3.59,8.15Z"/><path class="cls-1" d="M345.85,48.29V79.57h12.42v-31c0-13.31-8-22.69-21.56-22.69a19.79,19.79,0,0,0-15.45,7.21,19.1,19.1,0,0,0-15.44-7.21C292.53,25.9,284,35.67,284,48.59v31H296.4V48.29c0-5.71,3.86-9.66,9.42-9.66,8.19,0,9,6.8,9,9.66V79.57h12.44V48.29c0-5.71,4-9.66,9.42-9.66C344.9,38.63,345.85,45.43,345.85,48.29Z"/><path class="cls-1" d="M594.46,19.29l0,14.57a16.27,16.27,0,0,0-5.92-5.71,16.64,16.64,0,0,0-8.34-2.06,19.83,19.83,0,0,0-16.28,7.58c-4.06,5.06-6.09,12.35-6.09,21.16q0,11.47,6.19,18.8c4.12,4.88,12.21,7,19.39,7,25,0,24.75-21.47,24.75-21.47V9.75S594.46,8.29,594.46,19.29Zm-2.62,46a10,10,0,0,1-8.72,4.27c-3.83,0-6.68-1.44-8.55-4.29s-2.82-7-2.82-11.8a20.75,20.75,0,0,1,2.77-11.12q2.76-4.47,8.69-4.48A10.31,10.31,0,0,1,590,40.35c3.19,2.72,4.79,7.6,4.79,13.92Q594.83,61.05,591.84,65.31Z"/><path class="cls-1" d="M463.22,115.47a20.92,20.92,0,0,0-8.85-7.57,29.07,29.07,0,0,0-12-2.4c-7.52,0-13.61,2.37-18.32,7.1s-7,11.54-7,20.41q0,14.2,7.82,20.5a27.9,27.9,0,0,0,18,6.31q12.38,0,19.26-7.48a18.12,18.12,0,0,0,4.68-7.77h-14.3a9.9,9.9,0,0,1-1.84,2c-1.91,1.56-4.6,2.15-7.64,2.15a12.76,12.76,0,0,1-7.17-1.73q-5-3.09-5.36-10.8h37.3a67.31,67.31,0,0,0-.45-10.16A25.17,25.17,0,0,0,463.22,115.47Zm-32.44,11.92a14,14,0,0,1,3.57-7.92q2.85-2.93,8-2.93a11.7,11.7,0,0,1,7.94,2.77c2.13,1.83,3.32,4.53,3.57,8.08Z"/><path class="cls-1" d="M359,105.62a16.68,16.68,0,0,0-8.34,2,16.41,16.41,0,0,0-5.93,5.72V88.92S331,87.56,331,98.69v39.65s-.28,21.48,24.76,21.48c7.18,0,15.27-2.15,19.4-7s6.18-11.15,6.18-18.8q0-13.22-6.09-20.8T359,105.62Zm5.62,38.84c-1.89,2.85-4.73,4.28-8.56,4.28a10,10,0,0,1-8.72-4.26q-3-4.26-3-11,0-9.47,4.79-13.55a10.33,10.33,0,0,1,6.82-2.47q5.94,0,8.7,4.49a20.68,20.68,0,0,1,2.78,11.1Q367.44,140.16,364.62,144.46Z"/><path class="cls-1" d="M413.73,105.53c-30,0-28.21,26.54-28.21,26.54V158.6h13.61V133.73q0-6.21,1.57-9.2c1.85-3.53,5.5-5.31,10.94-5.31.42,0,.95,0,1.61.06s1.43.09,2.28.18V105.63l-1.16-.08Z"/><path class="cls-1" d="M284.15,98.65V158.5h12.76V88.89S284.15,88.37,284.15,98.65Z"/><rect class="cls-1" x="307.34" y="88.79" width="13.66" height="13.53"/><rect class="cls-1" x="307.34" y="106.94" width="13.69" height="51.66"/></g></g></svg>