<svg id="anniversary" xmlns="http://www.w3.org/2000/svg" xmlns:xlink="http://www.w3.org/1999/xlink" viewBox="0 0 1023.25 741.5"><defs><style>.cls-1{fill:url(#linear-gradient);}.cls-2{fill:url(#linear-gradient-2);}.cls-3{fill:url(#linear-gradient-3);}.cls-4{fill:#fff;}.cls-5{fill:#86108c;}</style><linearGradient id="linear-gradient" x1="-344.73" y1="431.67" x2="497.69" y2="431.67" gradientTransform="matrix(1, -0.13, 0.13, 1.02, 272.07, 71.17)" gradientUnits="userSpaceOnUse"><stop offset="0" stop-color="#fff"/><stop offset="0.11" stop-color="#f6f6ff"/><stop offset="0.28" stop-color="#dcdcff"/><stop offset="0.48" stop-color="#babaff"/><stop offset="0.52" stop-color="#afa6ff"/><stop offset="0.63" stop-color="#977bff"/><stop offset="0.73" stop-color="#845aff"/><stop offset="0.83" stop-color="#7642ff"/><stop offset="0.92" stop-color="#6e33ff"/><stop offset="1" stop-color="#6b2eff"/></linearGradient><linearGradient id="linear-gradient-2" x1="222.03" y1="766.3" x2="225.61" y2="519.36" gradientTransform="matrix(1, -0.13, 0.13, 1.02, 272.07, 71.17)" gradientUnits="userSpaceOnUse"><stop offset="0" stop-color="#5000b4"/><stop offset="0.08" stop-color="#5404bd"/><stop offset="0.21" stop-color="#5d0ed6"/><stop offset="0.3" stop-color="#6517eb"/><stop offset="1" stop-color="#6517eb"/></linearGradient><linearGradient id="linear-gradient-3" x1="670.8" y1="79.35" x2="-352.38" y2="676.21" gradientTransform="matrix(1, -0.13, 0.13, 1.02, 272.07, 71.17)" gradientUnits="userSpaceOnUse"><stop offset="0" stop-color="#fff"/><stop offset="0.32" stop-color="#f6f6ff"/><stop offset="0.48" stop-color="#efefff"/><stop offset="0.5" stop-color="#edebff"/><stop offset="0.69" stop-color="#e0d3ff"/><stop offset="0.86" stop-color="#d9c4ff"/><stop offset="1" stop-color="#d6bfff"/></linearGradient></defs><title>anniversary</title><polygon class="cls-1" points="850.32 619.78 7.79 741.5 122.83 546.58 0 377.91 745.82 267.31 850.32 619.78"/><polygon class="cls-2" points="261.91 594.14 850.32 619.78 851.67 374.57 261.91 594.14"/><polygon class="cls-3" points="264.47 130.95 261.92 594.14 1023.25 485.04 1022.28 0 264.47 130.95"/><path class="cls-4" d="M615.3,148.58l.25,44.52-88.8,13.16.22,38.58a87.33,87.33,0,0,1,22.81-6.34q32.51-4.81,56.09,11.81t23.79,50.77q.18,34.13-24,60t-59.88,31.15q-45.7,6.78-76.45-23.33l26.17-41.5c2,1.69,4.54,3.73,7.77,6.11s9.15,5.31,17.75,8.75a49,49,0,0,0,25.78,3.28,41.34,41.34,0,0,0,22.8-11.3q9.93-9.39,9.84-24.89T568.57,287q-10.83-6.79-27.86-4.28t-39.52,18.39l-21-20-.62-112.45Z"/><path class="cls-4" d="M681.7,176.79l.25,46.35c0,4,1,6.92,3.06,8.87a8,8,0,0,0,7.14,2.31q7.89-1.17,13.27-9.28L716,243.67q-13,14.25-27.59,16.41t-24.63-6.16q-10.1-8.32-10.18-25.24L653.38,181l-11.81,1.75L641.46,162l11.81-1.75-.18-31,28.32-4.19.18,31L706,152.41l.12,20.76Z"/><path class="cls-4" d="M753.31,193.12l.3,55.75L725.49,253l-.8-142.65,28.14-4.18.28,50.76q12.69-15.15,28.53-17.5t26.8,7.57c7.27,6.62,11,16.34,11,29.14l.35,62.88-28.13,4.17-.31-56.53q-.12-23.82-17.2-21.3a23.77,23.77,0,0,0-14.69,8.42Q753.25,181,753.31,193.12Z"/><path class="cls-4" d="M378.68,526.85l15.37-70.62,11.73-1.76,13,66.34-13.1,2-2.44-14.24-8.57,1.29-2.8,15Zm17-25.67,6.79-1-2.9-24.93Z"/><path class="cls-4" d="M434.17,518.49,435.35,450l9.56-1.45,13.8,33.67.61-35.84,11-1.66-1.17,68.52L460,514.6l-13.73-35.84-.66,38Z"/><path class="cls-4" d="M488.17,510.35l1.17-68.52,9.55-1.45,13.78,33.68.61-35.85,11-1.66-1.18,68.53-9.19,1.38-13.7-35.84-.66,38Z"/><path class="cls-4" d="M542.13,502.21l1.18-68.48,13.26-2-1.18,68.48Z"/><path class="cls-4" d="M583,496.05l-10.9-66.66,12.58-1.9,5.09,40.63,7.12-42.47,12.39-1.87-14.13,70.44Z"/><path class="cls-4" d="M623.67,489.92l1.18-68.48,27.37-4.13-.16,9.51L638,428.94l-.33,18.64,10-1.5-.16,9.74-10,1.5-.35,21.08,14.1-2.12L651,485.8Z"/><path class="cls-4" d="M667,483.39l1.16-68.48,14.43-2.18a33.84,33.84,0,0,1,8.65-.34,16,16,0,0,1,6.51,2.06,10.25,10.25,0,0,1,4.17,4.95,20.68,20.68,0,0,1,1.31,8.21c0,1.41-.1,2.69-.21,3.82a28.76,28.76,0,0,1-.73,3.92,19.3,19.3,0,0,1-1.52,4,16.72,16.72,0,0,1-2.68,3.65A19.72,19.72,0,0,1,694,446.3q5.57,18.66,9.72,31.55L690,479.93l-7-30.41-2.18.33-.55,31.53Zm14-42,3.79-.57a4.35,4.35,0,0,0,2.65-1.47,7.71,7.71,0,0,0,1.63-2.93,27.19,27.19,0,0,0,.75-3.12,19.37,19.37,0,0,0,.23-2.61,23.39,23.39,0,0,0-.11-2.49,23.62,23.62,0,0,0-.54-2.78,4.65,4.65,0,0,0-1.33-2.38,2.75,2.75,0,0,0-2.34-.66l-4.43.67Z"/><path class="cls-4" d="M717.19,456.28l13.5-4.73c0,1.4,0,2.62,0,3.68a25.73,25.73,0,0,0,.33,3.42,11.53,11.53,0,0,0,.77,3,4.34,4.34,0,0,0,1.48,1.79,3,3,0,0,0,2.25.48c2.63-.4,4-2.34,4-5.85q.11-7.18-7.51-13.14l-4.09-3c-1.28-.95-2.31-1.74-3.07-2.39a27.24,27.24,0,0,1-2.71-2.66,16,16,0,0,1-2.4-3.38,17.54,17.54,0,0,1-1.47-4.12,22.2,22.2,0,0,1,4.74-19.26,22.27,22.27,0,0,1,13.55-6.87,13.42,13.42,0,0,1,11.76,3.39A14.82,14.82,0,0,1,753,418.31l0,.5c0,.33,0,.72,0,1.14L739.23,424c0-.28,0-.72.08-1.32s.07-1.09.08-1.47a16.73,16.73,0,0,0-.14-2.6,12.7,12.7,0,0,0-.57-2.42,3.46,3.46,0,0,0-1.25-1.81,2.75,2.75,0,0,0-2.1-.42,4.44,4.44,0,0,0-3.31,2.29,8.94,8.94,0,0,0-1.16,4.38,10.44,10.44,0,0,0,.57,3.9,9,9,0,0,0,1.85,3.2,22.73,22.73,0,0,0,2.36,2.31c.7.61,1.67,1.33,2.86,2.17s2,1.47,2.56,1.88a43.6,43.6,0,0,1,4.66,4.13,32.27,32.27,0,0,1,3.55,4.57,19.08,19.08,0,0,1,2.46,5.77,26.41,26.41,0,0,1,.73,7,18.17,18.17,0,0,1-5.12,12.52,20.2,20.2,0,0,1-12,6.38,16.89,16.89,0,0,1-8.06-.53,11.91,11.91,0,0,1-5.62-3.89,19.06,19.06,0,0,1-3.23-6.16A26.92,26.92,0,0,1,717.19,456.28Z"/><path class="cls-4" d="M765.11,468.59,780.48,398l11.73-1.77,13,66.36-13.11,2-2.44-14.24-8.55,1.28-2.82,15Zm17-25.67,6.78-1L786,417Z"/><path class="cls-4" d="M820.64,460.22l1.16-68.48,14.44-2.17a33.74,33.74,0,0,1,8.64-.34,15.51,15.51,0,0,1,6.49,2.06,10,10,0,0,1,4.17,4.94,20.07,20.07,0,0,1,1.31,8.22c0,1.41-.09,2.69-.19,3.82a29.83,29.83,0,0,1-.75,3.93,18.34,18.34,0,0,1-1.51,4,17.19,17.19,0,0,1-2.67,3.64,19.25,19.25,0,0,1-4.1,3.28q5.57,18.66,9.73,31.54l-13.78,2.08-7-30.4-2.19.33-.53,31.53Zm13.94-42,3.8-.57A4.4,4.4,0,0,0,841,416.2a7.51,7.51,0,0,0,1.61-2.94,20.45,20.45,0,0,0,.74-3.1,14,14,0,0,0,.25-2.62,17.49,17.49,0,0,0-.11-2.49,19.58,19.58,0,0,0-.54-2.78,4.71,4.71,0,0,0-1.34-2.38,2.68,2.68,0,0,0-2.32-.66l-4.42.67Z"/><path class="cls-4" d="M880.82,451.15l.39-22.63-11.54-44,12.51-1.89,5.62,29.17q1.2-5.12,3.65-15.56c1.63-7,2.82-12.14,3.62-15.55l12.13-1.83-13.14,47.7-.4,22.64Z"/><path class="cls-4" d="M669,368.75q-7.25,1.1-13.57-3.95l6.42-11.39a8.66,8.66,0,0,0,7.09,2.4,5,5,0,0,0,3.35-2.43,7.94,7.94,0,0,0,1.43-4.3q0-2.16-18.19-48.67l14.68-2.21,11.48,29.69,12.55-33.31,14.68-2.22-24,63.1a21.1,21.1,0,0,1-6.42,9A19.64,19.64,0,0,1,669,368.75Z"/><path class="cls-4" d="M758.75,328q-8.49,9.35-19.72,11t-18.46-4.3c-4.83-4-7.15-10-7-17.94a29.21,29.21,0,0,1,7.8-20.12A29.81,29.81,0,0,1,739.13,287q10.2-1.53,17.19,3.69t6.83,16.24l-.14,7.52-36,5.43a8.18,8.18,0,0,0,4.13,6.13,11.7,11.7,0,0,0,8,1.41,18.82,18.82,0,0,0,12-6.78Zm-12.7-28a9.05,9.05,0,0,0-6.88-1.41,14.52,14.52,0,0,0-7.53,3.67,12,12,0,0,0-4.06,7.46l21.66-3.26Q748.85,302,746.05,300Z"/><path class="cls-4" d="M815.42,326.79l-12.95,1.95.11-6.11q-5.45,7.65-13.28,8.84t-13.08-2.67c-3.51-2.57-5.2-6.44-5.11-11.61a15.8,15.8,0,0,1,5.71-12.46q5.56-4.67,15.1-6.12l10.27-1.55v-.27c.1-5.4-2.65-7.68-8.22-6.85a24.93,24.93,0,0,0-7.57,2.61,30.25,30.25,0,0,0-6.81,4.65l-6-8.21a42.66,42.66,0,0,1,22.34-10.58c6-.91,10.85-.12,14.59,2.38s5.56,7.08,5.44,13.73Zm-13.54-17.2,0-2.45-8.61,1.3c-5.5.83-8.29,3-8.34,6.51a4.1,4.1,0,0,0,1.89,3.89c1.3.79,3.17,1,5.62.61a11.68,11.68,0,0,0,6.5-3.28A8.92,8.92,0,0,0,801.88,309.59Z"/><path class="cls-4" d="M855.53,282.64a12.63,12.63,0,0,0-9.26,5.87A23.36,23.36,0,0,0,843,300.76l-.39,21.92-13.76,2.08.87-50.62,13.78-2.07-.12,6.67a29.41,29.41,0,0,1,6.74-6.26,20.6,20.6,0,0,1,8.17-3.48l-.14,13.24Z"/><path class="cls-5" d="M620.23,142.08l.25,44.52-88.8,13.16.22,38.58A87.22,87.22,0,0,1,554.71,232q32.5-4.81,56.09,11.81t23.78,50.77q.2,34.13-24,60t-59.87,31.15Q505,392.51,474.29,362.4l26.17-41.5q2.93,2.53,7.77,6.11T526,335.76A49,49,0,0,0,551.75,339a41.4,41.4,0,0,0,22.81-11.3q9.93-9.39,9.84-24.89t-10.9-22.32q-10.83-6.79-27.87-4.28t-39.51,18.39l-21-20-.62-112.45Z"/><path class="cls-5" d="M686.63,170.29l.24,46.35c0,4,1,6.92,3.06,8.87a8.09,8.09,0,0,0,7.15,2.31q7.88-1.17,13.27-9.28L721,237.17q-13.05,14.25-27.58,16.41t-24.63-6.17q-10.1-8.31-10.19-25.24l-.25-47.68-11.81,1.75-.12-20.76,11.82-1.75-.18-31,28.32-4.19.17,31,24.38-3.62.11,20.76Z"/><path class="cls-5" d="M758.23,186.62l.31,55.75-28.13,4.17-.8-142.65,28.15-4.18.28,50.76q12.68-15.15,28.53-17.5t26.79,7.57q10.92,9.93,11,29.14l.35,62.88-28.12,4.17-.31-56.53q-.13-23.82-17.21-21.31a23.83,23.83,0,0,0-14.68,8.43Q758.17,174.51,758.23,186.62Z"/><path class="cls-5" d="M383.6,520.35,399,449.73,410.71,448l13,66.34-13.11,2-2.43-14.24-8.57,1.29-2.81,15Zm17-25.67,6.79-1-2.91-24.92Z"/><path class="cls-5" d="M439.1,512l1.17-68.52,9.57-1.45,13.79,33.67.61-35.84,11-1.66-1.17,68.52-9.2,1.39-13.73-35.84-.65,38Z"/><path class="cls-5" d="M493.09,503.85l1.18-68.52,9.54-1.45,13.78,33.68.61-35.85,11-1.66-1.17,68.53-9.2,1.38-13.69-35.84-.66,38Z"/><path class="cls-5" d="M547.05,495.71l1.18-68.48,13.27-2-1.18,68.48Z"/><path class="cls-5" d="M587.94,489.55,577,422.89l12.57-1.9,5.09,40.63,7.12-42.47,12.4-1.87-14.14,70.43Z"/><path class="cls-5" d="M628.6,483.42l1.18-68.48,27.36-4.13-.15,9.51-14.12,2.12-.32,18.64,10-1.5-.15,9.74-10,1.5L642,471.9l14.1-2.12L656,479.3Z"/><path class="cls-5" d="M671.92,476.89l1.16-68.48,14.44-2.18a33.83,33.83,0,0,1,8.65-.34,15.9,15.9,0,0,1,6.5,2.06,10.25,10.25,0,0,1,4.17,4.95,20.5,20.5,0,0,1,1.31,8.21c0,1.41-.09,2.69-.2,3.82a28.94,28.94,0,0,1-.74,3.92,18.75,18.75,0,0,1-1.52,4,16.33,16.33,0,0,1-2.67,3.65,20,20,0,0,1-4.09,3.27q5.55,18.66,9.71,31.55l-13.74,2.07-7-30.4-2.18.33-.54,31.53Zm14-42,3.78-.57a4.35,4.35,0,0,0,2.65-1.47,7.46,7.46,0,0,0,1.63-2.93,25.42,25.42,0,0,0,.76-3.12,19.37,19.37,0,0,0,.23-2.61,23.39,23.39,0,0,0-.11-2.49,23.62,23.62,0,0,0-.54-2.78,4.67,4.67,0,0,0-1.34-2.38,2.73,2.73,0,0,0-2.34-.66l-4.42.67Z"/><path class="cls-5" d="M722.11,449.78l13.5-4.73c0,1.4,0,2.62,0,3.68a24.16,24.16,0,0,0,.33,3.42,10.77,10.77,0,0,0,.77,3,4.26,4.26,0,0,0,1.48,1.79,3,3,0,0,0,2.25.48q3.93-.6,4-5.85.1-7.18-7.52-13.14l-4.08-3c-1.29-.94-2.32-1.73-3.07-2.38a27.19,27.19,0,0,1-2.72-2.66,16,16,0,0,1-2.4-3.38,18,18,0,0,1-1.46-4.12A22.2,22.2,0,0,1,728,403.56a22.21,22.21,0,0,1,13.55-6.87,13.4,13.4,0,0,1,11.75,3.39c3.2,2.94,4.77,6.86,4.68,11.73l-.05.5c0,.33,0,.72,0,1.14l-13.73,4.05c0-.28,0-.72.07-1.32s.07-1.09.09-1.47a19.62,19.62,0,0,0-.14-2.6,12.73,12.73,0,0,0-.58-2.42,3.45,3.45,0,0,0-1.24-1.81,2.75,2.75,0,0,0-2.1-.42,4.4,4.4,0,0,0-3.31,2.29,8.84,8.84,0,0,0-1.17,4.38,10.65,10.65,0,0,0,.58,3.9,8.7,8.7,0,0,0,1.85,3.19,21.06,21.06,0,0,0,2.36,2.32c.7.61,1.67,1.33,2.86,2.17s2.05,1.47,2.56,1.88a42.46,42.46,0,0,1,4.65,4.13,31.55,31.55,0,0,1,3.55,4.57,19.1,19.1,0,0,1,2.47,5.77,27.26,27.26,0,0,1,.73,7,18.22,18.22,0,0,1-5.12,12.52,20.23,20.23,0,0,1-12,6.38,16.85,16.85,0,0,1-8.05-.53,11.86,11.86,0,0,1-5.62-3.89,19,19,0,0,1-3.23-6.16A26.92,26.92,0,0,1,722.11,449.78Z"/><path class="cls-5" d="M770,462.09l15.38-70.62,11.73-1.77,13,66.36L797,458l-2.44-14.24L786,445.08l-2.81,15Zm17-25.67,6.78-1L791,410.47Z"/><path class="cls-5" d="M825.56,453.72l1.17-68.48,14.43-2.17a33.81,33.81,0,0,1,8.65-.34,15.56,15.56,0,0,1,6.49,2.06,10,10,0,0,1,4.17,4.94,20.24,20.24,0,0,1,1.31,8.22c0,1.41-.09,2.69-.19,3.82a29.83,29.83,0,0,1-.75,3.93,18.35,18.35,0,0,1-1.52,4,17.47,17.47,0,0,1-2.66,3.64,19.25,19.25,0,0,1-4.1,3.28q5.55,18.66,9.73,31.54l-13.78,2.08-7-30.4-2.2.33-.53,31.53Zm14-42,3.79-.57A4.43,4.43,0,0,0,846,409.7a7.51,7.51,0,0,0,1.61-2.94,20.45,20.45,0,0,0,.74-3.1,14.91,14.91,0,0,0,.25-2.63,18.94,18.94,0,0,0-.11-2.48,19.58,19.58,0,0,0-.54-2.78,4.71,4.71,0,0,0-1.34-2.38,2.7,2.7,0,0,0-2.32-.66l-4.43.67Z"/><path class="cls-5" d="M885.74,444.65l.4-22.63L874.6,378l12.51-1.89,5.62,29.17q1.2-5.12,3.64-15.56c1.63-7,2.82-12.14,3.62-15.55l12.13-1.83L899,420.07l-.4,22.64Z"/><path class="cls-5" d="M673.94,362.25c-4.84.73-9.35-.59-13.58-3.95l6.43-11.39a8.66,8.66,0,0,0,7.09,2.4,5,5,0,0,0,3.34-2.43,8,8,0,0,0,1.44-4.3q0-2.16-18.19-48.67l14.68-2.21,11.48,29.69,12.55-33.32,14.67-2.21-24,63.1a21.08,21.08,0,0,1-6.41,9A19.68,19.68,0,0,1,673.94,362.25Z"/><path class="cls-5" d="M763.67,321.51q-8.49,9.35-19.72,11c-7.49,1.13-13.66-.29-18.46-4.3s-7.14-10-7-17.94a29.15,29.15,0,0,1,7.79-20.12,29.86,29.86,0,0,1,17.79-9.72q10.19-1.53,17.19,3.69t6.82,16.24l-.13,7.52-36,5.43a8.14,8.14,0,0,0,4.12,6.13,11.73,11.73,0,0,0,8,1.41,18.85,18.85,0,0,0,12-6.78Zm-12.7-28a9,9,0,0,0-6.87-1.41,14.45,14.45,0,0,0-7.53,3.67,12,12,0,0,0-4.07,7.46L754.17,300C753.91,297,752.85,294.84,751,293.5Z"/><path class="cls-5" d="M820.34,320.28l-12.94,2,.1-6.11q-5.44,7.65-13.27,8.84t-13.09-2.67c-3.5-2.57-5.19-6.44-5.1-11.61a15.82,15.82,0,0,1,5.7-12.46c3.72-3.11,8.74-5.16,15.1-6.12l10.27-1.55,0-.27q.15-8.1-8.23-6.85a24.87,24.87,0,0,0-7.56,2.61,30.32,30.32,0,0,0-6.82,4.65l-6-8.21a42.81,42.81,0,0,1,22.35-10.59q9-1.35,14.59,2.39T820.9,288Zm-13.53-17.19,0-2.45-8.62,1.3c-5.49.83-8.28,3-8.33,6.51a4.08,4.08,0,0,0,1.89,3.89q1.94,1.17,5.62.61a11.78,11.78,0,0,0,6.5-3.28A9,9,0,0,0,806.81,303.09Z"/><path class="cls-5" d="M860.45,276.14A12.59,12.59,0,0,0,851.2,282,23.35,23.35,0,0,0,848,294.25l-.39,21.93-13.76,2.07.86-50.61,13.78-2.07-.11,6.67a29.57,29.57,0,0,1,6.73-6.26,20.64,20.64,0,0,1,8.18-3.48l-.15,13.24Z"/></svg>