<?xml version="1.0" encoding="utf-8"?>
<!-- Generator: Adobe Illustrator 24.0.0, SVG Export Plug-In . SVG Version: 6.00 Build 0)  -->
<svg version="1.1" id="Layer_1" xmlns="http://www.w3.org/2000/svg" xmlns:xlink="http://www.w3.org/1999/xlink" x="0px" y="0px"
	 viewBox="0 0 1024 1024" style="enable-background:new 0 0 1024 1024;" xml:space="preserve">
<style type="text/css">
	.st0{fill:none;stroke:#FFFFFF;stroke-width:13.8847;stroke-linecap:round;stroke-linejoin:round;stroke-miterlimit:10;}
	.st1{fill:#FFFFFF;}
	
		.st2{opacity:0.5;fill:none;stroke:#FFFFFF;stroke-width:34.7118;stroke-linecap:round;stroke-linejoin:round;stroke-miterlimit:10;}
	.st3{fill:#FFFFFF;stroke:#3A047B;stroke-width:13.8847;stroke-linecap:round;stroke-linejoin:round;stroke-miterlimit:10;}
	.st4{fill:#FFFFFF;stroke:#3A047B;stroke-width:6.9424;stroke-miterlimit:10;}
</style>
<g>
	<g>
		<g>
			<path id="path1948_8_" class="st0" d="M520.7,362.1h-146h-54.8c-42.4,0-79.6,25.5-91.2,74c-13.4,55.6-14,90.3,0,148.4
				c10.4,43.2,35.2,74,77.6,74h50.2 M666.6,366v-78.1c0-39.6-33.4-69.3-73-75.9c-25.1-4.2-51.1-6.1-76.1-6c-25,0.1-48.8,2.2-69.8,6
				c-61.8,10.9-73,33.8-73,75.9v64.7"/>
			<path id="path1950_8_" class="st0" d="M502.6,658.5h145.8h73c42.4,0,58.2-29.6,73-74c15.2-45.7,14.6-89.7,0-148.4
				c-10.5-42.2-30.5-74-73-74h-54.8v64.8c0,50.3-42.6,92.6-91.2,92.6H429.6c-39.9,0-73,34.2-73,74.2v139c0,39.6,34.4,62.8,73,74.2
				c46.2,13.6,90.5,16,145.8,0c36.8-10.6,73-32.1,73-74.2v-68.4"/>
			<path class="st1" d="M438.5,252.3c14.3,0,25.9,11.9,25.9,26.4c0,14.5-11.7,26.3-25.9,26.3c-14.3,0-25.9-11.7-25.9-26.3
				C412.6,264.1,424.2,252.3,438.5,252.3z"/>
			<path class="st1" d="M584.6,715.7c14.3,0,25.9,11.7,25.9,26.3c0,14.6-11.6,26.4-25.9,26.4c-14.3,0-25.9-11.9-25.9-26.4
				C558.6,727.4,570.3,715.7,584.6,715.7z"/>
		</g>
		<g>
			<path class="st2" d="M174.6,862.8c145.3,139.7,368.6,179.5,558.3,82.9C922.7,849,1021.7,645,994.1,445.3"/>
			<path class="st2" d="M849.4,161.2C704.1,21.5,480.8-18.3,291.1,78.4S2.3,379,29.9,578.7"/>
			<circle class="st1" cx="175.1" cy="863.5" r="46.7"/>
			<circle class="st1" cx="848.9" cy="161" r="46.7"/>
		</g>
	</g>
	<path class="st1" d="M470.7,349.8l-77,193.2c0,0,129.3,50.8,135.1,47.9c5.8-2.9,154-7.3,158.4-33.4c4.4-26.2,21.8-116.2,14.5-126.4
		c-7.3-10.2-35.3-75.6-35.1-69c0.2,6.6-18.7-13.8-18.7-13.8L470.7,349.8z"/>
	<g>
		<path id="path1948_7_" class="st3" d="M520.7,362.1h-146h-54.8c-42.4,0-79.6,25.5-91.2,74c-13.4,55.6-14,90.3,0,148.4
			c10.4,43.2,35.2,74,77.6,74h50.2 M666.6,366v-78.1c0-39.6-33.4-69.3-73-75.9c-25.1-4.2-51.1-6.1-76.1-6c-25,0.1-48.8,2.2-69.8,6
			c-61.8,10.9-73,33.8-73,75.9v64.7"/>
		<path id="path1950_7_" class="st3" d="M502.6,658.5h145.8h73c42.4,0,58.2-29.6,73-74c15.2-45.7,14.6-89.7,0-148.4
			c-10.5-42.2-30.5-74-73-74h-54.8v64.8c0,50.3-42.6,92.6-91.2,92.6H429.6c-39.9,0-73,34.2-73,74.2v139c0,39.6,34.4,62.8,73,74.2
			c46.2,13.6,90.5,16,145.8,0c36.8-10.6,73-32.1,73-74.2v-68.4"/>
		<path class="st4" d="M438.5,252.3c14.3,0,25.9,11.9,25.9,26.4c0,14.5-11.7,26.3-25.9,26.3c-14.3,0-25.9-11.7-25.9-26.3
			C412.6,264.1,424.2,252.3,438.5,252.3z"/>
		<path class="st4" d="M584.6,715.7c14.3,0,25.9,11.7,25.9,26.3c0,14.6-11.6,26.4-25.9,26.4c-14.3,0-25.9-11.9-25.9-26.4
			C558.6,727.4,570.3,715.7,584.6,715.7z"/>
	</g>
</g>
<g>
</g>
<g>
</g>
<g>
</g>
<g>
</g>
<g>
</g>
<g>
</g>
<g>
</g>
<g>
</g>
<g>
</g>
<g>
</g>
<g>
</g>
<g>
</g>
<g>
</g>
<g>
</g>
<g>
</g>
</svg>