<svg id="Layer_1" data-name="Layer 1" xmlns="http://www.w3.org/2000/svg" viewBox="0 0 538.51 145.23"><defs><style>.cls-1,.cls-4,.cls-5{fill:#fff;}.cls-2,.cls-3{fill:none;stroke:#fff;}.cls-2,.cls-3,.cls-4{stroke-linecap:round;stroke-linejoin:round;}.cls-2,.cls-4{stroke-width:2px;}.cls-3{stroke-width:5px;opacity:0.5;}.cls-4,.cls-5{stroke:#3f1056;}.cls-5{stroke-miterlimit:10;}</style></defs><title>Landing 1.0 layout</title><path class="cls-1" d="M180.09,23.4h16a32.86,32.86,0,0,1,7.71.85,16.88,16.88,0,0,1,5.93,2.63,12.09,12.09,0,0,1,3.78,4.52,15.11,15.11,0,0,1,1.33,6.6,14.51,14.51,0,0,1-1.45,6.74,12.24,12.24,0,0,1-4,4.59A17.86,17.86,0,0,1,203.32,52a32.7,32.7,0,0,1-7.6.85h-8.3v23h-7.33Zm7.33,23.19h7.78a23.76,23.76,0,0,0,4.93-.48A12.18,12.18,0,0,0,204,44.63,6.91,6.91,0,0,0,206.54,42a8.3,8.3,0,0,0,.89-4,7.8,7.8,0,0,0-.93-4A7.43,7.43,0,0,0,204,31.44,10.83,10.83,0,0,0,200.17,30a26.93,26.93,0,0,0-4.82-.4h-7.93Z"/><path class="cls-1" d="M247.74,75.86h-7.41V53.19L220.69,23.4h9l14.52,23.71,14.6-23.71h8.52L247.74,53.19Z"/><path class="cls-1" d="M321,67.71a23.5,23.5,0,0,1-8.08,6.85A25.11,25.11,0,0,1,301,77.19a29.47,29.47,0,0,1-11.08-2,25.83,25.83,0,0,1-8.74-5.71,26.25,26.25,0,0,1-5.74-8.74,29.24,29.24,0,0,1-2.08-11.15,29,29,0,0,1,2.12-11.23,25.24,25.24,0,0,1,5.85-8.67,26.68,26.68,0,0,1,8.85-5.59,30.35,30.35,0,0,1,11.12-2,28.72,28.72,0,0,1,5.41.52A26.78,26.78,0,0,1,312,24.14a21.71,21.71,0,0,1,4.59,2.56,16.51,16.51,0,0,1,3.56,3.52l-5.78,4.44a14.52,14.52,0,0,0-5.45-4.4,16.89,16.89,0,0,0-7.59-1.75,19.72,19.72,0,0,0-8.26,1.67,18.5,18.5,0,0,0-6.26,4.56,20.58,20.58,0,0,0-4,6.7,23.49,23.49,0,0,0-1.4,8.12,24.46,24.46,0,0,0,1.37,8.3,20,20,0,0,0,3.92,6.7A18.08,18.08,0,0,0,292.9,69a19.86,19.86,0,0,0,8.19,1.63,18.17,18.17,0,0,0,8.07-1.77,15.61,15.61,0,0,0,6-5.19Z"/><path class="cls-1" d="M385,49.56a28.69,28.69,0,0,1-2.11,11.15A26.45,26.45,0,0,1,377,69.45a26.13,26.13,0,0,1-8.81,5.71,31.36,31.36,0,0,1-22.2,0,26.19,26.19,0,0,1-8.78-5.71,25.87,25.87,0,0,1-5.77-8.74,29.05,29.05,0,0,1-2.08-11.15,29.32,29.32,0,0,1,2.08-11.23,25.19,25.19,0,0,1,5.77-8.67A26.37,26.37,0,0,1,346,24.07a31.8,31.8,0,0,1,22.2,0A26.3,26.3,0,0,1,377,29.66a25.74,25.74,0,0,1,5.82,8.67A29,29,0,0,1,385,49.56Zm-7.93,0a23.49,23.49,0,0,0-1.4-8.12,20.58,20.58,0,0,0-4-6.7,18.6,18.6,0,0,0-6.26-4.56,21.09,21.09,0,0,0-16.45,0,18.25,18.25,0,0,0-6.22,4.56,20.82,20.82,0,0,0-4,6.7,23.26,23.26,0,0,0-1.41,8.12,23.74,23.74,0,0,0,1.41,8.22,19.93,19.93,0,0,0,4,6.71A18.67,18.67,0,0,0,349,69a19.64,19.64,0,0,0,8.15,1.63A20.19,20.19,0,0,0,365.33,69a18.45,18.45,0,0,0,6.29-4.48,20.12,20.12,0,0,0,4-6.71A24,24,0,0,0,377,49.56Z"/><path class="cls-1" d="M436.38,65.34h.15V23.4h7.34V75.86h-9.26L406.89,33h-.15V75.86h-7.33V23.4H409Z"/><path class="cls-1" d="M193.92,119.44a13.6,13.6,0,0,1-4.92.94,13,13,0,0,1-5.15-1,12.05,12.05,0,0,1-4-2.74,12.29,12.29,0,0,1-2.63-4.18,15.54,15.54,0,0,1,0-10.59,12.29,12.29,0,0,1,2.63-4.18,12.1,12.1,0,0,1,4-2.74A13.12,13.12,0,0,1,189,94a13.36,13.36,0,0,1,4.54.8,9.5,9.5,0,0,1,3.75,2.42l-.49.56a8.27,8.27,0,0,0-1.68-1.36,11.11,11.11,0,0,0-4.07-1.53,12.27,12.27,0,0,0-2.05-.18,12,12,0,0,0-4.89,1,11.37,11.37,0,0,0-3.78,2.67,12.12,12.12,0,0,0-2.43,4,13.51,13.51,0,0,0-.87,4.88,14,14,0,0,0,.85,4.89,11.77,11.77,0,0,0,2.42,4,11.37,11.37,0,0,0,3.78,2.67,12,12,0,0,0,4.92,1,12.48,12.48,0,0,0,4.61-.9,9.18,9.18,0,0,0,3.76-2.7l.56.53A9.58,9.58,0,0,1,193.92,119.44Z"/><path class="cls-1" d="M248.37,111.52a9.58,9.58,0,0,1-.62,3.49,7.71,7.71,0,0,1-4.45,4.52,9.12,9.12,0,0,1-3.44.63,9,9,0,0,1-3.42-.63A7.83,7.83,0,0,1,232,115a10.1,10.1,0,0,1,0-7,7.64,7.64,0,0,1,1.75-2.7,8.13,8.13,0,0,1,2.68-1.77,9,9,0,0,1,3.42-.63,9.12,9.12,0,0,1,3.44.63,8.27,8.27,0,0,1,2.71,1.77,7.75,7.75,0,0,1,1.74,2.7A9.49,9.49,0,0,1,248.37,111.52Zm-.78,0a8.65,8.65,0,0,0-.53-3.07,7.3,7.3,0,0,0-1.53-2.53,7.07,7.07,0,0,0-2.44-1.69,8.09,8.09,0,0,0-3.23-.62,8,8,0,0,0-3.21.62,7.18,7.18,0,0,0-2.42,1.69,7.3,7.3,0,0,0-1.53,2.53,8.88,8.88,0,0,0-.53,3.07,9,9,0,0,0,.53,3.1,7.3,7.3,0,0,0,1.53,2.53,7.68,7.68,0,0,0,2.42,1.71,7.79,7.79,0,0,0,3.21.63,7.92,7.92,0,0,0,3.23-.63,7.55,7.55,0,0,0,2.44-1.71,7.3,7.3,0,0,0,1.53-2.53A8.78,8.78,0,0,0,247.59,111.52Z"/><path class="cls-1" d="M284.51,119.67V93h.78v26.68Z"/><path class="cls-1" d="M338.41,111.52a9.38,9.38,0,0,1-.62,3.49,7.73,7.73,0,0,1-4.44,4.52,9.19,9.19,0,0,1-3.44.63,9.07,9.07,0,0,1-3.43-.63,8,8,0,0,1-2.68-1.78,8,8,0,0,1-1.75-2.74,10.1,10.1,0,0,1,0-7,7.78,7.78,0,0,1,1.75-2.7,8.24,8.24,0,0,1,2.68-1.77,9.07,9.07,0,0,1,3.43-.63,9.19,9.19,0,0,1,3.44.63,8.33,8.33,0,0,1,2.7,1.77,7.75,7.75,0,0,1,1.74,2.7A9.29,9.29,0,0,1,338.41,111.52Zm-.77,0a8.88,8.88,0,0,0-.53-3.07,7.48,7.48,0,0,0-1.54-2.53,7.07,7.07,0,0,0-2.44-1.69,8.67,8.67,0,0,0-6.44,0,7.14,7.14,0,0,0-2.41,1.69,7.32,7.32,0,0,0-1.54,2.53,8.88,8.88,0,0,0-.53,3.07,9,9,0,0,0,.53,3.1,7.32,7.32,0,0,0,1.54,2.53,7.64,7.64,0,0,0,2.41,1.71,8.54,8.54,0,0,0,6.44,0,7.25,7.25,0,0,0,4-4.24A9,9,0,0,0,337.64,111.52Z"/><path class="cls-1" d="M387,107.92a6.92,6.92,0,0,1,2.4-3.69,6.18,6.18,0,0,1,3.85-1.29,5.68,5.68,0,0,1,2.73.6,4.86,4.86,0,0,1,1.77,1.59,6.66,6.66,0,0,1,.93,2.22,11.18,11.18,0,0,1,.29,2.51v9.81h-.78v-9.74a10.88,10.88,0,0,0-.23-2.12,6.43,6.43,0,0,0-.79-2,4.93,4.93,0,0,0-1.52-1.53,4.37,4.37,0,0,0-2.4-.62,5.23,5.23,0,0,0-2.38.55,5.74,5.74,0,0,0-2,1.57,8,8,0,0,0-1.32,2.49,10.33,10.33,0,0,0-.49,3.33v8.12h-.78v-9.74a13.55,13.55,0,0,0-.19-2.12,6.11,6.11,0,0,0-.73-2,4.53,4.53,0,0,0-1.46-1.53,4.29,4.29,0,0,0-2.39-.62,5.26,5.26,0,0,0-2.38.55,5.71,5.71,0,0,0-1.94,1.57,7.74,7.74,0,0,0-1.31,2.49,10.93,10.93,0,0,0-.47,3.33v8.12h-.78V107.53c0-.26,0-.58,0-1s0-.75,0-1.14,0-.76-.05-1.11-.05-.65-.07-.89h.77c0,.24,0,.53.06.89s0,.73,0,1.14,0,.82,0,1.2,0,.74,0,1h.07a7.12,7.12,0,0,1,2.42-3.51,5.92,5.92,0,0,1,1.73-.93,6,6,0,0,1,1.92-.32,5.71,5.71,0,0,1,2.21.39,4.49,4.49,0,0,1,1.57,1.06,5,5,0,0,1,1,1.57,8.44,8.44,0,0,1,.57,2Z"/><path class="cls-1" d="M437.21,107.85a7.72,7.72,0,0,1,7.29-4.91,8.22,8.22,0,0,1,3.29.65,7.74,7.74,0,0,1,2.57,1.8,8,8,0,0,1,1.66,2.74,10.17,10.17,0,0,1,.58,3.46,9.42,9.42,0,0,1-.6,3.4,8.24,8.24,0,0,1-1.67,2.72,7.65,7.65,0,0,1-2.57,1.8,8,8,0,0,1-3.26.65,8.24,8.24,0,0,1-2.27-.31,7.86,7.86,0,0,1-2.06-.94,8,8,0,0,1-1.73-1.52,6.84,6.84,0,0,1-1.23-2.1h-.11v4.38h-.81V93h.81v14.86Zm14.61,3.74a9.11,9.11,0,0,0-.51-3,7.88,7.88,0,0,0-1.46-2.54,7.07,7.07,0,0,0-2.31-1.75,7,7,0,0,0-3-.65,6.87,6.87,0,0,0-3,.64,7.37,7.37,0,0,0-2.34,1.71,8.08,8.08,0,0,0-1.55,2.52,8.7,8.7,0,0,0,0,6.14,8,8,0,0,0,1.55,2.53,7.68,7.68,0,0,0,2.34,1.71,7,7,0,0,0,3,.63,7,7,0,0,0,5.35-2.34,7.63,7.63,0,0,0,1.46-2.53A9,9,0,0,0,451.82,111.59Z"/><path class="cls-1" d="M489.13,97.33a.82.82,0,0,1-.57-.25.92.92,0,0,1-.24-.67.89.89,0,0,1,.24-.64.8.8,0,0,1,1.14,0,1,1,0,0,1,0,1.31A.84.84,0,0,1,489.13,97.33Zm-.39,22.34V103.43h.78v16.24Z"/><path class="cls-1" d="M538.23,116c0,.61,0,1.26.09,2s.12,1.26.19,1.71h-.74a7.36,7.36,0,0,1-.11-.86c0-.35,0-.7-.08-1.06s-.06-.73-.08-1.08,0-.65,0-.88h-.11a5.76,5.76,0,0,1-2.44,3.3,6.83,6.83,0,0,1-3.7,1.07,6.93,6.93,0,0,1-2-.28,5.58,5.58,0,0,1-1.75-.85,4.16,4.16,0,0,1-1.25-1.44,4.29,4.29,0,0,1-.48-2.08,4.14,4.14,0,0,1,.9-2.79,6,6,0,0,1,2.24-1.64,9.87,9.87,0,0,1,2.88-.76,24.24,24.24,0,0,1,2.81-.18h2.82v-1.31a5,5,0,0,0-1.45-4,5.57,5.57,0,0,0-3.77-1.25,6.88,6.88,0,0,0-2.7.53,7.73,7.73,0,0,0-2.24,1.41l-.43-.6a7.85,7.85,0,0,1,2.56-1.5,8.32,8.32,0,0,1,2.81-.51,6.37,6.37,0,0,1,4.39,1.43,5.73,5.73,0,0,1,1.61,4.5Zm-.78-5.19h-2.51a25.53,25.53,0,0,0-2.82.16,10.42,10.42,0,0,0-2.72.65,5.22,5.22,0,0,0-2,1.41,4.27,4.27,0,0,0-.35,4.36,3.5,3.5,0,0,0,1.13,1.22,4.73,4.73,0,0,0,1.52.67,6.41,6.41,0,0,0,1.57.21,6.05,6.05,0,0,0,3-.67,5.49,5.49,0,0,0,1.92-1.71,6.37,6.37,0,0,0,1-2.29,11.12,11.12,0,0,0,.28-2.46Z"/><path id="path1948" class="cls-2" d="M73.86,51H44.93c-6.11,0-11.46,3.68-13.14,10.66-1.93,8-2,13,0,21.38,1.5,6.23,5.07,10.66,11.18,10.66H50.2M94.86,51.58V40.33c0-5.7-4.8-10-10.51-10.93a66.45,66.45,0,0,0-11-.86,60.93,60.93,0,0,0-10,.86C54.44,31,52.83,34.27,52.83,40.33v9.32"/><path id="path1950" class="cls-2" d="M71.24,93.72h31.52c6.12,0,8.39-4.26,10.52-10.66,2.19-6.59,2.1-12.92,0-21.38C111.77,55.6,108.88,51,102.76,51H94.87v9.34A13.5,13.5,0,0,1,81.73,73.7h-21A10.72,10.72,0,0,0,50.21,84.38v20c0,5.7,5,9,10.51,10.69a35.27,35.27,0,0,0,21,0c5.3-1.54,10.52-4.62,10.52-10.69V94.56"/><path class="cls-1" d="M62,35.2A3.8,3.8,0,1,1,58.28,39,3.78,3.78,0,0,1,62,35.2Z"/><path class="cls-1" d="M83.06,102a3.8,3.8,0,1,1-3.74,3.78A3.75,3.75,0,0,1,83.06,102Z"/><path class="cls-3" d="M24,123.14A70.1,70.1,0,0,0,142,63"/><path class="cls-3" d="M121.2,22.09a70.1,70.1,0,0,0-118,60.14"/><circle class="cls-1" cx="24.06" cy="123.24" r="6.73"/><circle class="cls-1" cx="121.13" cy="22.05" r="6.73"/><path class="cls-1" d="M499.84,75.86H466.35V70.3l21.49-21.71c.79-.79,1.56-1.64,2.33-2.55a22.62,22.62,0,0,0,2-2.85A14.86,14.86,0,0,0,493.62,40a11.76,11.76,0,0,0,.51-3.45,10.28,10.28,0,0,0-.81-4.15,9.19,9.19,0,0,0-2.26-3.15,10.38,10.38,0,0,0-3.33-2,11.29,11.29,0,0,0-4-.7,10.18,10.18,0,0,0-7.11,2.63,12,12,0,0,0-3.71,6.7l-5.26-1a15.21,15.21,0,0,1,2-5.12,15.59,15.59,0,0,1,3.55-4.07A16.31,16.31,0,0,1,478,23a17,17,0,0,1,5.78-1,19.67,19.67,0,0,1,6,.92,14.55,14.55,0,0,1,5,2.75,13.24,13.24,0,0,1,3.41,4.52,14.52,14.52,0,0,1,1.28,6.26,15.12,15.12,0,0,1-.7,4.66,19.81,19.81,0,0,1-1.86,4.08,23.38,23.38,0,0,1-2.7,3.67q-1.56,1.74-3.26,3.44l-18.9,18.75h27.79Z"/><path class="cls-1" d="M536.52,75.86h-5.34V30l-9.48,8.07-3.26-3.7,13.33-11h4.75Z"/><circle class="cls-1" cx="357.18" cy="48.93" r="6.73"/><path class="cls-1" d="M66.65,49.25,55.56,77.08S74.18,84.4,75,84s22.18-1,22.81-4.82S101,62.43,99.92,61s-5.08-10.89-5-9.95-2.69-2-2.69-2Z"/><path id="path1948-2" data-name="path1948" class="cls-4" d="M73.86,51H44.93c-6.11,0-11.46,3.68-13.14,10.66-1.93,8-2,13,0,21.38,1.5,6.23,5.07,10.66,11.18,10.66H50.2M94.86,51.58V40.33c0-5.7-4.8-10-10.51-10.93a66.45,66.45,0,0,0-11-.86,60.93,60.93,0,0,0-10,.86C54.44,31,52.83,34.27,52.83,40.33v9.32"/><path id="path1950-2" data-name="path1950" class="cls-4" d="M71.24,93.72h31.52c6.12,0,8.39-4.26,10.52-10.66,2.19-6.59,2.1-12.92,0-21.38C111.77,55.6,108.88,51,102.76,51H94.87v9.34A13.5,13.5,0,0,1,81.73,73.7h-21A10.72,10.72,0,0,0,50.21,84.38v20c0,5.7,5,9,10.51,10.69a35.27,35.27,0,0,0,21,0c5.3-1.54,10.52-4.62,10.52-10.69V94.56"/><path class="cls-5" d="M62,35.2A3.8,3.8,0,1,1,58.28,39,3.78,3.78,0,0,1,62,35.2Z"/><path class="cls-5" d="M83.06,102a3.8,3.8,0,1,1-3.74,3.78A3.75,3.75,0,0,1,83.06,102Z"/></svg>