<svg xmlns="http://www.w3.org/2000/svg" xmlns:xlink="http://www.w3.org/1999/xlink" viewBox="0 0 615.4 615.4"><defs><style>.cls-1{fill:url(#linear-gradient);}.cls-2{fill:url(#Degradado_sin_nombre_203);}.cls-3{isolation:isolate;}.cls-4{clip-path:url(#clip-path);}.cls-5{fill:#784d79;}.cls-5,.cls-9{opacity:0.2;mix-blend-mode:multiply;}.cls-6{clip-path:url(#clip-path-2);}.cls-7,.cls-8{fill:#a0ffff;}.cls-7{mix-blend-mode:soft-light;}.cls-9{fill:#764d79;}</style><linearGradient id="linear-gradient" x1="-857.94" y1="-3033.12" x2="-1421.5" y2="-2155.02" gradientTransform="translate(-2652.37 2084.01) rotate(73.65)" gradientUnits="userSpaceOnUse"><stop offset="0" stop-color="#ff3d86"/><stop offset="1" stop-color="#bd38d6"/></linearGradient><linearGradient id="Degradado_sin_nombre_203" x1="-3570.13" y1="6186.22" x2="-2694.01" y2="5574.14" gradientTransform="matrix(0.96, -0.29, 0.29, 0.96, 1588.25, -6263.01)" gradientUnits="userSpaceOnUse"><stop offset="0" stop-color="#9dffff"/><stop offset="1" stop-color="#0f40d8"/></linearGradient><clipPath id="clip-path"><circle class="cls-1" cx="-323.08" cy="307.25" r="306.06" transform="translate(-311.89 -138.46) rotate(-45)"/></clipPath><clipPath id="clip-path-2"><circle class="cls-2" cx="307.7" cy="307.7" r="307.64" transform="translate(-127.45 307.7) rotate(-45)"/></clipPath></defs><title>planet-4</title><g class="cls-3"><g id="planet-3"><circle class="cls-1" cx="-323.08" cy="307.25" r="306.06" transform="translate(-311.89 -138.46) rotate(-45)"/><g class="cls-4"><path class="cls-5" d="M-584-187.51A318.67,318.67,0,0,1-416.11-288.37c36.76-8.46,76.48-10,111.18,4.78s62.89,48.68,62.74,86.4c-.16,39.12-28.83,72-58.7,97.28-42.33,35.83-90.3,64.46-133.54,99.2s-82.77,77.38-99.81,130.17c-20.18,62.54-6,132.14,24.3,190.46,50.24,96.72,145.34,168.92,252,191.33s222.77-5.42,307.69-73.75c47.16-37.95,85.33-88.83,101-147.32,9.79-36.62,10.57-75.26,5.59-112.83C142.78,75.29,85.29-20.18,1.42-79.88-34.66-105.56-76.35-125.89-102-162,42.51-175.17,189.37-90.6,256.34,38.13c54.21,104.21,57.21,233.59,7.9,340.21-38.11,82.38-105.42,149.88-185,193.59s-170.82,64.26-261.59,65c-46,.38-114.34,43.32-158.38,30.09-48.58-14.59-166.62,1.35-206-30.57-128.49-104.06-274-365.89-243.14-528.33S-462.18-201.47-313.35-273.5"/><path class="cls-5" d="M-222-26.06c-16.58-1.32-33.72-.51-49.07,5.9S-299.78-1-303.76,15.11c-7,28.55,15.82,55.43,38.9,73.65A382.27,382.27,0,0,0-42.19,170c18.59.6,38.75-.72,53.05-12.61,14.67-12.2,19.6-33.44,15.92-52.17S12,70.05-.72,55.85C-61.45-11.7-157.47-32.75-247.3-46.27"/><path class="cls-5" d="M-98.57,381.1c-16,14.42-23.77,37.07-21.1,58.44s15.38,41,33.15,53.21c16.74,11.46,37.16,16.32,57.33,18.55,16,1.76,32.68,1.93,47.59-4.13C43.46,497,59.12,470.36,62.19,443.49c3.87-33.86-13.66-74.46-50.13-78.71C-23.33,360.65-69.83,355.18-98.57,381.1Z"/></g></g><g id="planet-4"><circle class="cls-2" cx="307.7" cy="307.7" r="307.64" transform="translate(-127.45 307.7) rotate(-45)"/><g class="cls-6"><path class="cls-7" d="M-62.39,470.82a298.83,298.83,0,0,0,168.33-1c8.5-2.57,17.1-5.55,26-5.35s17.47,3.65,25.68,7.21c81.1,35.2,153.38,87.55,230.21,131.3,18.11,10.32,37.5,20.43,58.34,20.33,23.21-.11,44.31-12.84,63.34-26.12a671.43,671.43,0,0,0,132.7-122.3c-29.14-9.84-60.5,2-90.19,10-53.71,14.5-111.95,16.06-164.27-2.82-62.13-22.43-110.83-71.18-153.62-121.5-22.29-26.21-49.46-55.92-83.74-53C105.28,311.47,73.7,371.27,29.62,361,17.24,358.16,6.89,349.92-2.8,341.7Q-29.88,318.75-55,293.65c-3.73-3.72-7.7-8.26-7.06-13.48.46-3.74,3.21-6.73,5.83-9.44L.83,211.49c6.83-7.09,13.74-14.24,21.9-19.74,28.13-18.93,66.77-14.82,96.9.73s53.93,40.72,78.21,64.38q37,36,77.12,68.6c24.48,19.84,50.69,39.11,81.27,46.69,67.62,16.78,135.15-26.85,204.7-30.78,36.6-2.06,78.05,5.61,106.12-18,8.73-7.33,15.08-17,21.31-26.57l61.93-94.94c13.44-20.59,27.21-42.06,30.64-66.41S774.26,83,751.57,73.55c-19.14-8-41.13-.93-59.64,8.43-30.75,15.57-57.89,37.27-85.8,57.49a1073,1073,0,0,1-179.6,105.2c-13.13,6.06-28.62,11.84-41.49,5.25-11.14-5.7-16.14-18.67-19.9-30.61a725.67,725.67,0,0,1-19.94-78.22c-4.29-21.81-7.85-44.55-20.11-63.1s-36.22-31.58-57-23.6c-9.33,3.59-16.72,10.8-23.83,17.83L195.46,120.5c-3.25,3.21-6.59,6.48-10.75,8.36-7.66,3.45-16.66,1.54-24.5-1.51-32.12-12.49-54.24-41.5-80.4-63.94S15.19,24.46-14.52,41.94C-31.1,51.69-40.7,69.74-49,87.09a1092.76,1092.76,0,0,0-96.35,320"/><path class="cls-7" d="M-118.17,365.31c21.17,24,42.6,48.25,68.72,66.75s57.78,31,89.68,28.45c40.39-3.22,78.13-29.91,118.21-24,18.66,2.74,35.5,12.37,51.69,22q70.17,41.85,137,89c22.89,16.16,45.93,33,72.52,41.87,42.37,14.09,88.76,6.24,131.95-5.09a862.27,862.27,0,0,0,91.06-29.38C655.3,550,670.43,540.11,666.91,527c-78.65-38.55-174.72,3.28-259.56-18.48-39-10-73.32-32.95-104.71-58.1A726.18,726.18,0,0,1,221.93,375c-15.42-16.78-32.48-35.58-55.21-37.39C131.35,334.76,108,373,76.48,389.32c-43.05,22.26-96.89-.06-131.91-33.57s-59-77.23-93.94-110.78c10.52-12.07,25.88-18.56,40.69-24.65l129.1-53.13c18.83-7.75,38.2-15.62,58.56-16.13C120.4,150,155.83,178.87,187,206.11L313.57,316.57c15.95,13.92,33.11,28.43,54.05,31.61,19.42,2.95,38.71-4.38,57.91-8.55,31.08-6.76,63.62-5.35,94.34-13.57,62.7-16.78,107.72-70.13,148.5-120.64,10-12.4,20.44-25.76,22.16-41.62s-9.54-34.16-25.48-33.59c-8.27.29-15.51,5.35-22.24,10.18A2170.66,2170.66,0,0,1,430.1,275.17c-10.69,5.93-21.86,11.9-34.05,12.75-20.79,1.44-39.5-12.17-54.44-26.7A286.86,286.86,0,0,1,269,144.35c-2.45-7.59-5.16-16-12.11-20-9-5.1-20.6.2-28,7.47s-13,16.61-21.78,22.1c-22.93,14.28-51.38-4.06-74-18.88C49.14,80-62.09,68.83-155.33,106.24c-9.67,3.88-19.51,8.51-26.1,16.6-9.08,11.15-10.25,26.58-11,40.95l-9.93,182.89"/><path class="cls-7" d="M223.63-112C265-92.32,304.92-68,336.45-34.73S390.68,41.65,393.3,87.43c1.24,21.88-1.83,45,7.65,64.76,1.16,2.42,2.77,5,5.37,5.61,2.3.57,4.65-.54,6.76-1.62L498,112.77c30.37-15.53,64.54-36.28,68.4-70.17C567.71,31,564,17.66,553.64,12.28c-14.89-7.74-31.91,4.83-44,16.52l-87.56,85Q412.68,45.08,403.26-23.6c-1.57-11.4-3.21-23.06-8.55-33.25C378-88.72,334.52-93.35,306.1-115.4"/><path class="cls-8" d="M-74.8,272.09c34.61,2.6,68.69-7.76,102.65-15s70.77-11,102.21,3.68c14.46,6.76,26.92,17.08,39.2,27.29l83.51,69.41C316.11,410.15,387,465.61,469.31,464.89c23.7-.2,47.07-5.19,70.25-10.15,44.12-9.44,88.3-18.89,131.51-31.89-12.53-10.26-30.64-11-46.26-6.69s-29.67,12.78-44.35,19.62c-52,24.24-113.55,27-167.48,7.56-46.46-16.76-85.77-48.53-123.28-80.67q-51-43.67-99.93-89.61c-14.41-13.53-28.93-27.38-46.45-36.54-40-20.93-88.21-14.14-133.06-8.62s-94.56,8-130.7-19.14"/><path class="cls-9" d="M69.91,32.74C172.22,31.51,268.4,86.15,341.67,157.56,408.86,223,461.4,304.19,489.46,393.72S520.52,581.1,493.8,671c27.92-1.75,51.29-21,71.9-39.88C641,562.08,711,479.24,730,378.88c12.91-68.28.66-139.93-27.46-203.47A430.25,430.25,0,0,0,519.49-24.92C435.45-71.57,337-88.61,241-83.75,205.66-82,170-77.21,137.15-64.13S74.09-29,56.16,1.52"/></g></g></g></svg>