<svg xmlns="http://www.w3.org/2000/svg" xmlns:xlink="http://www.w3.org/1999/xlink" viewBox="0 0 612.24 612.24"><defs><style>.cls-1{fill:url(#linear-gradient);}.cls-2{isolation:isolate;}.cls-3{clip-path:url(#clip-path);}.cls-4{fill:#784d79;opacity:0.2;mix-blend-mode:multiply;}</style><linearGradient id="linear-gradient" x1="83.12" y1="-3654.8" x2="-480.44" y2="-2776.7" gradientTransform="translate(-2884.65 1354.84) rotate(73.65)" gradientUnits="userSpaceOnUse"><stop offset="0" stop-color="#ff3d86"/><stop offset="1" stop-color="#bd38d6"/></linearGradient><clipPath id="clip-path"><circle class="cls-1" cx="306.12" cy="306.12" r="306.06" transform="translate(-126.8 306.12) rotate(-45)"/></clipPath></defs><title>planet-3</title><g class="cls-2"><g id="planet-3"><circle class="cls-1" cx="306.12" cy="306.12" r="306.06" transform="translate(-126.8 306.12) rotate(-45)"/><g class="cls-3"><path class="cls-4" d="M45.18-188.64A318.64,318.64,0,0,1,213.08-289.5c36.77-8.45,76.48-10,111.18,4.79S387.16-236,387-198.32c-.16,39.12-28.84,72-58.7,97.28C286-65.21,238-36.57,194.76-1.84S112,75.54,95,128.33c-20.19,62.54-6,132.14,24.29,190.46,50.24,96.72,145.34,168.92,252,191.33S594,504.7,678.94,436.38c47.17-38,85.34-88.84,101-147.33,9.78-36.61,10.57-75.26,5.59-112.83C772,74.16,714.49-21.31,630.62-81c-36.08-25.68-77.77-46-103.42-82.11C671.71-176.3,818.56-91.73,885.53,37c54.22,104.2,57.22,233.58,7.9,340.2-38.1,82.38-105.41,149.88-185,193.59s-170.82,64.26-261.59,65c-46,.38-114.35,43.32-158.39,30.1-48.57-14.6-166.61,1.34-206-30.58C-46,531.27-191.52,269.43-160.67,107S167-202.6,315.85-274.62"/><path class="cls-4" d="M407.21-27.18c-16.58-1.33-33.73-.52-49.08,5.89S329.42-2.16,325.44,14c-7,28.54,15.82,55.42,38.9,73.64A382.24,382.24,0,0,0,587,168.91c18.59.6,38.75-.72,53-12.61,14.68-12.2,19.61-33.44,15.93-52.16s-14.75-35.22-27.51-49.41C567.74-12.83,471.72-33.88,381.9-47.4"/><path class="cls-4" d="M352.44,255.89c8.82,15.76,24.49,26.39,40.27,35.15,16.51,9.16,34.25,17.07,53.08,18.36s39-5,50.58-20c10.41-13.46,12.37-32.35,7.11-48.53s-17.07-29.7-31.15-39.25C433.24,175.13,311.8,183.3,352.44,255.89Z"/><path class="cls-4" d="M174.31,135.39c5,23.64,15.62,48.8,37.61,58.83,15.05,6.86,32.78,5.15,48.43-.2,8.13-2.78,16.22-6.7,21.67-13.34,5-6.06,7.3-13.87,8.51-21.61,4.29-27.65-5.83-57.78-27.78-75.13C217.82,48.43,162.28,78.93,174.31,135.39Z"/><path class="cls-4" d="M224.36,327.6c11,10,23.32,19.38,37.75,23.07s31.45.53,40.84-11c9.16-11.29,9.09-27.78,4.36-41.52a74.31,74.31,0,0,0-46.61-45.78C244.14,247,204,246.16,193.16,264,181,283.88,211.31,315.75,224.36,327.6Z"/><path class="cls-4" d="M530.63,380c-16,14.42-23.77,37.08-21.1,58.44s15.38,41,33.15,53.21c16.74,11.46,37.15,16.32,57.32,18.55,16,1.77,32.68,1.93,47.6-4.12,25-10.17,40.72-36.82,43.79-63.68,3.87-33.87-13.67-74.46-50.14-78.72C605.87,359.52,559.37,354.05,530.63,380Z"/><path class="cls-4" d="M181.48,502.29c5.33,15.07,15.39,28.12,27.16,38.94,12.9,11.87,28.47,21.5,45.76,24.41,75.55,12.69,100-86.41,51.06-131.7C259.3,391.23,157.34,434,181.48,502.29Z"/><path class="cls-4" d="M-93.29,324.71a215.79,215.79,0,0,1,84.18,3.2c20.2,4.84,40.26,13,54.94,27.7,12.46,12.48,20.25,28.88,25.84,45.61,8.78,26.26,12.57,55.38,3.23,81.45s-34.35,47.75-62,46.66c-16.56-.64-31.76-8.91-46-17.34-23.73-14-47.48-29.72-63.06-52.46s-21.29-54.24-7.3-78"/><path class="cls-4" d="M-13.3,122c20.48-7.18,43.13-.53,63,8.16,23.83,10.41,46.69,24,64.24,43.22,7.67,8.38,14.43,18.15,16.38,29.33s-1.92,23.95-11.58,29.91c-5.37,3.31-11.84,4.23-18.12,4.89-15.92,1.65-32.29,2-47.63-2.56C36.8,230.11,22.71,220.12,9,210.29l-33.41-23.86c-5.55-4-11.31-8.17-14.43-14.24s-2.65-14.58,2.9-18.55"/><path class="cls-4" d="M414.18,367.05c-14.09-4.56-30.06,6.82-33.18,21.3s4.54,29.78,16.23,38.87c6.92,5.38,15.44,9,24.2,8.87s17.64-4.54,22-12.15c3.11-5.45,3.72-12,3.2-18.25-1.41-16.83-12-33.66-28.24-38.39"/><path class="cls-4" d="M438.17,551.41c-21.43,5.11-36.92,23.52-48.84,42.06-2.26,3.52-4.49,7.19-5.24,11.31-1,5.28.63,10.69,2.72,15.64,11.45,27.14,39.32,46.54,68.75,47.86,36.22,1.62,87.29-31.58,79.7-73.3C528.85,559.79,467.29,544.46,438.17,551.41Z"/></g></g></g></svg>