<svg xmlns="http://www.w3.org/2000/svg" xmlns:xlink="http://www.w3.org/1999/xlink" viewBox="0 0 614.99 615"><defs><style>.cls-1{fill:url(#Degradado_sin_nombre_173);}.cls-2{isolation:isolate;}.cls-3{clip-path:url(#clip-path);}.cls-4{fill:#413c70;opacity:0.2;mix-blend-mode:multiply;}.cls-5{fill:#bba3e8;}</style><linearGradient id="Degradado_sin_nombre_173" x1="-1528.23" y1="8539.28" x2="-1872.55" y2="8841.86" gradientTransform="translate(-8012.57 -2838.15) rotate(-80.53)" gradientUnits="userSpaceOnUse"><stop offset="0" stop-color="#7cffa2"/><stop offset="1" stop-color="#bddf2a"/></linearGradient><clipPath id="clip-path"><circle class="cls-1" cx="305.44" cy="309.55" r="234.53"/></clipPath></defs><title>timeline-item-1</title><g class="cls-2"><g id="timeline-item-q"><circle class="cls-1" cx="305.44" cy="309.55" r="234.53"/><g class="cls-3"><path class="cls-4" d="M-84.82,547.4c-40.21-29.84-70.77-73.47-86-122.72-8.64-28-12.3-58.85-3.43-87.13s32.43-53.07,60.64-56.05c29.25-3.09,55.64,16.58,76.41,37.8,29.46,30.1,53.88,65.16,82.57,96.05S108.47,473.57,149,482.54c48,10.61,99.16-6.18,140.85-34.6C359,400.8,407,320.67,417,235.61s-18.08-173.36-74.5-234C311.17-32.08,270.73-57.68,226-65.07c-28-4.63-56.93-2.07-84.7,4.9C65.88-41.23-1.87,11.46-41.22,81.8c-16.92,30.25-29.5,64.45-54.86,87.43-19-111.67,35-233.19,127-296,74.49-50.86,171-63.83,253.82-34.1,64,23,118.68,69.94,156.37,128.41S522.13,99,528.4,169.77c3.18,35.85,41.8,91.3,34.69,126.74-7.85,39.1-12.92,120.77-34.3,154.14C459.1,559.44,272.52,694.46,149.14,683.73S-102.92,453.49-166.13,343.28"/><path class="cls-4" d="M-22,593.74c-40.21-29.83-70.78-73.46-86-122.71-8.64-28-12.3-58.85-3.42-87.14s32.42-53.07,60.63-56.05c29.25-3.09,55.64,16.59,76.41,37.81,29.46,30.09,53.88,65.16,82.57,96.05s63.06,58.22,103.6,67.18c48,10.61,99.16-6.17,140.84-34.6C421.83,447.15,469.82,367,479.85,282s-18.08-173.37-74.5-234C374,14.27,333.57-11.33,288.86-18.72c-28-4.63-56.92-2.07-84.7,4.9C128.72,5.11,61,57.8,21.63,128.14,4.7,158.4-7.87,192.6-33.24,215.57c-19-111.67,35-233.19,127-296,74.49-50.85,171-63.82,253.82-34.1C411.6-91.57,466.3-44.6,504,13.88s58.8,128,65.07,198.75c3.18,35.85,39.58,85.66,32.46,121.11-7.84,39.1,11.5,129.88-9.87,163.25C521.94,605.79,335.36,740.81,212,730.08S-40.08,499.83-103.29,389.62"/><path class="cls-4" d="M746.62,341.83c-47.22,17.86-100.31,3.27-146.72-16.61C477.43,272.79,372.7,184.92,284.78,84.83,252.69,48.3,219.78,8.08,173.2-5.88,156.27-11,137.14-12,121.65-3.46S96.37,25.12,103.58,41.25c8.49,19,33,23,53.39,26.82a268,268,0,0,1,144.31,79.11c42.61,45.31,68,103.94,105.08,153.86,57,76.67,142.69,131.64,236.33,150.51,28.8,5.8,58.82,8.49,85.13,21.57s48.55,40.32,44.57,69.42c-2.29,16.73-12.88,31.41-25.9,42.16-31.26,25.79-76,30.9-115.27,21s-74-33-105.19-58.9C463,494.52,411.34,430,362.83,364.05c-36.78-50-72.21-101.41-115.45-146S152,135.65,92.11,119.27C27.72,101.66-51.53,115.7-87,172.22c-5.64,9-9.63,21.69-2.32,29.36,5.33,5.58,14.16,5.58,21.79,4.47,39.57-5.77,75-30.4,114.84-33.36,40.3-3,78.73,16.54,112.65,38.52,161.23,104.42,274.8,279.57,304.35,469.37,3.84,24.64,6.23,50.42-1.81,74-1.46,4.3-3.45,8.72-7.2,11.28-12.25,8.37-25.63-9.07-30.16-23.2C407.93,689,393.34,633.81,364.88,585.19,321.27,510.69,245.12,456,160.58,438.52c-35.32-7.31-75.61-7.2-103.26,16C20.88,485,21.89,542.12,38,586.86c22.25,61.94,66.24,114,115.83,157.24C208.62,791.94,271.93,831,341.54,852.23s145.76,23.79,214.86,1C676.49,813.64,761.86,702.07,801.78,582.1"/></g><path class="cls-5" d="M615,307.49C615,477.05,477.05,615,307.49,615S0,477.05,0,307.49,137.94,0,307.49,0,615,137.94,615,307.49Zm-607.17,0c0,165.25,134.43,299.69,299.67,299.69S607.17,472.74,607.17,307.49,472.74,7.82,307.49,7.82,7.82,142.25,7.82,307.49Z"/></g></g></svg>