<svg xmlns="http://www.w3.org/2000/svg" xmlns:xlink="http://www.w3.org/1999/xlink" viewBox="0 0 616.58 616.58"><defs><style>.cls-1{fill:url(#Degradado_sin_nombre_203);}.cls-2{isolation:isolate;}.cls-3{clip-path:url(#clip-path);}.cls-4,.cls-5{fill:#a0ffff;}.cls-4{mix-blend-mode:soft-light;}.cls-6{fill:#764d79;opacity:0.2;mix-blend-mode:multiply;}.cls-7{fill:#bba3e8;}</style><linearGradient id="Degradado_sin_nombre_203" x1="3197.89" y1="-4135.05" x2="3861.72" y2="-4598.82" gradientTransform="matrix(0.96, -0.29, 0.29, 0.96, -1759.8, 5500.54)" gradientUnits="userSpaceOnUse"><stop offset="0" stop-color="#9dffff"/><stop offset="1" stop-color="#0f40d8"/></linearGradient><clipPath id="clip-path"><circle class="cls-1" cx="308.29" cy="308.3" r="233.09" transform="translate(-127.7 308.29) rotate(-45)"/></clipPath></defs><title>timeline-item-4</title><g class="cls-2"><g id="timeline-item-4"><circle class="cls-1" cx="308.29" cy="308.3" r="233.09" transform="translate(-127.7 308.29) rotate(-45)"/><g class="cls-3"><path class="cls-4" d="M27.87,431.89a226.48,226.48,0,0,0,127.55-.78c6.44-1.95,13-4.21,19.68-4.06s13.24,2.76,19.46,5.46C256,459.19,310.78,498.85,369,532c13.72,7.82,28.41,15.48,44.21,15.4,17.58-.08,33.57-9.73,48-19.79A508.42,508.42,0,0,0,561.73,435c-22.07-7.46-45.84,1.53-68.34,7.61-40.69,11-84.82,12.16-124.46-2.15-47.08-17-84-53.93-116.4-92.06-16.89-19.86-37.47-42.36-63.45-40.13-34.16,2.93-58.09,48.24-91.49,40.49-9.38-2.18-17.22-8.42-24.56-14.65q-20.52-17.4-39.58-36.41c-2.82-2.82-5.84-6.26-5.35-10.21.35-2.84,2.44-5.1,4.42-7.16L75.78,235.4c5.17-5.37,10.4-10.79,16.59-15,21.31-14.34,50.59-11.22,73.42.55s40.86,30.86,59.26,48.79q28,27.3,58.44,52c18.54,15,38.4,29.63,61.57,35.38,51.24,12.71,102.4-20.35,155.1-23.32,27.74-1.56,59.14,4.25,80.41-13.62,6.61-5.55,11.43-12.9,16.14-20.13q23.47-36,46.93-71.93c10.18-15.61,20.62-31.87,23.21-50.32s-5.05-39.75-22.24-46.93c-14.5-6-31.17-.7-45.19,6.39-23.3,11.8-43.86,28.24-65,43.56a812.84,812.84,0,0,1-136.08,79.71c-9.95,4.59-21.69,9-31.44,4-8.44-4.33-12.23-14.15-15.08-23.19a550.36,550.36,0,0,1-15.11-59.27c-3.24-16.53-5.94-33.76-15.23-47.81S294,110.32,278.3,116.36c-7.07,2.72-12.67,8.19-18.05,13.51l-37,36.59c-2.45,2.43-5,4.91-8.14,6.33-5.81,2.62-12.62,1.17-18.56-1.14-24.34-9.47-41.1-31.45-60.92-48.45s-49-29.51-71.47-16.27C51.59,114.32,44.31,128,38,141.15A827.89,827.89,0,0,0-35,383.59"/><path class="cls-4" d="M-14.39,352c16,18.19,32.28,36.56,52.07,50.58S81.46,426,105.63,424.08c30.6-2.44,59.2-22.67,89.57-18.2,14.13,2.08,26.89,9.37,39.16,16.69Q287.53,454.27,338.14,490c17.34,12.24,34.8,25,54.94,31.72,32.11,10.68,67.25,4.73,100-3.85a654.69,654.69,0,0,0,69-22.27c9.6-3.7,21.07-11.22,18.4-21.16-59.59-29.21-132.38,2.49-196.66-14-29.53-7.58-55.56-25-79.35-44a550.83,550.83,0,0,1-61.15-57.15c-11.68-12.72-24.61-27-41.83-28.33-26.8-2.14-44.49,26.85-68.37,39.2-32.62,16.87-73.42,0-99.95-25.44S-11.53,286.19-38,260.77c8-9.15,19.61-14.07,30.83-18.68l97.82-40.26C104.89,196,119.56,190,135,189.61c31.38-.79,58.23,21.07,81.88,41.72L312.74,315c12.08,10.55,25.09,21.54,40.95,24,14.72,2.23,29.34-3.32,43.88-6.48,23.55-5.12,48.2-4.05,71.48-10.28,47.51-12.71,81.62-53.14,112.52-91.41,7.59-9.4,15.49-19.52,16.79-31.53s-7.23-25.89-19.3-25.46c-6.28.22-11.76,4.06-16.86,7.72A1643.33,1643.33,0,0,1,401,283.65c-8.1,4.49-16.56,9-25.8,9.66-15.75,1.09-29.93-9.22-41.25-20.23a217.3,217.3,0,0,1-55-88.55c-1.86-5.76-3.92-12.16-9.18-15.13-6.85-3.86-15.61.15-21.22,5.66s-9.83,12.59-16.5,16.75c-17.38,10.82-38.93-3.08-56.05-14.31C112.38,135.73,28.1,127.31-42.54,155.65c-7.33,2.94-14.79,6.45-19.78,12.58-6.88,8.45-7.77,20.14-8.36,31q-3.76,69.3-7.52,138.58"/><path class="cls-4" d="M244.59-9.73C276,5.21,306.19,23.62,330.07,48.84s41.1,57.88,43.08,92.56c.94,16.58-1.39,34.1,5.8,49.07.87,1.83,2.09,3.76,4.06,4.25,1.75.43,3.53-.41,5.13-1.23l64.34-32.89c23-11.77,48.9-27.49,51.82-53.17,1-8.78-1.82-18.89-9.66-23-11.29-5.87-24.18,3.66-33.31,12.52L395,161.35q-7.15-52-14.29-104.08c-1.19-8.63-2.44-17.47-6.48-25.19C361.57,7.93,328.61,4.42,307.08-12.28"/><path class="cls-5" d="M18.47,281.32c26.23,2,52.05-5.88,77.78-11.35s53.62-8.36,77.44,2.79c11,5.13,20.4,12.94,29.7,20.68L266.67,346c48,39.89,101.67,81.92,164.07,81.37,18-.16,35.67-3.93,53.23-7.69,33.43-7.15,66.9-14.32,99.64-24.16-9.49-7.78-23.21-8.3-35.05-5.07s-22.48,9.68-33.6,14.86a168.45,168.45,0,0,1-126.9,5.73c-35.2-12.7-65-36.77-93.41-61.12q-38.62-33.09-75.71-67.9C208,271.8,197,261.3,183.74,254.37c-30.34-15.87-66.83-10.72-100.81-6.53s-71.66,6-99-14.51"/><path class="cls-6" d="M128.12,100C205.63,99,278.51,140.43,334,194.53c50.91,49.62,90.72,111.11,112,178.94s23.53,142,3.29,210.12c21.15-1.33,38.86-15.89,54.48-30.22,57-52.33,110.11-115.1,124.5-191.14,9.79-51.74.5-106-20.81-154.17A325.93,325.93,0,0,0,468.76,56.27C405.09,20.93,330.5,8,257.76,11.69c-26.78,1.36-53.77,5-78.69,14.87S131.28,53.18,117.7,76.31"/></g><path class="cls-7" d="M0,308.3C0,138.3,138.3,0,308.3,0S616.58,138.3,616.58,308.3,478.28,616.58,308.3,616.58,0,478.29,0,308.3Zm608.74,0C608.74,142.62,474,7.84,308.3,7.84S7.84,142.62,7.84,308.3,142.62,608.75,308.3,608.75,608.74,474,608.74,308.3Z"/></g></g></svg>