<svg xmlns="http://www.w3.org/2000/svg" xmlns:xlink="http://www.w3.org/1999/xlink" viewBox="0 0 614.99 615"><defs><style>.cls-1{fill:url(#linear-gradient);}.cls-2{isolation:isolate;}.cls-3{clip-path:url(#clip-path);}.cls-4{fill:#784d79;opacity:0.2;mix-blend-mode:multiply;}.cls-5{fill:#bba3e8;}</style><linearGradient id="linear-gradient" x1="-493.02" y1="-4957.44" x2="-916.59" y2="-4297.45" gradientTransform="translate(-4055.53 2251.01) rotate(73.65)" gradientUnits="userSpaceOnUse"><stop offset="0" stop-color="#ff3d86"/><stop offset="1" stop-color="#bd38d6"/></linearGradient><clipPath id="clip-path"><circle class="cls-1" cx="307.5" cy="307.5" r="230.04" transform="translate(-127.37 307.5) rotate(-45)"/></clipPath></defs><title>timeline-item-3</title><g class="cls-2"><g id="timeline-item-3"><circle class="cls-1" cx="307.5" cy="307.5" r="230.04" transform="translate(-127.37 307.5) rotate(-45)"/><g class="cls-3"><path class="cls-4" d="M111.37-64.37a239.58,239.58,0,0,1,126.2-75.8c27.63-6.36,57.48-7.53,83.56,3.59S368.4-100,368.29-71.64c-.12,29.4-21.67,54.12-44.12,73.11C292.35,28.41,256.3,49.93,223.8,76s-62.21,58.16-75,97.84c-15.17,47-4.51,99.32,18.26,143.15,37.76,72.69,109.23,127,189.4,143.8s167.44-4.07,231.26-55.42c35.45-28.53,64.14-66.77,75.88-110.73,7.36-27.52,7.95-56.57,4.21-84.81C657.63,133.15,614.43,61.4,551.39,16.53,524.27-2.77,492.93-18,473.66-45.18,582.27-55.09,692.65,8.47,743,105.23c40.75,78.32,43,175.56,5.94,255.69-28.64,61.92-79.23,112.65-139,145.51s-128.39,48.3-196.61,48.86c-34.56.28-85.94,32.56-119,22.61-36.51-11-125.23,1-154.85-23-96.58-78.21-205.93-275-182.75-397.1S203-74.86,314.81-129"/><path class="cls-4" d="M383.47,57c-12.46-1-25.34-.38-36.88,4.43S325,75.79,322,87.93c-5.29,21.45,11.89,41.66,29.24,55.35a287.35,287.35,0,0,0,167.36,61.09c14,.45,29.12-.54,39.87-9.48,11-9.17,14.73-25.13,12-39.21s-11.08-26.47-20.67-37.13C504.13,67.77,432,52,364.45,41.79"/><path class="cls-4" d="M342.31,269.75c6.63,11.84,18.4,19.82,30.27,26.41C385,303.05,398.32,309,412.47,310s29.34-3.78,38-15c7.82-10.12,9.3-24.32,5.34-36.48S443,236.16,432.42,229C403,209,311.76,215.19,342.31,269.75Z"/><path class="cls-4" d="M208.43,179.17c3.78,17.77,11.74,36.69,28.27,44.22,11.31,5.16,24.63,3.87,36.39-.15,6.12-2.09,12.19-5,16.29-10,3.73-4.55,5.49-10.42,6.39-16.24,3.23-20.78-4.37-43.42-20.87-56.46C241.13,113.81,199.38,136.74,208.43,179.17Z"/><path class="cls-4" d="M246,323.64c8.29,7.53,17.53,14.57,28.38,17.34s23.64.4,30.69-8.29c6.89-8.49,6.84-20.88,3.28-31.21a55.88,55.88,0,0,0-35-34.41c-12.45-4-42.63-4.64-50.77,8.73C213.47,290.78,236.24,314.73,246,323.64Z"/><path class="cls-4" d="M476.24,363c-12,10.84-17.87,27.87-15.86,43.93s11.56,30.84,24.91,40c12.59,8.61,27.93,12.26,43.09,13.94,12,1.33,24.56,1.45,35.77-3.1,18.83-7.64,30.61-27.67,32.92-47.86,2.9-25.46-10.28-56-37.69-59.16C532.79,347.63,497.84,343.52,476.24,363Z"/><path class="cls-4" d="M213.82,454.94c4,11.32,11.56,21.13,20.41,29.27,9.7,8.91,21.4,16.16,34.39,18.34,56.78,9.54,75.18-64.94,38.38-99C272.31,371.46,195.67,403.59,213.82,454.94Z"/><path class="cls-4" d="M7.3,321.47a162.25,162.25,0,0,1,63.27,2.4c15.18,3.64,30.26,9.77,41.29,20.82,9.36,9.38,15.22,21.71,19.42,34.28,6.6,19.74,9.45,41.63,2.43,61.22s-25.82,35.89-46.61,35.07c-12.45-.48-23.87-6.69-34.59-13-17.84-10.55-35.69-22.34-47.4-39.43s-16-40.77-5.48-58.62"/><path class="cls-4" d="M67.42,169.1c15.39-5.4,32.42-.4,47.37,6.13,17.9,7.82,35.08,18.07,48.28,32.48,5.76,6.3,10.84,13.64,12.31,22s-1.44,18-8.7,22.48c-4,2.49-8.91,3.18-13.63,3.67-12,1.25-24.27,1.51-35.8-1.92-12.18-3.62-22.77-11.13-33.11-18.52L59,217.53c-4.17-3-8.5-6.13-10.85-10.7s-2-11,2.18-13.94"/><path class="cls-4" d="M388.71,353.29c-10.59-3.43-22.59,5.13-24.94,16s3.42,22.39,12.2,29.22c5.2,4,11.61,6.78,18.19,6.66s13.26-3.41,16.52-9.13c2.34-4.09,2.8-9,2.41-13.72-1.06-12.65-9-25.3-21.23-28.85"/><path class="cls-4" d="M406.75,491.85C390.64,495.7,379,509.54,370,523.47c-1.7,2.65-3.38,5.4-3.94,8.5-.73,4,.47,8,2,11.75,8.61,20.4,29.56,35,51.68,36,27.22,1.22,65.6-23.73,59.89-55.08C474.9,498.16,428.63,486.63,406.75,491.85Z"/></g><path class="cls-5" d="M615,307.5C615,477.05,477.05,615,307.49,615S0,477.05,0,307.5,137.94,0,307.49,0,615,137.94,615,307.5Zm-607.17,0c0,165.25,134.43,299.68,299.67,299.68S607.17,472.75,607.17,307.5,472.74,7.82,307.49,7.82,7.82,142.25,7.82,307.5Z"/></g></g></svg>