<svg xmlns="http://www.w3.org/2000/svg" xmlns:xlink="http://www.w3.org/1999/xlink" viewBox="0 0 615.21 615.22"><defs><style>.cls-1{fill:url(#Degradado_sin_nombre_94);}.cls-2{isolation:isolate;}.cls-3{clip-path:url(#clip-path);}.cls-4{fill:#a0ffff;mix-blend-mode:soft-light;}.cls-5{fill:#ff664a;opacity:0.3;mix-blend-mode:multiply;}.cls-6{fill:#bba3e8;}</style><linearGradient id="Degradado_sin_nombre_94" x1="-5399.87" y1="-6184.75" x2="-5693.4" y2="-5857.35" gradientTransform="translate(-6349.9 5069.18) rotate(97.2)" gradientUnits="userSpaceOnUse"><stop offset="0" stop-color="#ffee58"/><stop offset="1" stop-color="#ff9d05"/></linearGradient><clipPath id="clip-path"><circle class="cls-1" cx="307.6" cy="307.61" r="228.57" transform="translate(-127.42 307.61) rotate(-45)"/></clipPath></defs><title>timeline-item-2</title><g class="cls-2"><g id="timeline-item-2"><circle class="cls-1" cx="307.6" cy="307.61" r="228.57" transform="translate(-127.42 307.61) rotate(-45)"/><g class="cls-3"><path class="cls-4" d="M191.43-68c-22,23.62-3.35,62.1,19,85.38C338.48,150.88,549.22,152.66,714.91,234.9c-218.3,14.92-401.66-158.21-612.71-216C174,123.57,283.39,197.49,399.11,249.62s239.1,84.62,360.19,122.65c30,9.42,61.7,20.43,81,45.25-15.07,21.47-45.52,27.09-71,21s-47.63-21.43-70-35.14C538.74,305,338.73,279.27,189.16,164.9,136.74,124.81,89.73,73.51,26.61,54.24s-148.8,14.5-151.14,80.46c-1.69,47.66,39.1,85,77.43,113.34A1779.09,1779.09,0,0,0,700.47,569.16c14.7,2.58,33.61,3,40.32-10.31-51.4,33.43-119.11,19.67-178.09,2.9C311.77,490.38,68,383.88-137.36,222.94"/><path class="cls-4" d="M52.07,155c-21.23-15.45-44.29-32-70.53-31.59-2.05,22.53,20.13,38.9,39.61,50.37,94.61,55.69,189.29,111.39,286.6,162.26,40.22,21,229.77,140.19,264,96.84-31-25.07-88.73-36.38-126.49-52.83q-69.36-30.22-136.4-65.42A2078.82,2078.82,0,0,1,52.07,155Z"/><path class="cls-5" d="M-318.7,266.05c30.23-59.49,97.12-89.69,160.46-110.7,114.67-38,237.41-60.69,356.52-40.43s234.23,88.73,289,196.41c55.39,108.86,43.05,239,20.35,359-7.59,40.11-11.83,91,22.95,112.37,23.61,14.52,54.28,7.1,80-3.31,159.13-64.49,266.85-231.59,274-403.14S804.67,35.29,669.67-70.8,356.52-221.59,185.42-207.3-149.46-122.5-287.64-20.58"/></g><path class="cls-6" d="M0,307.61C0,138,138,0,307.61,0s307.6,138,307.6,307.61-138,307.61-307.6,307.61S0,477.23,0,307.61Zm607.39,0C607.39,142.3,472.9,7.82,307.61,7.82S7.82,142.3,7.82,307.61,142.3,607.39,307.61,607.39,607.39,472.91,607.39,307.61Z"/></g></g></svg>