<?xml version="1.0" encoding="utf-8"?>
<!-- Generator: Adobe Illustrator 23.0.2, SVG Export Plug-In . SVG Version: 6.00 Build 0)  -->
<svg version="1.1" id="Layer_1" xmlns="http://www.w3.org/2000/svg" xmlns:xlink="http://www.w3.org/1999/xlink" x="0px" y="0px"
	 viewBox="0 0 1024 203" style="enable-background:new 0 0 1024 203;" xml:space="preserve">
<style type="text/css">
	.st0{fill:#FFFFFF;}
</style>
<g>
	<path class="st0" d="M81.7,184.8C31.1,184.8,0,142.3,0,96.3C0,47.6,27.9,8.6,81.3,8.6c39.2,0,69.5,23.4,72,56.4h-34.8
		c-1.7-15.4-18.4-27.8-37.2-27.8c-27.6,0-46,21.3-46,60.6c0,27.1,13.6,57.9,45.7,57.9c29.9,0,40.3-14.7,40.3-37.7H84.6V90.4h68.8
		v27.7C153.5,157.4,136.8,184.8,81.7,184.8z"/>
	<path class="st0" d="M173.4,179.2V12.2h32.3v166.9H173.4z"/>
	<path class="st0" d="M221,108.5c2.6-27.2,26.8-52,54-54.4c43.1-3.8,70.5,22.2,70.5,64c0,38.7-24.1,64.3-62.1,64.3
		C240.6,182.4,216.8,151.6,221,108.5z M312.9,118.1c0-24.8-9.9-37-29.5-37s-29.6,12.2-29.6,37s9.9,37.3,29.5,37.3
		S312.9,142.9,312.9,118.1L312.9,118.1z"/>
	<path class="st0" d="M360.9,179.2V12.3h31.8v60.6c9.2-12.9,21.2-19.1,36.3-19.1c31.6,0,50.2,26.1,50,63.1
		c0,41.2-22.1,65.6-52.9,65.6c-14.9,0-26.3-5.8-34-18.2l-0.3,14.9H360.9z M446.3,119.1c0-25-8.9-37.7-27.8-37.8
		c-17.9,0-27.1,13.2-27.1,39.8c0,20.6,11.9,35,27.3,35C434.9,156.1,446.3,141,446.3,119.1z"/>
	<path class="st0" d="M574.8,179.4c-1.1-3.6-1.7-7.2-1.9-10.9c-7.7,8.4-20.6,14.1-37,14.1c-27.8,0-40.7-13.7-40.7-33.6
		c0-35.3,23.6-39.2,56.2-43.7c16.2-2.2,20.6-5.4,20.6-13.9c0-8-8-12.7-20.6-12.7c-14.6,0-20.6,7.2-22.1,18.1h-30.1
		c0.5-25.4,14.4-43,53.7-43c38.7,0,52.2,17.3,52.1,48.1v77.3H574.8z M572.6,119.5c-3.2,3.2-9,5-20.9,7.2
		c-18.4,3.5-24.4,8.7-24.4,19.1c0,9.2,5.5,13.6,15.6,13.7c16.6,0,29.1-12.2,29.3-26.6L572.6,119.5z"/>
	<path class="st0" d="M705.2,179.4v-74.1c0-18.9-5.4-24.1-20.9-24.1c-16.9,0-25,9.4-25,28.1v70.1H627V57.2h30.8V75
		c7.4-13.7,19.9-21.2,39.5-21.2c23.3,0,40.4,14.2,40.4,40.8v84.7L705.2,179.4z"/>
	<path class="st0" d="M830.5,133.5c-0.7,13.5-6.7,21.1-18.8,21.1c-13.2,0-18.6-9-18.6-24.4V80.1h50V54h-49.9V24.2h-31.9v109.3
		c0,26.3,14.1,49.2,49.9,49.2c34.5,0,49.5-23.1,49.5-48.9v-0.2L830.5,133.5z"/>
	<path class="st0" d="M899.6,3.3c-3.6-2.1-8.2-0.8-10.3,2.8c-1,1.8-1.3,3.9-0.7,5.8l14.4,21.5c28.1,42,28.1,96.8,0,138.8l-14.4,21.5
		c-1.1,4,1.2,8.2,5.2,9.3c2,0.6,4.1,0.3,5.8-0.7l120.7-92c4.2-3.2,5-9.1,1.8-13.2c-0.5-0.7-1.1-1.3-1.8-1.8L899.6,3.3z"/>
</g>
<g>
</g>
<g>
</g>
<g>
</g>
<g>
</g>
<g>
</g>
<g>
</g>
<g>
</g>
<g>
</g>
<g>
</g>
<g>
</g>
<g>
</g>
<g>
</g>
<g>
</g>
<g>
</g>
<g>
</g>
</svg>
