<svg id="Layer_1" data-name="Layer 1" xmlns="http://www.w3.org/2000/svg" viewBox="0 0 950 182.55"><defs><style>.cls-1{fill:#fff;}</style></defs><title>Sponsors 2020</title><polygon class="cls-1" points="189.78 0 109.71 134.31 44.53 25.55 108.91 25.55 92.7 52.34 107.3 76.64 153.36 0 0 0 109.49 182.56 218.98 0 189.78 0"/><path class="cls-1" d="M361.9,49.31A47.69,47.69,0,0,0,345.84,38.8a50.67,50.67,0,0,0-19.12-3.65,44.22,44.22,0,0,0-18.91,3.79q-7.89,3.62-10.51,9.2V37.55H273.8v135h24.3V126c1.75,3.72,5.26,6.79,10.29,9.2a42.59,42.59,0,0,0,18.54,3.79,48.48,48.48,0,0,0,18.76-3.79,47.67,47.67,0,0,0,15.84-10.73A50.1,50.1,0,0,0,372.41,108a52.63,52.63,0,0,0,4-21c0-7.66-.95-14.82-3.65-21.24A50.29,50.29,0,0,0,361.9,49.31Zm-12,48.32a23.53,23.53,0,0,1-5.76,8.39,25.63,25.63,0,0,1-9,5.33,32.53,32.53,0,0,1-11.46,1.9,35.42,35.42,0,0,1-16.28-3.65c-4.74-2.41-7.81-5.48-9.34-9.2V74.2c1.53-3.73,4.67-6.79,9.34-9.2a35.42,35.42,0,0,1,16.28-3.65,32.53,32.53,0,0,1,11.46,1.9,26.73,26.73,0,0,1,9,5.33,21.88,21.88,0,0,1,5.76,8.24A28,28,0,0,1,352,87,29.87,29.87,0,0,1,349.85,97.63Z"/><rect class="cls-1" x="395.62" y="4.71" width="24.31" height="130.95"/><path class="cls-1" d="M513.36,44.85a40.41,40.41,0,0,0-13.8-7.44,59.46,59.46,0,0,0-17.81-2.7,55.11,55.11,0,0,0-11.46,1.17,42.71,42.71,0,0,0-10.73,3.43,47.27,47.27,0,0,0-9,5.54,28.18,28.18,0,0,0-6.71,7.45h.22L450,72.15A34.38,34.38,0,0,1,461.82,63a37.16,37.16,0,0,1,16.79-3.65c7.3,0,12.78,1.75,16.65,5.18s5.76,8,5.76,13.79V81c-1.24-1.68-3.94-3.29-8-4.75S483.72,74,477.52,74a51.71,51.71,0,0,0-14.31,2.11,34.79,34.79,0,0,0-12.41,6.14,30.59,30.59,0,0,0-8.61,10.14,28.77,28.77,0,0,0-3.28,13.8,33.76,33.76,0,0,0,2.7,13.57,26.77,26.77,0,0,0,7.44,10.15,37.81,37.81,0,0,0,11.46,6.28,42.74,42.74,0,0,0,14.31,2.26,45.68,45.68,0,0,0,15.69-2.85A23.42,23.42,0,0,0,502,127.19v8.9h23.5V73.91a41.71,41.71,0,0,0-3.28-16.79A30.84,30.84,0,0,0,513.36,44.85Zm-12.05,62.92c-1.16,2.27-3.43,4.24-6.86,5.77a28.75,28.75,0,0,1-11.82,2.26c-6.28,0-10.95-1-14.16-2.84s-5-4.53-5-7.81,1.61-6,4.75-8,7.95-3.07,14.3-3.07a32.42,32.42,0,0,1,11.83,2.12c3.58,1.38,5.77,2.92,6.71,4.6h.22v7Z"/><path class="cls-1" d="M829.85,49.82a54.16,54.16,0,0,0-16.64-10.88,52.23,52.23,0,0,0-40.14,0,55.64,55.64,0,0,0-16.65,10.88A54,54,0,0,0,745,66.24a49.56,49.56,0,0,0-4.23,20.66A48.47,48.47,0,0,0,745,107.55,55.21,55.21,0,0,0,756.42,124a54.12,54.12,0,0,0,16.65,10.87,52.11,52.11,0,0,0,40.14,0A56.45,56.45,0,0,0,829.85,124a50.48,50.48,0,0,0,11.46-16.28A49.4,49.4,0,0,0,845.55,87v-.22a48.32,48.32,0,0,0-4.24-20.65A54.41,54.41,0,0,0,829.85,49.82ZM818.76,98a28.18,28.18,0,0,1-5.91,8.25,29.21,29.21,0,0,1-8.62,5.33,28.44,28.44,0,0,1-10.73,1.9,28.66,28.66,0,0,1-19.63-7.23A21.94,21.94,0,0,1,768.1,98,28,28,0,0,1,766,87.48v-.36a28,28,0,0,1,2.11-10.51,21.52,21.52,0,0,1,5.77-8.25A29.08,29.08,0,0,1,782.63,63a30.62,30.62,0,0,1,10.87-1.9A28.44,28.44,0,0,1,804.23,63a31.77,31.77,0,0,1,8.62,5.33,29.7,29.7,0,0,1,5.91,8.39A25.09,25.09,0,0,1,821,87.48,23.56,23.56,0,0,1,818.76,98Z"/><polygon class="cls-1" points="912.55 84.05 946.2 37.63 916.35 37.63 897.45 63.98 878.47 37.63 849.42 37.63 883.07 84.05 845.62 136.09 875.26 136.09 898.17 104.12 921.1 136.09 950 136.09 912.55 84.05"/><path class="cls-1" d="M686.5,101.28,661.09,37.63H613L587.15,98.8,561.31,37.63h-26.2L574.53,130s.29.15-4.24,9.86c-8.54,18.46-24.23,14.82-31.38,12.41v23.43a61.16,61.16,0,0,0,16.35,2.19c18.68,0,32.62-17.08,39.85-34.24,28.1-66.35,38.54-91.16,42.48-100.43l38.18,92.91H698l40.51-98.46H711.9Z"/></svg>