<svg xmlns="http://www.w3.org/2000/svg" xmlns:xlink="http://www.w3.org/1999/xlink" viewBox="0 0 859.35 346.07"><defs><style>.cls-1{fill:none;}.cls-1,.cls-4{stroke:#fff;stroke-linecap:round;stroke-linejoin:round;stroke-width:2px;}.cls-2,.cls-4{fill:#fff;}.cls-3{clip-path:url(#clip-path);}</style><clipPath id="clip-path" transform="translate(1.05)"><path class="cls-1" d="M286.4,153v-.3c0-.15,0-.15-.15-.3a.15.15,0,0,0-.15-.15c0-.15-.15-.15-.15-.3l-.15-.15-.3-.3-.15-.15-46.74-25.92a2.64,2.64,0,0,0-2.1,0l-39.4,24.13-.15.14-.15.15-.15.15-.15.15c0,.15-.15.15-.15.3a.15.15,0,0,1-.15.15v.45l-.45,21-16-10.64a2,2,0,0,0-2.25,0l-23.07,14.08-1-23.52v-.45a.15.15,0,0,0-.15-.15c0-.15,0-.15-.15-.3l-.15-.15-.15-.15-.15-.15-.15-.15-24-16.18L151,122.6a1.72,1.72,0,0,0,1-1.95l-3.74-88.39v-.45c0-.15-.15-.3-.15-.45v-.15c-.15-.15-.15-.3-.3-.3a.15.15,0,0,1-.15-.15l-.15-.15a.15.15,0,0,1-.15-.15L86.69,1.25A1.75,1.75,0,0,0,85.2,1.1L2.5,26.87H2.35c-.15,0-.3.15-.45.15a.15.15,0,0,0-.15.15l-.3.3c0,.15-.15.15-.15.3s-.15.15-.15.3,0,.14-.15.29v.75l18.43,89.14a2.06,2.06,0,0,0,.75,1.2l25,19.48-18.28,9h-.3l-.15.15c-.15,0-.15.15-.3.3l-.15.15a.46.46,0,0,0-.15.3V149c0,.15-.15.3-.15.59v.6l13.93,67.12a2.42,2.42,0,0,0,.6,1.05l17.38,16.48-11.54,7c-.15.15-.3.15-.45.3l-.14.15c-.15.15-.15.3-.3.45v.15c-.15.15-.15.3-.15.6v.6l10.78,52c.15.3.3.75.45,1.05l43.45,46.15.15.15H100c.15.15.3.15.45.3a1.35,1.35,0,0,0,.75.15.9.9,0,0,0,.6-.15h.3c.14,0,.14-.15.14-.15a.15.15,0,0,0,.15-.15l55.89-44.65a2.4,2.4,0,0,0,.74-1.65l-1.34-30.56,18.72,15.73h.15c.15.15.15.15.3.15h.3c.15,0,.45.15.6.15a.9.9,0,0,0,.6-.15h.3c.15,0,.15-.15.3-.15h.15l44.79-35.8a1.85,1.85,0,0,0,.75-1.5L226,222.52,239.66,232h.15l.14.15c.15,0,.15,0,.3.15h.15c.15,0,.3.15.6.15a.9.9,0,0,0,.6-.15h.3c.15,0,.15-.15.3-.15h.15l36.56-29.21a1.58,1.58,0,0,0,.75-1.35l6.44-48.09v-.15c.3-.15.3-.15.3-.3Z"/></clipPath></defs><title>linode-white</title><g id="Layer_2" data-name="Layer 2"><g id="Layer_1-2" data-name="Layer 1"><path class="cls-2" d="M348.83,107.91l22.3-5.37V210q0,17.67,10.54,21.07c-3.41,6.5-9.3,9.81-17.66,9.81q-15.18,0-15.18-21.07Z" transform="translate(1.05)"/><path class="cls-2" d="M404.9,239.26V161.92H392.71V143.64h34.8v95.62Zm11.46-132.69a13,13,0,0,1,9.19,22.2,13,13,0,0,1-18.38,0,12.24,12.24,0,0,1-3.82-9.19,12.41,12.41,0,0,1,3.82-9.19A12.57,12.57,0,0,1,416.36,106.57Z" transform="translate(1.05)"/><path class="cls-2" d="M515,239.26V184c0-8.15-1.55-14.14-4.65-17.86s-8.26-5.58-15.28-5.58a26.71,26.71,0,0,0-19.2,9.71v69.08H453.53V143.74h16.11l4.13,8.88c6.09-7.12,15.08-10.73,26.85-10.73q17,0,27,10.22t9.91,28.5v58.65Z" transform="translate(1.05)"/><path class="cls-2" d="M555.14,191.14c0-14.56,4.23-26.43,12.6-35.62s19.51-13.74,33.35-13.74c14.56,0,25.81,4.44,33.87,13.22S647,175.86,647,191.14s-4.13,27.36-12.29,36.35S615.34,241,601.09,241c-14.56,0-25.82-4.54-33.87-13.63s-12.08-21.17-12.08-36.24Zm23.23,0c0,21.06,7.54,31.6,22.82,31.6a19.53,19.53,0,0,0,16.52-8.26c4-5.48,6.09-13.33,6.09-23.44,0-20.76-7.53-31.19-22.71-31.19a19.87,19.87,0,0,0-16.63,8.26c-4,5.58-6.09,13.22-6.09,23Z" transform="translate(1.05)"/><path class="cls-2" d="M726.44,239.26v-5.79c-1.86,2.07-5,3.82-9.39,5.27A41,41,0,0,1,703.42,241c-13.32,0-23.86-4.23-31.5-12.7S660.46,208.07,660.46,193s4.44-27.47,13.22-37,19.82-14.25,32.94-14.25a43.71,43.71,0,0,1,19.82,4.44V107.91l22.31-5.37V239.15H726.44Zm0-72.8c-4.75-3.82-9.7-5.68-14.87-5.68-8.88,0-15.79,2.69-20.65,8.16s-7.23,13.22-7.23,23.44c0,19.93,9.61,29.84,28.81,29.84a21.09,21.09,0,0,0,8-2c3.1-1.24,5.17-2.58,6.1-3.93V166.46Z" transform="translate(1.05)"/><path class="cls-2" d="M856.44,198.26H788.09c.41,7.64,3,13.53,7.84,17.76s11.36,6.3,19.52,6.3c10.22,0,18-2.68,23.23-7.95l8.68,17c-7.85,6.4-19.62,9.6-35.21,9.6-14.56,0-26.13-4.23-34.59-12.8s-12.71-20.45-12.71-35.73c0-15.07,4.65-27.26,13.94-36.66a45.43,45.43,0,0,1,33.56-14c13.84,0,25,4.13,33.35,12.39s12.6,18.8,12.6,31.6a63.25,63.25,0,0,1-1.86,12.49Zm-67.53-16.83h47c-1.55-14-9.3-21-23.24-21C800,160.47,792,167.49,788.91,181.43Z" transform="translate(1.05)"/><path id="a" class="cls-1" d="M286.4,153v-.3c0-.15,0-.15-.15-.3a.15.15,0,0,0-.15-.15c0-.15-.15-.15-.15-.3l-.15-.15-.3-.3-.15-.15-46.74-25.92a2.64,2.64,0,0,0-2.1,0l-39.4,24.13-.15.14-.15.15-.15.15-.15.15c0,.15-.15.15-.15.3a.15.15,0,0,1-.15.15v.45l-.45,21-16-10.64a2,2,0,0,0-2.25,0l-23.07,14.08-1-23.52v-.45a.15.15,0,0,0-.15-.15c0-.15,0-.15-.15-.3l-.15-.15-.15-.15-.15-.15-.15-.15-24-16.18L151,122.6a1.72,1.72,0,0,0,1-1.95l-3.74-88.39v-.45c0-.15-.15-.3-.15-.45v-.15c-.15-.15-.15-.3-.3-.3a.15.15,0,0,1-.15-.15l-.15-.15a.15.15,0,0,1-.15-.15L86.69,1.25A1.75,1.75,0,0,0,85.2,1.1L2.5,26.87H2.35c-.15,0-.3.15-.45.15a.15.15,0,0,0-.15.15l-.3.3c0,.15-.15.15-.15.3s-.15.15-.15.3,0,.14-.15.29v.75l18.43,89.14a2.06,2.06,0,0,0,.75,1.2l25,19.48-18.28,9h-.3l-.15.15c-.15,0-.15.15-.3.3l-.15.15a.46.46,0,0,0-.15.3V149c0,.15-.15.3-.15.59v.6l13.93,67.12a2.42,2.42,0,0,0,.6,1.05l17.38,16.48-11.54,7c-.15.15-.3.15-.45.3l-.14.15c-.15.15-.15.3-.3.45v.15c-.15.15-.15.3-.15.6v.6l10.78,52c.15.3.3.75.45,1.05l43.45,46.15.15.15H100c.15.15.3.15.45.3a1.35,1.35,0,0,0,.75.15.9.9,0,0,0,.6-.15h.3c.14,0,.14-.15.14-.15a.15.15,0,0,0,.15-.15l55.89-44.65a2.4,2.4,0,0,0,.74-1.65l-1.34-30.56,18.72,15.73h.15c.15.15.15.15.3.15h.3c.15,0,.45.15.6.15a.9.9,0,0,0,.6-.15h.3c.15,0,.15-.15.3-.15h.15l44.79-35.8a1.85,1.85,0,0,0,.75-1.5L226,222.52,239.66,232h.15l.14.15c.15,0,.15,0,.3.15h.15c.15,0,.3.15.6.15a.9.9,0,0,0,.6-.15h.3c.15,0,.15-.15.3-.15h.15l36.56-29.21a1.58,1.58,0,0,0,.75-1.35l6.44-48.09v-.15c.3-.15.3-.15.3-.3Z" transform="translate(1.05)"/><g class="cls-3"><path class="cls-1" d="M286.7,151.81l-6.89,50.49L241.15,233l4.2-49.44Z" transform="translate(1.05)"/></g><path class="cls-1" d="M286.4,153v-.3c0-.15,0-.15-.15-.3a.15.15,0,0,0-.15-.15c0-.15-.15-.15-.15-.3l-.15-.15-.3-.3-.15-.15-46.74-25.92a2.64,2.64,0,0,0-2.1,0l-39.4,24.13-.15.14-.15.15-.15.15-.15.15c0,.15-.15.15-.15.3a.15.15,0,0,1-.15.15v.45l-.45,21-16-10.64a2,2,0,0,0-2.25,0l-23.07,14.08-1-23.52v-.45a.15.15,0,0,0-.15-.15c0-.15,0-.15-.15-.3l-.15-.15-.15-.15-.15-.15-.15-.15-24-16.18L151,122.6a1.72,1.72,0,0,0,1-1.95l-3.74-88.39v-.45c0-.15-.15-.3-.15-.45v-.15c-.15-.15-.15-.3-.3-.3a.15.15,0,0,1-.15-.15l-.15-.15a.15.15,0,0,1-.15-.15L86.69,1.25A1.75,1.75,0,0,0,85.2,1.1L2.5,26.87H2.35c-.15,0-.3.15-.45.15a.15.15,0,0,0-.15.15l-.3.3c0,.15-.15.15-.15.3s-.15.15-.15.3,0,.14-.15.29v.75l18.43,89.14a2.06,2.06,0,0,0,.75,1.2l25,19.48-18.28,9h-.3l-.15.15c-.15,0-.15.15-.3.3l-.15.15a.46.46,0,0,0-.15.3V149c0,.15-.15.3-.15.59v.6l13.93,67.12a2.42,2.42,0,0,0,.6,1.05l17.38,16.48-11.54,7c-.15.15-.3.15-.45.3l-.14.15c-.15.15-.15.3-.3.45v.15c-.15.15-.15.3-.15.6v.6l10.78,52c.15.3.3.75.45,1.05l43.45,46.15.15.15H100c.15.15.3.15.45.3a1.35,1.35,0,0,0,.75.15.9.9,0,0,0,.6-.15h.3c.14,0,.14-.15.14-.15a.15.15,0,0,0,.15-.15l55.89-44.65a2.4,2.4,0,0,0,.74-1.65l-1.34-30.56,18.72,15.73h.15c.15.15.15.15.3.15h.3c.15,0,.45.15.6.15a.9.9,0,0,0,.6-.15h.3c.15,0,.15-.15.3-.15h.15l44.79-35.8a1.85,1.85,0,0,0,.75-1.5L226,222.52,239.66,232h.15l.14.15c.15,0,.15,0,.3.15h.15c.15,0,.3.15.6.15a.9.9,0,0,0,.6-.15h.3c.15,0,.15-.15.3-.15h.15l36.56-29.21a1.58,1.58,0,0,0,.75-1.35l6.44-48.09v-.15c.3-.15.3-.15.3-.3Z" transform="translate(1.05)"/><g class="cls-3"><path class="cls-1" d="M178.38,231.36l-.15,52,47-37.45L228.12,195Z" transform="translate(1.05)"/></g><path class="cls-1" d="M286.4,153v-.3c0-.15,0-.15-.15-.3a.15.15,0,0,0-.15-.15c0-.15-.15-.15-.15-.3l-.15-.15-.3-.3-.15-.15-46.74-25.92a2.64,2.64,0,0,0-2.1,0l-39.4,24.13-.15.14-.15.15-.15.15-.15.15c0,.15-.15.15-.15.3a.15.15,0,0,1-.15.15v.45l-.45,21-16-10.64a2,2,0,0,0-2.25,0l-23.07,14.08-1-23.52v-.45a.15.15,0,0,0-.15-.15c0-.15,0-.15-.15-.3l-.15-.15-.15-.15-.15-.15-.15-.15-24-16.18L151,122.6a1.72,1.72,0,0,0,1-1.95l-3.74-88.39v-.45c0-.15-.15-.3-.15-.45v-.15c-.15-.15-.15-.3-.3-.3a.15.15,0,0,1-.15-.15l-.15-.15a.15.15,0,0,1-.15-.15L86.69,1.25A1.75,1.75,0,0,0,85.2,1.1L2.5,26.87H2.35c-.15,0-.3.15-.45.15a.15.15,0,0,0-.15.15l-.3.3c0,.15-.15.15-.15.3s-.15.15-.15.3,0,.14-.15.29v.75l18.43,89.14a2.06,2.06,0,0,0,.75,1.2l25,19.48-18.28,9h-.3l-.15.15c-.15,0-.15.15-.3.3l-.15.15a.46.46,0,0,0-.15.3V149c0,.15-.15.3-.15.59v.6l13.93,67.12a2.42,2.42,0,0,0,.6,1.05l17.38,16.48-11.54,7c-.15.15-.3.15-.45.3l-.14.15c-.15.15-.15.3-.3.45v.15c-.15.15-.15.3-.15.6v.6l10.78,52c.15.3.3.75.45,1.05l43.45,46.15.15.15H100c.15.15.3.15.45.3a1.35,1.35,0,0,0,.75.15.9.9,0,0,0,.6-.15h.3c.14,0,.14-.15.14-.15a.15.15,0,0,0,.15-.15l55.89-44.65a2.4,2.4,0,0,0,.74-1.65l-1.34-30.56,18.72,15.73h.15c.15.15.15.15.3.15h.3c.15,0,.45.15.6.15a.9.9,0,0,0,.6-.15h.3c.15,0,.15-.15.3-.15h.15l44.79-35.8a1.85,1.85,0,0,0,.75-1.5L226,222.52,239.66,232h.15l.14.15c.15,0,.15,0,.3.15h.15c.15,0,.3.15.6.15a.9.9,0,0,0,.6-.15h.3c.15,0,.15-.15.3-.15h.15l36.56-29.21a1.58,1.58,0,0,0,.75-1.35l6.44-48.09v-.15c.3-.15.3-.15.3-.3Z" transform="translate(1.05)"/><g class="cls-3"><path class="cls-1" d="M157.26,245.45l-62.63,46,6.9,53.33,58.12-46.29Z" transform="translate(1.05)"/></g><path class="cls-1" d="M286.4,153v-.3c0-.15,0-.15-.15-.3a.15.15,0,0,0-.15-.15c0-.15-.15-.15-.15-.3l-.15-.15-.3-.3-.15-.15-46.74-25.92a2.64,2.64,0,0,0-2.1,0l-39.4,24.13-.15.14-.15.15-.15.15-.15.15c0,.15-.15.15-.15.3a.15.15,0,0,1-.15.15v.45l-.45,21-16-10.64a2,2,0,0,0-2.25,0l-23.07,14.08-1-23.52v-.45a.15.15,0,0,0-.15-.15c0-.15,0-.15-.15-.3l-.15-.15-.15-.15-.15-.15-.15-.15-24-16.18L151,122.6a1.72,1.72,0,0,0,1-1.95l-3.74-88.39v-.45c0-.15-.15-.3-.15-.45v-.15c-.15-.15-.15-.3-.3-.3a.15.15,0,0,1-.15-.15l-.15-.15a.15.15,0,0,1-.15-.15L86.69,1.25A1.75,1.75,0,0,0,85.2,1.1L2.5,26.87H2.35c-.15,0-.3.15-.45.15a.15.15,0,0,0-.15.15l-.3.3c0,.15-.15.15-.15.3s-.15.15-.15.3,0,.14-.15.29v.75l18.43,89.14a2.06,2.06,0,0,0,.75,1.2l25,19.48-18.28,9h-.3l-.15.15c-.15,0-.15.15-.3.3l-.15.15a.46.46,0,0,0-.15.3V149c0,.15-.15.3-.15.59v.6l13.93,67.12a2.42,2.42,0,0,0,.6,1.05l17.38,16.48-11.54,7c-.15.15-.3.15-.45.3l-.14.15c-.15.15-.15.3-.3.45v.15c-.15.15-.15.3-.15.6v.6l10.78,52c.15.3.3.75.45,1.05l43.45,46.15.15.15H100c.15.15.3.15.45.3a1.35,1.35,0,0,0,.75.15.9.9,0,0,0,.6-.15h.3c.14,0,.14-.15.14-.15a.15.15,0,0,0,.15-.15l55.89-44.65a2.4,2.4,0,0,0,.74-1.65l-1.34-30.56,18.72,15.73h.15c.15.15.15.15.3.15h.3c.15,0,.45.15.6.15a.9.9,0,0,0,.6-.15h.3c.15,0,.15-.15.3-.15h.15l44.79-35.8a1.85,1.85,0,0,0,.75-1.5L226,222.52,239.66,232h.15l.14.15c.15,0,.15,0,.3.15h.15c.15,0,.3.15.6.15a.9.9,0,0,0,.6-.15h.3c.15,0,.15-.15.3-.15h.15l36.56-29.21a1.58,1.58,0,0,0,.75-1.35l6.44-48.09v-.15c.3-.15.3-.15.3-.3Z" transform="translate(1.05)"/><g class="cls-3"><path class="cls-1" d="M156.21,220l-2.7-69.22-73,44.2,10,69.36Z" transform="translate(1.05)"/></g><path class="cls-1" d="M286.4,153v-.3c0-.15,0-.15-.15-.3a.15.15,0,0,0-.15-.15c0-.15-.15-.15-.15-.3l-.15-.15-.3-.3-.15-.15-46.74-25.92a2.64,2.64,0,0,0-2.1,0l-39.4,24.13-.15.14-.15.15-.15.15-.15.15c0,.15-.15.15-.15.3a.15.15,0,0,1-.15.15v.45l-.45,21-16-10.64a2,2,0,0,0-2.25,0l-23.07,14.08-1-23.52v-.45a.15.15,0,0,0-.15-.15c0-.15,0-.15-.15-.3l-.15-.15-.15-.15-.15-.15-.15-.15-24-16.18L151,122.6a1.72,1.72,0,0,0,1-1.95l-3.74-88.39v-.45c0-.15-.15-.3-.15-.45v-.15c-.15-.15-.15-.3-.3-.3a.15.15,0,0,1-.15-.15l-.15-.15a.15.15,0,0,1-.15-.15L86.69,1.25A1.75,1.75,0,0,0,85.2,1.1L2.5,26.87H2.35c-.15,0-.3.15-.45.15a.15.15,0,0,0-.15.15l-.3.3c0,.15-.15.15-.15.3s-.15.15-.15.3,0,.14-.15.29v.75l18.43,89.14a2.06,2.06,0,0,0,.75,1.2l25,19.48-18.28,9h-.3l-.15.15c-.15,0-.15.15-.3.3l-.15.15a.46.46,0,0,0-.15.3V149c0,.15-.15.3-.15.59v.6l13.93,67.12a2.42,2.42,0,0,0,.6,1.05l17.38,16.48-11.54,7c-.15.15-.3.15-.45.3l-.14.15c-.15.15-.15.3-.3.45v.15c-.15.15-.15.3-.15.6v.6l10.78,52c.15.3.3.75.45,1.05l43.45,46.15.15.15H100c.15.15.3.15.45.3a1.35,1.35,0,0,0,.75.15.9.9,0,0,0,.6-.15h.3c.14,0,.14-.15.14-.15a.15.15,0,0,0,.15-.15l55.89-44.65a2.4,2.4,0,0,0,.74-1.65l-1.34-30.56,18.72,15.73h.15c.15.15.15.15.3.15h.3c.15,0,.45.15.6.15a.9.9,0,0,0,.6-.15h.3c.15,0,.15-.15.3-.15h.15l44.79-35.8a1.85,1.85,0,0,0,.75-1.5L226,222.52,239.66,232h.15l.14.15c.15,0,.15,0,.3.15h.15c.15,0,.3.15.6.15a.9.9,0,0,0,.6-.15h.3c.15,0,.15-.15.3-.15h.15l36.56-29.21a1.58,1.58,0,0,0,.75-1.35l6.44-48.09v-.15c.3-.15.3-.15.3-.3Z" transform="translate(1.05)"/><g class="cls-3"><path class="cls-1" d="M148.12,32.11,61.83,67.17,76.06,163.5l52.73-29.22.15.6,23.82-12v-2Z" transform="translate(1.05)"/></g><path class="cls-1" d="M286.4,153v-.3c0-.15,0-.15-.15-.3a.15.15,0,0,0-.15-.15c0-.15-.15-.15-.15-.3l-.15-.15-.3-.3-.15-.15-46.74-25.92a2.64,2.64,0,0,0-2.1,0l-39.4,24.13-.15.14-.15.15-.15.15-.15.15c0,.15-.15.15-.15.3a.15.15,0,0,1-.15.15v.45l-.45,21-16-10.64a2,2,0,0,0-2.25,0l-23.07,14.08-1-23.52v-.45a.15.15,0,0,0-.15-.15c0-.15,0-.15-.15-.3l-.15-.15-.15-.15-.15-.15-.15-.15-24-16.18L151,122.6a1.72,1.72,0,0,0,1-1.95l-3.74-88.39v-.45c0-.15-.15-.3-.15-.45v-.15c-.15-.15-.15-.3-.3-.3a.15.15,0,0,1-.15-.15l-.15-.15a.15.15,0,0,1-.15-.15L86.69,1.25A1.75,1.75,0,0,0,85.2,1.1L2.5,26.87H2.35c-.15,0-.3.15-.45.15a.15.15,0,0,0-.15.15l-.3.3c0,.15-.15.15-.15.3s-.15.15-.15.3,0,.14-.15.29v.75l18.43,89.14a2.06,2.06,0,0,0,.75,1.2l25,19.48-18.28,9h-.3l-.15.15c-.15,0-.15.15-.3.3l-.15.15a.46.46,0,0,0-.15.3V149c0,.15-.15.3-.15.59v.6l13.93,67.12a2.42,2.42,0,0,0,.6,1.05l17.38,16.48-11.54,7c-.15.15-.3.15-.45.3l-.14.15c-.15.15-.15.3-.3.45v.15c-.15.15-.15.3-.15.6v.6l10.78,52c.15.3.3.75.45,1.05l43.45,46.15.15.15H100c.15.15.3.15.45.3a1.35,1.35,0,0,0,.75.15.9.9,0,0,0,.6-.15h.3c.14,0,.14-.15.14-.15a.15.15,0,0,0,.15-.15l55.89-44.65a2.4,2.4,0,0,0,.74-1.65l-1.34-30.56,18.72,15.73h.15c.15.15.15.15.3.15h.3c.15,0,.45.15.6.15a.9.9,0,0,0,.6-.15h.3c.15,0,.15-.15.3-.15h.15l44.79-35.8a1.85,1.85,0,0,0,.75-1.5L226,222.52,239.66,232h.15l.14.15c.15,0,.15,0,.3.15h.15c.15,0,.3.15.6.15a.9.9,0,0,0,.6-.15h.3c.15,0,.15-.15.3-.15h.15l36.56-29.21a1.58,1.58,0,0,0,.75-1.35l6.44-48.09v-.15c.3-.15.3-.15.3-.3Z" transform="translate(1.05)"/><g class="cls-3"><path class="cls-4" d="M245.35,183.57l-4.2,49.29-14.68-10.34L228.12,195v-.6c0-.15-.15-.3-.15-.45-.15-.15-.15-.3-.3-.45h-.15c-.15-.15-.15-.15-.3-.15l-31.61-20.82.45-21.28Zm-67,47.79-22.32-16,.15,3.45a2.14,2.14,0,0,1-.9,1.8l-14.83,10,16.18,13.19.15.15.3.3a.15.15,0,0,0,.15.15c0,.15.15.15.15.3v.6l.9,21,20.07,16.78ZM44.45,242.6l11.23,53.48,46,49-7.05-53.63Zm46.14,21.72L80.55,195l-54.68-44.8,13.48,68ZM76.06,163.5,61.83,67.17,0,28.07l19.18,91.08Z" transform="translate(1.05)"/></g><path class="cls-1" d="M286.4,153v-.3c0-.15,0-.15-.15-.3a.15.15,0,0,0-.15-.15c0-.15-.15-.15-.15-.3l-.15-.15-.3-.3-.15-.15-46.74-25.92a2.64,2.64,0,0,0-2.1,0l-39.4,24.13-.15.14-.15.15-.15.15-.15.15c0,.15-.15.15-.15.3a.15.15,0,0,1-.15.15v.45l-.45,21-16-10.64a2,2,0,0,0-2.25,0l-23.07,14.08-1-23.52v-.45a.15.15,0,0,0-.15-.15c0-.15,0-.15-.15-.3l-.15-.15-.15-.15-.15-.15-.15-.15-24-16.18L151,122.6a1.72,1.72,0,0,0,1-1.95l-3.74-88.39v-.45c0-.15-.15-.3-.15-.45v-.15c-.15-.15-.15-.3-.3-.3a.15.15,0,0,1-.15-.15l-.15-.15a.15.15,0,0,1-.15-.15L86.69,1.25A1.75,1.75,0,0,0,85.2,1.1L2.5,26.87H2.35c-.15,0-.3.15-.45.15a.15.15,0,0,0-.15.15l-.3.3c0,.15-.15.15-.15.3s-.15.15-.15.3,0,.14-.15.29v.75l18.43,89.14a2.06,2.06,0,0,0,.75,1.2l25,19.48-18.28,9h-.3l-.15.15c-.15,0-.15.15-.3.3l-.15.15a.46.46,0,0,0-.15.3V149c0,.15-.15.3-.15.59v.6l13.93,67.12a2.42,2.42,0,0,0,.6,1.05l17.38,16.48-11.54,7c-.15.15-.3.15-.45.3l-.14.15c-.15.15-.15.3-.3.45v.15c-.15.15-.15.3-.15.6v.6l10.78,52c.15.3.3.75.45,1.05l43.45,46.15.15.15H100c.15.15.3.15.45.3a1.35,1.35,0,0,0,.75.15.9.9,0,0,0,.6-.15h.3c.14,0,.14-.15.14-.15a.15.15,0,0,0,.15-.15l55.89-44.65a2.4,2.4,0,0,0,.74-1.65l-1.34-30.56,18.72,15.73h.15c.15.15.15.15.3.15h.3c.15,0,.45.15.6.15a.9.9,0,0,0,.6-.15h.3c.15,0,.15-.15.3-.15h.15l44.79-35.8a1.85,1.85,0,0,0,.75-1.5L226,222.52,239.66,232h.15l.14.15c.15,0,.15,0,.3.15h.15c.15,0,.3.15.6.15a.9.9,0,0,0,.6-.15h.3c.15,0,.15-.15.3-.15h.15l36.56-29.21a1.58,1.58,0,0,0,.75-1.35l6.44-48.09v-.15c.3-.15.3-.15.3-.3Z" transform="translate(1.05)"/><path class="cls-2" d="M45.67,242.45a.44.44,0,0,0-.11.2.29.29,0,0,0,0,.09l49.51,48.19h0L157.6,245l.15-.15v-.6c0-.15-.15-.15-.15-.3a.15.15,0,0,1-.15-.15l-.29-.3-.15-.15-16.17-13.17L91,263.84h0L58.09,234.36h0l-3.4,2.08-5.47,3.34-2.65,1.62a1,1,0,0,1-.13.09,1.17,1.17,0,0,0-.32.21l0,.05,0,.05-.05,0a.72.72,0,0,0-.13.19.47.47,0,0,1-.06.09.69.69,0,0,1-.11.17Z" transform="translate(1.05)"/><path class="cls-2" d="M62.28,66.92l86.2-35,.15.15V31.6a1.69,1.69,0,0,0-.12-.36.32.32,0,0,1,0-.09h0V31a.7.7,0,0,1-.14-.19h0a.18.18,0,0,0-.15-.1.26.26,0,0,1-.1-.05.12.12,0,0,1-.05-.1l0,0-.11-.12a.16.16,0,0,1-.14-.12s0,0,0,0l-15.3-7.36-7.5-3.61L87.12,1.08A1.22,1.22,0,0,0,86.76.9a1.79,1.79,0,0,0-1.05,0h-.08L15.32,22.83,3,26.66H2.88a.29.29,0,0,0-.13.05,1.07,1.07,0,0,1-.32.1.12.12,0,0,0-.13.08.14.14,0,0,0,0,.07h0L2.22,27,2,27.2,2,27.26c0,.15-.15.15-.15.3s0,.06,0,.08-.11.11-.11.22a.3.3,0,0,1,0,.15.7.7,0,0,1-.13.15v.36l60.75,38.4Z" transform="translate(1.05)"/><path class="cls-2" d="M26.37,149.82,81,194.56h0L153.4,150.7l-.14-.13,0,0-.11-.1-.15-.15-.07-.08-.07-.07-23.25-15.69-.25.12-.09-.35-.22-.15L76.5,163.14,45.26,138.8l-6,2.95-11.83,5.82h-.3l-.09.09-.06.06c-.12,0-.16.1-.24.21a.47.47,0,0,1-.06.09l-.15.15a.41.41,0,0,0-.1.16.55.55,0,0,0-.05.14v.15h0s0,0,0,.07a1.62,1.62,0,0,0-.13.53v.6Z" transform="translate(1.05)"/><path class="cls-2" d="M177.81,161l-23,14,1.7,43.61a1.75,1.75,0,0,0,0-.33l-.15-3.44,22.29,16h0l49.68-36.36V194c0-.15-.15-.3-.15-.45s-.15-.3-.29-.45h-.15c-.15-.15-.15-.15-.3-.15l-31.58-20.8v-.54L180.05,161A2,2,0,0,0,177.81,161Z" transform="translate(1.05)"/><path class="cls-2" d="M196.51,150.57v.15h0V151l49.08,32.23h0l40.71-31.27h0a.15.15,0,0,0,0-.07c0-.07-.11-.11-.11-.23l-.06-.06-.09-.09-.07-.06-.16-.16-.07-.08-.15-.15L257,135.19l-10-5.55-8.14-4.51-.11,0a2.59,2.59,0,0,0-1.82,0,1.15,1.15,0,0,0-.17.06L214.6,138.69l-17.19,10.53,0,.05-.1.1-.15.15-.15.15-.08.07-.07.08c0,.15-.15.15-.15.3a.17.17,0,0,1,0,.07.13.13,0,0,1-.13.08v.3Z" transform="translate(1.05)"/><line class="cls-1" x1="158.13" y1="247.96" x2="158.76" y2="266.57"/></g></g></svg>