<?xml version="1.0" encoding="UTF-8"?>
<svg width="377px" height="109px" viewBox="0 0 377 109" version="1.1" xmlns="http://www.w3.org/2000/svg" xmlns:xlink="http://www.w3.org/1999/xlink">
    <title>hourly_logo White</title>
    <defs>
        <polygon id="path-1" points="0.520126157 0.358905145 52.2448149 0.358905145 52.2448149 86.6482939 0.520126157 86.6482939"></polygon>
    </defs>
    <g id="Page-1" stroke="none" stroke-width="1" fill="none" fill-rule="evenodd">
        <g id="hourly_logo-White" transform="translate(-0.000000, 0.231441)">
            <path d="M63.7691503,1.59863586 C64.8706452,2.66342334 65.4221182,4.02495488 65.4221182,5.68323048 L65.4221182,77.0574485 C65.3422998,78.7157241 64.7516431,80.0961658 63.6501482,81.2016829 C62.5472022,82.3057453 61.1307872,82.8570492 59.3980008,82.8570492 C57.8234001,82.8570492 56.4664862,82.3057453 55.3258077,81.2016829 C54.183678,80.0961658 53.6133388,78.7157241 53.6133388,77.0574485 L53.6133388,46.4011694 L11.6897773,46.4011694 L11.6897773,77.0574485 C11.6897773,78.7157241 11.0991207,80.0961658 9.91925861,81.2016829 C8.73794529,82.3057453 7.35926268,82.8570492 5.78611325,82.8570492 C4.05332689,82.8570492 2.65722934,82.3057453 1.59346685,81.2016829 C0.531155618,80.0961658 0,78.7157241 0,77.0574485 L0,5.68323048 C0,4.10495941 0.548570556,2.76379266 1.65151665,1.65827559 C2.75446274,0.554213159 4.17232897,0 5.90366408,0 C7.47826476,0 8.8351787,0.554213159 9.97875965,1.65827559 C11.1194381,2.76379266 11.6897773,4.10495941 11.6897773,5.68323048 L11.6897773,35.5103717 L53.6133388,35.5103717 L53.6133388,5.68323048 C53.6133388,4.10495941 54.2025442,2.76379266 55.3838575,1.65827559 C56.5651708,0.554213159 57.940951,0 59.5170029,0 C61.248338,0 62.664753,0.533848371 63.7691503,1.59863586" id="Fill-1" fill="#FFFFFF"></path>
            <path d="M132.202166,40.1216386 C130.430196,36.7687217 128.028386,34.1634835 124.998187,32.3088331 C121.966536,30.4556374 118.601099,29.5275849 114.901876,29.5275849 C111.199751,29.5275849 107.835765,30.4556374 104.805566,32.3088331 C101.772464,34.1634835 99.3735563,36.7687217 97.6015863,40.1216386 C95.8310676,43.4760101 94.944357,47.2827708 94.944357,51.54483 C94.944357,55.7283393 95.8310676,59.4754603 97.6015863,62.7891022 C99.3735563,66.1027442 101.772464,68.6890722 104.805566,70.5408133 C107.835765,72.3954637 111.199751,73.3220615 114.901876,73.3220615 C118.601099,73.3220615 121.966536,72.3954637 124.998187,70.5408133 C128.028386,68.6890722 130.430196,66.1027442 132.202166,62.7891022 C133.974136,59.4754603 134.859396,55.7283393 134.859396,51.54483 C134.859396,47.2827708 133.974136,43.4760101 132.202166,40.1216386 M141.944373,68.1144943 C139.187008,73.0078619 135.429735,76.8349874 130.666749,79.5973255 C125.902312,82.3596635 120.647355,83.7401052 114.901876,83.7401052 C109.153495,83.7401052 103.898538,82.3596635 99.1370034,79.5973255 C94.3725665,76.8349874 90.6138423,73.0078619 87.8579284,68.1144943 C85.1020144,63.2225813 83.7262342,57.6993599 83.7262342,51.54483 C83.7262342,45.3888455 85.1020144,39.8248945 87.8579284,34.8544316 C90.6138423,29.8825141 94.3725665,26.0175683 99.1370034,23.2537756 C103.898538,20.4928922 109.153495,19.1124505 114.901876,19.1124505 C120.647355,19.1124505 125.902312,20.4928922 130.666749,23.2537756 C135.429735,26.0175683 139.187008,29.8825141 141.944373,34.8544316 C144.698836,39.8248945 146.07897,45.3888455 146.07897,51.54483 C146.07897,57.6993599 144.698836,63.2225813 141.944373,68.1144943" id="Fill-3" fill="#FFFFFF"></path>
            <path d="M213.21109,22.1888427 C214.273401,23.2958143 214.806008,24.6369811 214.806008,26.2137975 L214.806008,57.6992144 C214.806008,65.9076786 212.542066,72.278948 208.015633,76.8159318 C203.487749,81.3543703 197.092113,83.6206803 188.825822,83.6206803 C180.636448,83.6206803 174.300312,81.3543703 169.813063,76.8159318 C165.325814,72.278948 163.08219,65.9076786 163.08219,57.6992144 L163.08219,26.2137975 C163.08219,24.6369811 163.613345,23.2958143 164.677108,22.1888427 C165.737968,21.0847802 167.055698,20.5320217 168.63175,20.5320217 C170.284718,20.5320217 171.643083,21.0847802 172.706846,22.1888427 C173.769157,23.2958143 174.300312,24.6369811 174.300312,26.2137975 L174.300312,57.6992144 C174.300312,68.0387082 179.141665,73.2040912 188.825822,73.2040912 C193.62654,73.2040912 197.28658,71.903654 199.808843,69.2998704 C202.326753,66.6946322 203.586434,62.8296863 203.586434,57.6992144 L203.586434,26.2137975 C203.586434,24.6369811 204.117589,23.2958143 205.181352,22.1888427 C206.243663,21.0847802 207.561393,20.5320217 209.135994,20.5320217 C210.790413,20.5320217 212.15023,21.0847802 213.21109,22.1888427" id="Fill-5" fill="#FFFFFF"></path>
            <path d="M271.724412,20.7086135 C273.219194,21.773401 273.969487,23.0985668 273.969487,24.6753833 C273.969487,26.5678539 273.476064,28.00939 272.49212,28.994173 C271.508176,29.9818652 270.306545,30.474984 268.89013,30.474984 C268.181923,30.474984 267.11816,30.2378796 265.703197,29.7651256 C264.047326,29.2138217 262.748462,28.9345332 261.805153,28.9345332 C259.362708,28.9345332 256.981215,29.7840358 254.659223,31.4801317 C252.338683,33.1776823 250.447711,35.5050866 248.992112,38.465254 C247.533611,41.4225121 246.806537,44.7201532 246.806537,48.3479947 L246.806537,76.8732441 C246.806537,78.4529698 246.275382,79.7941366 245.21307,80.8996537 C244.149308,82.0051707 242.790943,82.5564746 241.139426,82.5564746 C239.485007,82.5564746 238.145508,82.0226263 237.123832,80.9578388 C236.099253,79.8930513 235.588415,78.5315197 235.588415,76.8732441 L235.588415,26.2129248 C235.588415,24.6361083 236.11957,23.2949416 237.181881,22.1894245 C238.245644,21.0853621 239.563374,20.5326035 241.139426,20.5326035 C242.790943,20.5326035 244.149308,21.0853621 245.21307,22.1894245 C246.275382,23.2949416 246.806537,24.6361083 246.806537,26.2129248 L246.806537,32.2510844 C248.537872,28.3846839 251.135601,25.247052 254.601173,22.8396431 C258.063844,20.4351435 262.001071,19.1914368 266.409953,19.1114323 C268.457659,19.1114323 270.228178,19.6452806 271.724412,20.7086135" id="Fill-7" fill="#FFFFFF"></path>
            <path d="M299.07486,80.8877923 C297.970463,81.9283963 296.633866,82.4473291 295.059265,82.4473291 C293.483214,82.4473291 292.166934,81.9283963 291.104623,80.8877923 C290.040861,79.8471883 289.509705,78.5847713 289.509705,77.0978029 L289.509705,5.34678768 C289.509705,3.86118854 290.059727,2.60014079 291.162673,1.55816757 C292.265619,0.518932786 293.602216,0 295.176816,0 C296.751417,0 298.07205,0.518932786 299.134361,1.55816757 C300.196672,2.60014079 300.727828,3.86118854 300.727828,5.34678768 L300.727828,77.0978029 C300.727828,78.5847713 300.176355,79.8471883 299.07486,80.8877923" id="Fill-9" fill="#FFFFFF"></path>
            <g id="Group-13" transform="translate(322.176359, 19.580792)">
                <mask id="mask-2" fill="white">
                    <use xlink:href="#path-1"></use>
                </mask>
                <g id="Clip-12"></g>
                <path d="M50.6504773,2.01572611 C51.7127885,3.1226978 52.2453954,4.46386455 52.2453954,6.04213562 L52.2453954,57.175209 C52.2453954,67.0390395 49.5301163,74.4154567 44.0966555,79.3102789 C38.664646,84.2021919 31.4998502,86.6488757 22.6051704,86.6488757 C19.6910707,86.6488757 16.8176059,86.3710419 13.9818735,85.8197379 C11.1490435,85.2655248 8.82705173,84.5178461 7.01589814,83.5694289 C4.10179847,82.2297167 2.64765112,80.4143414 2.64765112,78.1247573 C2.64765112,77.7305532 2.7245671,77.2170696 2.88275279,76.5872158 C3.35440737,75.2445945 4.02198,74.2205366 4.88982443,73.5092236 C5.75476636,72.7993653 6.73871038,72.4444361 7.84310771,72.4444361 C8.47294798,72.4444361 9.06360464,72.562261 9.61362644,72.7993653 C12.053169,73.9034277 14.2184264,74.7718405 16.1093984,75.4031489 C17.9989192,76.0344573 20.2019089,76.3515662 22.7227212,76.3515662 C34.9233368,76.3515662 41.0258214,70.0763022 41.0258214,57.5301382 L41.0258214,55.1634589 C38.9011989,58.0028922 36.1656024,60.2139263 32.8190317,61.7921974 C29.4710098,63.3690138 25.6339184,64.1603313 21.304855,64.1603313 C14.7684482,64.1603313 9.67312748,62.0685766 6.0116367,57.8850673 C2.35159717,53.7030127 0.520126157,48.2205208 0.520126157,41.4332279 L0.520126157,6.04213562 C0.520126157,4.38386003 1.03241559,3.02232849 2.05699446,1.957541 C3.07867084,0.892753515 4.41816985,0.358905145 6.07113774,0.358905145 C7.72410563,0.358905145 9.08247082,0.911663676 10.1462333,2.01572611 C11.2070933,3.1226978 11.7397002,4.46386455 11.7397002,6.04213562 L11.7397002,38.4730605 C11.7397002,43.6820823 12.8803786,47.528118 15.164638,50.0140768 C17.4459949,52.5000355 20.9101164,53.7422876 25.5555512,53.7422876 C30.0442516,53.7422876 33.7434747,52.322571 36.6561231,49.481683 C39.5687716,46.6407951 41.0258214,42.9707694 41.0258214,38.4730605 L41.0258214,6.04213562 C41.0258214,4.38386003 41.5381108,3.02232849 42.5626897,1.957541 C43.5843661,0.892753515 44.9238651,0.358905145 46.5753817,0.358905145 C48.2298009,0.358905145 49.5881661,0.911663676 50.6504773,2.01572611" id="Fill-11" fill="#FFFFFF" mask="url(#mask-2)"></path>
            </g>
            <path d="M115.373966,57.0629602 L115.373966,57.0629602 C113.378505,57.0629602 111.745854,55.4265041 111.745854,53.426391 L111.745854,43.243997 C111.745854,41.2438839 113.378505,39.6074277 115.373966,39.6074277 C117.369428,39.6074277 119.002078,41.2438839 119.002078,43.243997 L119.002078,53.426391 C119.002078,55.4265041 117.369428,57.0629602 115.373966,57.0629602" id="Fill-14" fill="#F6A600"></path>
            <path d="M122.226309,60.3245265 L122.226309,60.3245265 C120.814248,61.7398793 118.506769,61.7398793 117.094707,60.3245265 L112.803376,56.024647 C111.392766,54.6092942 111.392766,52.2949815 112.803376,50.8810834 C114.213986,49.4671852 116.522917,49.4671852 117.934978,50.8810834 L122.226309,55.1824175 C123.636919,56.5963157 123.636919,58.9106284 122.226309,60.3245265" id="Fill-16" fill="#F6A600"></path>
        </g>
    </g>
</svg>