<svg xmlns="http://www.w3.org/2000/svg" xmlns:xlink="http://www.w3.org/1999/xlink" viewBox="0 0 2355.63 2141.57"><defs><style>.cls-1{fill:url(#Degradado_sin_nombre_346);}.cls-2{fill:url(#Degradado_sin_nombre_346-2);}.cls-3{fill:url(#Degradado_sin_nombre_346-3);}.cls-4{fill:url(#Degradado_sin_nombre_346-4);}.cls-5{fill:url(#Degradado_sin_nombre_346-5);}.cls-6{fill:url(#Degradado_sin_nombre_346-6);}.cls-7{fill:url(#Degradado_sin_nombre_346-7);}.cls-8{fill:url(#Degradado_sin_nombre_346-8);}.cls-9{fill:url(#Degradado_sin_nombre_346-9);}.cls-10{isolation:isolate;}.cls-11{clip-path:url(#clip-path);}.cls-12{fill:#373852;opacity:0.2;mix-blend-mode:multiply;}.cls-13{clip-path:url(#clip-path-2);}.cls-14{clip-path:url(#clip-path-3);}.cls-15{clip-path:url(#clip-path-4);}.cls-16{clip-path:url(#clip-path-5);}.cls-17{clip-path:url(#clip-path-6);}.cls-18{clip-path:url(#clip-path-7);}.cls-19{clip-path:url(#clip-path-8);}.cls-20{clip-path:url(#clip-path-9);}.cls-21{fill:none;opacity:0;}</style><linearGradient id="Degradado_sin_nombre_346" x1="1527.38" y1="1440.61" x2="1605.66" y2="1321.59" gradientUnits="userSpaceOnUse"><stop offset="0" stop-color="#3e2c46"/><stop offset="1" stop-color="#5d4682"/></linearGradient><linearGradient id="Degradado_sin_nombre_346-2" x1="1559.11" y1="1461.48" x2="1637.39" y2="1342.45" xlink:href="#Degradado_sin_nombre_346"/><linearGradient id="Degradado_sin_nombre_346-3" x1="1606.43" y1="1398.49" x2="1627.99" y2="1398.49" xlink:href="#Degradado_sin_nombre_346"/><linearGradient id="Degradado_sin_nombre_346-4" x1="1431.44" y1="118.14" x2="1509.72" y2="-0.89" xlink:href="#Degradado_sin_nombre_346"/><linearGradient id="Degradado_sin_nombre_346-5" x1="1463.17" y1="139.01" x2="1541.45" y2="19.98" xlink:href="#Degradado_sin_nombre_346"/><linearGradient id="Degradado_sin_nombre_346-6" x1="1510.5" y1="76.02" x2="1532.05" y2="76.02" xlink:href="#Degradado_sin_nombre_346"/><linearGradient id="Degradado_sin_nombre_346-7" x1="-1415.49" y1="-3297.37" x2="-1253.45" y2="-3543.77" gradientTransform="translate(293.76 4228.46) rotate(29.96)" xlink:href="#Degradado_sin_nombre_346"/><linearGradient id="Degradado_sin_nombre_346-8" x1="833.91" y1="663.74" x2="995.95" y2="417.34" xlink:href="#Degradado_sin_nombre_346"/><linearGradient id="Degradado_sin_nombre_346-9" x1="-3201.18" y1="-4866.45" x2="-3156.57" y2="-4866.45" gradientTransform="matrix(0.69, 0.72, -0.72, 0.69, -424.92, 6374.07)" xlink:href="#Degradado_sin_nombre_346"/><clipPath id="clip-path"><path class="cls-1" d="M1536.64,1388.8c4.1,8.73,14.15,12.67,23.27,15.81a23.84,23.84,0,0,0,7.67,1.72,22,22,0,0,0,6.93-1.5,126.66,126.66,0,0,0,12-4.88c3.43-1.61,6.86-3.42,9.41-6.22,4.4-4.84,5.48-11.74,6.38-18.22.36-2.67.71-5.47-.29-8-1.11-2.76-3.66-4.62-5.74-6.75-4.83-5-7.45-11.84-12.68-16.38-8.91-7.76-24.6-5.4-30.84,4.63-1.46,2.35-2.44,5-4.11,7.2-4.22,5.6-8.34,4.51-11.31,12.24C1534.87,1375,1533.58,1382.26,1536.64,1388.8Z"/></clipPath><clipPath id="clip-path-2"><path class="cls-2" d="M1557.82,1432.11a12.26,12.26,0,0,0-2.2,9.35c1.05,4.58,5.35,7.56,9.31,10.09a26.17,26.17,0,0,0,6.55,3.35,8.85,8.85,0,0,0,7.13-.65c1.55-1,2.61-2.56,3.92-3.85,2-2,4.46-3.24,6.67-4.91s4.21-4,4.47-6.7c.24-2.49-1-4.86-1.46-7.32-.2-1.1-.25-2.22-.54-3.29-1.35-5-7.12-7.22-12.12-8.67a5.52,5.52,0,0,0-2.89-.29c-1.72.45-2.53,2.36-3.71,3.7-2.49,2.83-5,1.31-8,2.24C1562.29,1426,1559.33,1429.87,1557.82,1432.11Z"/></clipPath><clipPath id="clip-path-3"><path class="cls-3" d="M1608.7,1394.59a12.21,12.21,0,0,0-2.19,5,9.05,9.05,0,0,0,2.29,7.15,11.69,11.69,0,0,0,6.69,3.6,6.08,6.08,0,0,0,3.17-.12,6.41,6.41,0,0,0,2.51-2c2.91-3.46,4.24-8,5.49-12.3l1.11-3.84a3.51,3.51,0,0,0,.21-1.32,3,3,0,0,0-1.06-1.76C1620.45,1382.91,1612.67,1388.78,1608.7,1394.59Z"/></clipPath><clipPath id="clip-path-4"><path class="cls-4" d="M1440.71,66.33c4.09,8.73,14.14,12.67,23.26,15.81a23.84,23.84,0,0,0,7.67,1.72,22,22,0,0,0,6.93-1.5,127.92,127.92,0,0,0,12-4.88c3.42-1.61,6.85-3.42,9.4-6.22,4.4-4.84,5.49-11.74,6.38-18.22.36-2.67.71-5.47-.29-8-1.11-2.76-3.65-4.62-5.73-6.75-4.84-5-7.46-11.84-12.68-16.38-8.92-7.76-24.6-5.4-30.84,4.63-1.47,2.35-2.45,5-4.12,7.2-4.22,5.6-8.34,4.51-11.31,12.24C1438.93,52.49,1437.64,59.79,1440.71,66.33Z"/></clipPath><clipPath id="clip-path-5"><path class="cls-5" d="M1461.88,109.63c-1.84,2.74-2.93,6.15-2.19,9.36,1,4.58,5.34,7.56,9.3,10.09a26.34,26.34,0,0,0,6.55,3.35,8.85,8.85,0,0,0,7.13-.65c1.56-1,2.62-2.56,3.92-3.85,2-2,4.47-3.24,6.67-4.91s4.22-4,4.47-6.7c.24-2.49-1-4.86-1.45-7.33-.21-1.09-.25-2.21-.54-3.28-1.35-5-7.13-7.22-12.13-8.67a5.49,5.49,0,0,0-2.88-.29c-1.73.45-2.54,2.36-3.71,3.69-2.5,2.84-5,1.32-8,2.25C1466.36,103.54,1463.4,107.4,1461.88,109.63Z"/></clipPath><clipPath id="clip-path-6"><path class="cls-6" d="M1512.76,72.12a12.21,12.21,0,0,0-2.19,5,9.09,9.09,0,0,0,2.29,7.15,11.77,11.77,0,0,0,6.7,3.6,6.08,6.08,0,0,0,3.17-.12,6.38,6.38,0,0,0,2.5-2c2.92-3.46,4.24-7.95,5.5-12.3l1.11-3.85a3.63,3.63,0,0,0,.2-1.31A3,3,0,0,0,1531,66.6C1524.51,60.44,1516.73,66.31,1512.76,72.12Z"/></clipPath><clipPath id="clip-path-7"><path class="cls-7" d="M742.15,610.7c-6.14,3-11.62,8-13.62,14.51-2.86,9.3,1.77,19.08,6.26,27.71,2.36,4.52,4.76,9.1,8.28,12.78s8.38,6.41,13.48,6.21c3.79-.16,7.32-1.89,11-2.86,5.53-1.46,11.36-1.19,17-1.91s11.63-2.72,14.94-7.38c3-4.23,3.24-9.76,5-14.65.77-2.17,1.84-4.23,2.43-6.45,2.78-10.42-5.31-20.32-12.79-28.08-1.41-1.46-2.91-3-4.86-3.51-3.56-1-7,1.61-10.48,2.79-7.41,2.5-10.36-2.83-16.61-4.21C756.47,604.4,747.18,608.25,742.15,610.7Z"/></clipPath><clipPath id="clip-path-8"><path class="cls-8" d="M832.14,634.31a5.95,5.95,0,0,0,1,7.26,68.26,68.26,0,0,0,10,10.2c3.41,2.91,7.38,5.77,11.85,5.62,5.36-.18,9.75-4.89,11.11-10.07s.28-10.69-1.3-15.81a17,17,0,0,0-2-4.67c-2.54-3.75-7.3-5.16-11.68-6.32C840.58,617.74,835.91,625.11,832.14,634.31Z"/></clipPath><clipPath id="clip-path-9"><path class="cls-9" d="M862.33,688.85a25.32,25.32,0,0,0-10.66,4,18.7,18.7,0,0,0-7.35,13.68,24.22,24.22,0,0,0,4.26,15.15,12.51,12.51,0,0,0,4.74,4.54,13.13,13.13,0,0,0,6.52.91c9.35-.63,17.95-5.11,26.23-9.5l7.32-3.88a7.18,7.18,0,0,0,2.25-1.59,6.21,6.21,0,0,0,1.11-4.1C896.63,689.55,876.69,686.41,862.33,688.85Z"/></clipPath></defs><title>Landing 1.0 layout</title><g class="cls-10"><g id="Layer_1" data-name="Layer 1"><path class="cls-1" d="M1536.64,1388.8c4.1,8.73,14.15,12.67,23.27,15.81a23.84,23.84,0,0,0,7.67,1.72,22,22,0,0,0,6.93-1.5,126.66,126.66,0,0,0,12-4.88c3.43-1.61,6.86-3.42,9.41-6.22,4.4-4.84,5.48-11.74,6.38-18.22.36-2.67.71-5.47-.29-8-1.11-2.76-3.66-4.62-5.74-6.75-4.83-5-7.45-11.84-12.68-16.38-8.91-7.76-24.6-5.4-30.84,4.63-1.46,2.35-2.44,5-4.11,7.2-4.22,5.6-8.34,4.51-11.31,12.24C1534.87,1375,1533.58,1382.26,1536.64,1388.8Z"/><g class="cls-11"><path class="cls-12" d="M1541.58,1349.35a19.45,19.45,0,0,1,.6,10.7,80.94,80.94,0,0,1-3.13,10.38,3.61,3.61,0,0,0,2.08,5.26l4.75,2.89a12.6,12.6,0,0,0,3.61,1.67c2.51.55,5-.53,7.46-1.44s5.16-1.68,7.47-.55c4,1.93,4.23,8.15,8.17,10.19a8.13,8.13,0,0,0,3.45.77c4,.13,7.86-1.11,11.83-1.13a2.13,2.13,0,0,1,1.22.26,2.21,2.21,0,0,1,.71,1.27q2.21,7.77,3.66,15.73a6.52,6.52,0,0,1-.15,4.08,6.06,6.06,0,0,1-3.11,2.48c-6.62,3-14,4-21.28,4.47-5.89.4-11.87.54-17.64-.72s-11.37-4-15.08-8.63c-2.86-3.54-4.46-8-5.5-12.39a60.62,60.62,0,0,1,3-36.58"/><path class="cls-12" d="M1547.09,1346.84c1.69,4.34,1,9.18.72,13.83a5.78,5.78,0,0,0,.25,2.52c.74,1.76,2.88,2.37,4.74,2.76l6.93,1.47a2.5,2.5,0,0,0,3.56-1.69c.76-1.71,1.53-3.42,2.29-5.12a3.1,3.1,0,0,0,.38-1.5c-.08-.91-.91-1.54-1.59-2.16-2.84-2.59-3.75-6.62-5.65-10a5.21,5.21,0,0,0-2-2.15c-2.22-1.16-4.79.71-7.29.87"/><path class="cls-12" d="M1574,1361.18a41,41,0,0,0,9,3l1.19-6.5c.41-2.23.76-4.72-.53-6.57-1.46-2.07-4.47-2.68-6.68-3.62s-4.55-1.44-6.3.55C1567.27,1352,1569.78,1359.2,1574,1361.18Z"/><path class="cls-12" d="M1576.38,1371.41a1.94,1.94,0,0,0,1.57-.39,2,2,0,0,0,.38-.57,3.14,3.14,0,0,0-1.64-4c-1.32-.59-4.27-.27-4.42,1.61C1572.13,1369.76,1575,1371.26,1576.38,1371.41Z"/><path class="cls-12" d="M1594.34,1359.71c-1.47,2.32-3.32,4.38-4.85,6.67a28,28,0,0,0-2.57,4.8,3.14,3.14,0,0,0-.31,1.2,3.87,3.87,0,0,0,1,2.17,41,41,0,0,1,3.31,6.25,14.91,14.91,0,0,0,4.19,5.62,6.41,6.41,0,0,0,6.65.85,8.87,8.87,0,0,0,2.35-2.06,13.26,13.26,0,0,0,2.35-3.37,14.75,14.75,0,0,0,.93-5q.39-6,.47-12c0-2.54,0-5.21-1.22-7.44s-5.31-5.85-8-5.64c-1.45.12-1.77,1.38-2.14,2.58A20.25,20.25,0,0,1,1594.34,1359.71Z"/><path class="cls-12" d="M1573.87,1380c-.8.59-1.71,1.48-1.37,2.42.23.64,1,.93,1.6,1.14a37.61,37.61,0,0,0,7.11,1.56,3.62,3.62,0,0,0,2.56-.36,3.45,3.45,0,0,0,1.12-1.9,16.93,16.93,0,0,0,.7-5.1,1.19,1.19,0,0,0-.18-.74,1.22,1.22,0,0,0-.62-.34C1580.14,1375.31,1577.45,1377.39,1573.87,1380Z"/><path class="cls-12" d="M1589.23,1405c-4.67-4.25-12-3.34-17.73-6-4.8-2.28-8.08-7-12.77-9.46a10,10,0,0,0-5.06-1.32,17.29,17.29,0,0,0-5,1.43,37.84,37.84,0,0,1-8.52,2.06c-2.86.36-6,.31-8.33-1.42-.78-.58-1.72-1.39-2.59-.94a19.15,19.15,0,0,0,4.14,10.71,23.63,23.63,0,0,0,10.23,7,49.77,49.77,0,0,0,12.27,2.59c10,1,20.41.69,29.83-2.92"/></g><path class="cls-2" d="M1557.82,1432.11a12.26,12.26,0,0,0-2.2,9.35c1.05,4.58,5.35,7.56,9.31,10.09a26.17,26.17,0,0,0,6.55,3.35,8.85,8.85,0,0,0,7.13-.65c1.55-1,2.61-2.56,3.92-3.85,2-2,4.46-3.24,6.67-4.91s4.21-4,4.47-6.7c.24-2.49-1-4.86-1.46-7.32-.2-1.1-.25-2.22-.54-3.29-1.35-5-7.12-7.22-12.12-8.67a5.52,5.52,0,0,0-2.89-.29c-1.72.45-2.53,2.36-3.71,3.7-2.49,2.83-5,1.31-8,2.24C1562.29,1426,1559.33,1429.87,1557.82,1432.11Z"/><g class="cls-13"><path class="cls-12" d="M1564.08,1416.44l-3.47,11.54a13.26,13.26,0,0,0-.83,5.72c.54,3.46,3.63,5.86,6.49,7.89a4.11,4.11,0,0,0,1.87.89c1.58.16,2.74-1.49,3.15-3s.52-3.26,1.58-4.44a3.38,3.38,0,0,1,5.65,3.51c-.7,1.76-2.83,3.59-1.62,5a2.17,2.17,0,0,0,.95.61c2.86,1.06,6-1.47,6.81-4.42s-.11-6-1-9l10.25-11.56q3.48,9.49,6.49,19.15a13,13,0,0,1,.85,5.79c-.59,3.66-4,6.07-7.28,7.88a112.27,112.27,0,0,1-26.53,10.65c-2.83.73-6,1.33-8.58,0a12.28,12.28,0,0,1-3.92-3.81,28.32,28.32,0,0,1-4.75-8.33c-1.62-5.26-.32-11,1.85-16s5.2-9.71,7.25-14.81"/><path class="cls-12" d="M1572.67,1428.69a1,1,0,0,0-.4.69c0,.28.24.49.45.66,1.24,1,3,2.07,4.3,1.17a4,4,0,0,0,1.13-1.53c1.57-3,3.76-5.27,5.77-7.93,1.32-1.76,2.36-2.1-.09-2.93C1578.73,1417.11,1575.39,1426.05,1572.67,1428.69Z"/></g><path class="cls-3" d="M1608.7,1394.59a12.21,12.21,0,0,0-2.19,5,9.05,9.05,0,0,0,2.29,7.15,11.69,11.69,0,0,0,6.69,3.6,6.08,6.08,0,0,0,3.17-.12,6.41,6.41,0,0,0,2.51-2c2.91-3.46,4.24-8,5.49-12.3l1.11-3.84a3.51,3.51,0,0,0,.21-1.32,3,3,0,0,0-1.06-1.76C1620.45,1382.91,1612.67,1388.78,1608.7,1394.59Z"/><g class="cls-14"><path class="cls-12" d="M1615.5,1381.07a11.38,11.38,0,0,0-4.09,6.06,7.82,7.82,0,0,0,1.55,7c.78.88,1.86,1.66,2,2.82a7.1,7.1,0,0,1-6.65,1.11c-1.12-1.44-1-3.45-.84-5.27a18.15,18.15,0,0,1,4.49-9.4,21.82,21.82,0,0,0-5.31,9.49c-.79,3-.89,6.28.64,8.94s5.08,4.27,7.83,2.91c1.45-.71,2.49-2.1,4-2.74.62-.26,1.39-.47,1.6-1.11a1.61,1.61,0,0,0-.06-1,7.06,7.06,0,0,0-2.4-3.58c-.44-.34-1-.7-1-1.25-.07-.7.64-1.2,1.27-1.52a33.69,33.69,0,0,1,8.79-3,3,3,0,0,1,1.66,0,2.72,2.72,0,0,1,1.15,1,10.77,10.77,0,0,1,1.85,7.5,23,23,0,0,1-2.35,7.52,13,13,0,0,1-3.87,5.26,11.83,11.83,0,0,1-6.63,1.78c-5.29.16-10.51-1.06-15.66-2.27a1.46,1.46,0,0,1-.81-.38,1.51,1.51,0,0,1-.24-1.07,43.28,43.28,0,0,1,5.77-19.47"/></g><path class="cls-4" d="M1440.71,66.33c4.09,8.73,14.14,12.67,23.26,15.81a23.84,23.84,0,0,0,7.67,1.72,22,22,0,0,0,6.93-1.5,127.92,127.92,0,0,0,12-4.88c3.42-1.61,6.85-3.42,9.4-6.22,4.4-4.84,5.49-11.74,6.38-18.22.36-2.67.71-5.47-.29-8-1.11-2.76-3.65-4.62-5.73-6.75-4.84-5-7.46-11.84-12.68-16.38-8.92-7.76-24.6-5.4-30.84,4.63-1.47,2.35-2.45,5-4.12,7.2-4.22,5.6-8.34,4.51-11.31,12.24C1438.93,52.49,1437.64,59.79,1440.71,66.33Z"/><g class="cls-15"><path class="cls-12" d="M1445.64,26.88a19.26,19.26,0,0,1,.6,10.7A80.94,80.94,0,0,1,1443.11,48a4.79,4.79,0,0,0-.33,2.85,4.87,4.87,0,0,0,2.41,2.41L1450,56.1a12.19,12.19,0,0,0,3.6,1.68c2.51.55,5.06-.53,7.46-1.44s5.16-1.68,7.48-.55c4,1.93,4.23,8.15,8.16,10.19a8,8,0,0,0,3.45.76c4,.14,7.86-1.1,11.83-1.12a2.11,2.11,0,0,1,1.22.26,2.18,2.18,0,0,1,.71,1.27q2.22,7.77,3.66,15.72a6.55,6.55,0,0,1-.15,4.09,6.06,6.06,0,0,1-3.11,2.48c-6.62,3-14,4-21.28,4.47-5.89.4-11.87.54-17.64-.72s-11.36-4-15.08-8.63a30.42,30.42,0,0,1-5.49-12.39,60.47,60.47,0,0,1,3-36.58"/><path class="cls-12" d="M1451.15,24.37c1.69,4.34,1,9.18.73,13.83a5.64,5.64,0,0,0,.25,2.52c.73,1.76,2.87,2.37,4.73,2.76L1463.8,45a3.33,3.33,0,0,0,2.43-.11,3.3,3.3,0,0,0,1.12-1.58l2.29-5.13a3.15,3.15,0,0,0,.39-1.49c-.08-.91-.92-1.54-1.6-2.16-2.84-2.59-3.75-6.62-5.65-10a5.12,5.12,0,0,0-1.94-2.15c-2.22-1.16-4.79.71-7.29.87"/><path class="cls-12" d="M1478.07,38.71a41,41,0,0,0,9,3l1.19-6.5c.41-2.23.76-4.72-.53-6.57-1.46-2.07-4.47-2.68-6.68-3.62s-4.55-1.44-6.3.55C1471.33,29.48,1473.85,36.73,1478.07,38.71Z"/><path class="cls-12" d="M1480.44,48.94a2,2,0,0,0,1.57-.39,1.84,1.84,0,0,0,.38-.57,3.14,3.14,0,0,0-1.64-4c-1.32-.59-4.26-.27-4.42,1.61C1476.19,47.29,1479.09,48.79,1480.44,48.94Z"/><path class="cls-12" d="M1498.4,37.24c-1.47,2.32-3.32,4.38-4.85,6.67a28.68,28.68,0,0,0-2.56,4.8,3.15,3.15,0,0,0-.32,1.2,3.87,3.87,0,0,0,1,2.17,41,41,0,0,1,3.31,6.25,15,15,0,0,0,4.19,5.62,6.41,6.41,0,0,0,6.65.85,8.87,8.87,0,0,0,2.35-2.06,13,13,0,0,0,2.35-3.37,14.75,14.75,0,0,0,.93-5q.39-6,.47-12c0-2.54,0-5.21-1.22-7.44s-5.31-5.85-8-5.64c-1.46.11-1.78,1.38-2.15,2.58A20.25,20.25,0,0,1,1498.4,37.24Z"/><path class="cls-12" d="M1477.94,57.51c-.81.59-1.72,1.48-1.38,2.42a2.3,2.3,0,0,0,1.6,1.14,37.61,37.61,0,0,0,7.11,1.56,3.61,3.61,0,0,0,2.56-.36,3.39,3.39,0,0,0,1.12-1.9,17,17,0,0,0,.7-5.11,1.22,1.22,0,0,0-.17-.73,1.26,1.26,0,0,0-.62-.34C1484.2,52.84,1481.51,54.92,1477.94,57.51Z"/><path class="cls-12" d="M1493.29,82.54c-4.67-4.25-12-3.34-17.73-6-4.8-2.28-8.08-7-12.77-9.46a9.91,9.91,0,0,0-5.06-1.32,17.47,17.47,0,0,0-5,1.43,37.71,37.71,0,0,1-8.52,2.06c-2.86.36-6,.31-8.32-1.42-.79-.58-1.73-1.39-2.6-.94a19.29,19.29,0,0,0,4.14,10.71,23.6,23.6,0,0,0,10.24,7,49.6,49.6,0,0,0,12.26,2.59c10,1,20.42.69,29.83-2.92"/></g><path class="cls-5" d="M1461.88,109.63c-1.84,2.74-2.93,6.15-2.19,9.36,1,4.58,5.34,7.56,9.3,10.09a26.34,26.34,0,0,0,6.55,3.35,8.85,8.85,0,0,0,7.13-.65c1.56-1,2.62-2.56,3.92-3.85,2-2,4.47-3.24,6.67-4.91s4.22-4,4.47-6.7c.24-2.49-1-4.86-1.45-7.33-.21-1.09-.25-2.21-.54-3.28-1.35-5-7.13-7.22-12.13-8.67a5.49,5.49,0,0,0-2.88-.29c-1.73.45-2.54,2.36-3.71,3.69-2.5,2.84-5,1.32-8,2.25C1466.36,103.54,1463.4,107.4,1461.88,109.63Z"/><g class="cls-16"><path class="cls-12" d="M1468.14,94q-1.73,5.77-3.47,11.54a13.25,13.25,0,0,0-.82,5.72c.53,3.46,3.63,5.86,6.49,7.89a4.07,4.07,0,0,0,1.86.89c1.58.16,2.74-1.49,3.15-3s.52-3.25,1.58-4.43a3.38,3.38,0,0,1,5.66,3.51c-.7,1.76-2.84,3.59-1.63,5a2.23,2.23,0,0,0,1,.61c2.86,1.06,6-1.47,6.81-4.42s-.11-6-1-9L1498,96.77q3.48,9.49,6.49,19.15a12.73,12.73,0,0,1,.85,5.79c-.58,3.66-4,6.07-7.28,7.88a112.27,112.27,0,0,1-26.53,10.65c-2.83.73-6,1.33-8.58,0a12.25,12.25,0,0,1-3.91-3.81,27.88,27.88,0,0,1-4.75-8.33c-1.63-5.26-.33-11,1.85-16.05s5.19-9.71,7.24-14.81"/><path class="cls-12" d="M1476.73,106.21a1.05,1.05,0,0,0-.4.7,1,1,0,0,0,.45.66c1.24,1,3,2.07,4.3,1.17a4,4,0,0,0,1.13-1.53c1.57-3,3.77-5.27,5.77-7.93,1.33-1.76,2.36-2.1-.09-2.93C1482.79,94.64,1479.45,103.58,1476.73,106.21Z"/></g><path class="cls-6" d="M1512.76,72.12a12.21,12.21,0,0,0-2.19,5,9.09,9.09,0,0,0,2.29,7.15,11.77,11.77,0,0,0,6.7,3.6,6.08,6.08,0,0,0,3.17-.12,6.38,6.38,0,0,0,2.5-2c2.92-3.46,4.24-7.95,5.5-12.3l1.11-3.85a3.63,3.63,0,0,0,.2-1.31A3,3,0,0,0,1531,66.6C1524.51,60.44,1516.73,66.31,1512.76,72.12Z"/><g class="cls-17"><path class="cls-12" d="M1519.57,58.6a11.4,11.4,0,0,0-4.1,6.06,7.82,7.82,0,0,0,1.55,7c.79.88,1.86,1.66,2,2.82a7.1,7.1,0,0,1-6.65,1.11c-1.12-1.44-1-3.46-.83-5.27a18.08,18.08,0,0,1,4.49-9.4,21.74,21.74,0,0,0-5.32,9.49c-.79,3-.89,6.28.65,8.93s5.07,4.28,7.82,2.92c1.45-.71,2.49-2.1,4-2.74.61-.26,1.38-.47,1.59-1.11a1.61,1.61,0,0,0,0-1,7.08,7.08,0,0,0-2.41-3.58c-.43-.34-1-.7-1-1.25-.08-.7.63-1.2,1.26-1.52a33.82,33.82,0,0,1,8.79-3,3,3,0,0,1,1.66,0,2.72,2.72,0,0,1,1.15,1,10.72,10.72,0,0,1,1.85,7.5,22.8,22.8,0,0,1-2.35,7.52,12.91,12.91,0,0,1-3.87,5.26,11.79,11.79,0,0,1-6.62,1.78c-5.3.15-10.52-1.06-15.67-2.27a1.12,1.12,0,0,1-1-1.45,43,43,0,0,1,5.77-19.47"/></g><path class="cls-7" d="M742.15,610.7c-6.14,3-11.62,8-13.62,14.51-2.86,9.3,1.77,19.08,6.26,27.71,2.36,4.52,4.76,9.1,8.28,12.78s8.38,6.41,13.48,6.21c3.79-.16,7.32-1.89,11-2.86,5.53-1.46,11.36-1.19,17-1.91s11.63-2.72,14.94-7.38c3-4.23,3.24-9.76,5-14.65.77-2.17,1.84-4.23,2.43-6.45,2.78-10.42-5.31-20.32-12.79-28.08-1.41-1.46-2.91-3-4.86-3.51-3.56-1-7,1.61-10.48,2.79-7.41,2.5-10.36-2.83-16.61-4.21C756.47,604.4,747.18,608.25,742.15,610.7Z"/><g class="cls-18"><path class="cls-12" d="M769.56,589.08q-9.07,8.55-18.14,17.11c-2.93,2.76-5.94,5.65-7.4,9.39-2.63,6.77.45,14.28,3.48,20.87a8.4,8.4,0,0,0,2.42,3.52c2.67,1.92,6.46.16,8.79-2.16s4.29-5.31,7.41-6.33a7,7,0,0,1,6.51,12.16c-3.07,2.42-8.79,3.5-8.12,7.37a4.51,4.51,0,0,0,1.06,2.07c4,4.86,12.34,3.6,16.79-.88s6-11,7.47-17.14l30.32-10.13q-3.57,20.61-8.15,41c-.9,4-1.89,8.11-4.46,11.28-4.84,6-13.53,6.71-21.2,6.6a232.18,232.18,0,0,1-58.6-8.33c-5.84-1.61-12.09-3.8-15.37-8.9-2.06-3.2-2.63-7.11-3.08-10.89-.8-6.6-1.38-13.36.09-19.85,2.52-11.1,10.79-20,19.91-26.86s19.36-12,28.31-19.09"/><path class="cls-12" d="M772.32,619.92a1.56,1.56,0,0,0-1.32,2.49c1.16,3.1,3.2,6.79,6.5,6.53a8.17,8.17,0,0,0,3.61-1.58c5.94-3.77,12.2-5.55,18.56-8.25,4.18-1.78,6.39-1.32,2.85-5.34C795.15,605.42,779.92,618,772.32,619.92Z"/></g><path class="cls-8" d="M832.14,634.31a5.95,5.95,0,0,0,1,7.26,68.26,68.26,0,0,0,10,10.2c3.41,2.91,7.38,5.77,11.85,5.62,5.36-.18,9.75-4.89,11.11-10.07s.28-10.69-1.3-15.81a17,17,0,0,0-2-4.67c-2.54-3.75-7.3-5.16-11.68-6.32C840.58,617.74,835.91,625.11,832.14,634.31Z"/><g class="cls-19"><path class="cls-12" d="M843.28,596.68a60.17,60.17,0,0,0-7.13,18.91,21.67,21.67,0,0,0-.1,10c1,3.53,3.36,6.47,5.69,9.3s5,6,8.71,6.62c7.12,1.28,12.5-7,19.64-8.14a4.31,4.31,0,0,1,2.9.34,5,5,0,0,1,1.66,2A29.7,29.7,0,0,1,878.09,651a8.39,8.39,0,0,1-1.27,4.65,9.29,9.29,0,0,1-4,2.69,91.76,91.76,0,0,1-15.16,4.89c-3.32.75-6.8,1.32-10.08.42a17.42,17.42,0,0,1-8-5.37A34.34,34.34,0,0,1,834.13,621"/></g><path class="cls-9" d="M862.33,688.85a25.32,25.32,0,0,0-10.66,4,18.7,18.7,0,0,0-7.35,13.68,24.22,24.22,0,0,0,4.26,15.15,12.51,12.51,0,0,0,4.74,4.54,13.13,13.13,0,0,0,6.52.91c9.35-.63,17.95-5.11,26.23-9.5l7.32-3.88a7.18,7.18,0,0,0,2.25-1.59,6.21,6.21,0,0,0,1.11-4.1C896.63,689.55,876.69,686.41,862.33,688.85Z"/><g class="cls-20"><path class="cls-12" d="M892.24,679.55a23.43,23.43,0,0,0-14.9,2.6,16.18,16.18,0,0,0-8.17,12.35c-.18,2.43.2,5.15-1.3,7.06a14.67,14.67,0,0,1-11.2-8.3c.51-3.75,3.68-6.47,6.64-8.83,4.87-3.89,14.22-6.94,20.45-6.83A45.52,45.52,0,0,0,862,683.32c-5.54,3.1-10.63,7.72-12.38,13.82s.94,13.7,6.91,15.85c3.15,1.13,6.72.68,9.79,2,1.28.54,2.7,1.38,4,.78a3.41,3.41,0,0,0,1.38-1.48,14.73,14.73,0,0,0,1.87-8.73c-.12-1.14-.32-2.42.41-3.29.94-1.11,2.71-.77,4.08-.3a69.73,69.73,0,0,1,17.1,8.79,6.51,6.51,0,0,1,2.39,2.47,5.6,5.6,0,0,1,.19,3.12c-.84,5.39-4.24,10.15-8.52,13.55s-9.4,5.56-14.57,7.3c-4.32,1.46-8.92,2.66-13.4,1.81-4.73-.89-8.75-4-12.18-7.31-7.84-7.66-13.53-17.19-19.14-26.6a3.12,3.12,0,0,1-.61-1.75,3,3,0,0,1,1.27-1.89A89.3,89.3,0,0,1,867.8,682"/></g><rect class="cls-21" x="944.66" y="2081.73" width="81.6" height="59.84"/></g></g></svg>