<?xml version="1.0" encoding="utf-8"?>
<!-- Generator: Adobe Illustrator 24.0.1, SVG Export Plug-In . SVG Version: 6.00 Build 0)  -->
<svg version="1.1" id="Layer_1" xmlns="http://www.w3.org/2000/svg" xmlns:xlink="http://www.w3.org/1999/xlink" x="0px" y="0px"
	 viewBox="0 0 1680 2099" style="enable-background:new 0 0 1680 2099;" xml:space="preserve">
<style type="text/css">
	.st0{fill:url(#SVGID_1_);}
	.st1{opacity:0.2;fill:url(#SVGID_2_);enable-background:new    ;}
	.st2{opacity:0.6;}
	.st3{fill:#FFFFFF;}
	.st4{clip-path:url(#SVGID_4_);}
	.st5{opacity:0.2;fill:#373852;enable-background:new    ;}
	.st6{fill:url(#SVGID_5_);}
	.st7{opacity:0.2;fill:url(#SVGID_6_);enable-background:new    ;}
	.st8{clip-path:url(#SVGID_8_);}
</style>
<title>Landing 1.0 layout</title>
<linearGradient id="SVGID_1_" gradientUnits="userSpaceOnUse" x1="840" y1="1050" x2="840" y2="2100" gradientTransform="matrix(1 0 0 -1 0 2100)">
	<stop  offset="0" style="stop-color:#4C009F"/>
	<stop  offset="0.99" style="stop-color:#19002A"/>
</linearGradient>
<rect class="st0" width="1680" height="1050"/>
<linearGradient id="SVGID_2_" gradientUnits="userSpaceOnUse" x1="4105.7393" y1="-1490.7291" x2="2429.5894" y2="-3121.4094" gradientTransform="matrix(6.123234e-17 -1 -1 -6.123234e-17 -1317.01 3945.8799)">
	<stop  offset="0" style="stop-color:#BF126A"/>
	<stop  offset="1" style="stop-color:#1515B8"/>
</linearGradient>
<rect class="st1" width="1680" height="1050"/>
<g class="st2">
	<path class="st3" d="M1187.3,386.5c2.8,0,5,2.2,5,5s-2.2,5-5,5s-5-2.2-5-5S1184.5,386.5,1187.3,386.5z"/>
	<path class="st3" d="M85.9,872.2c2.8,0,5,2.2,5,5s-2.2,5-5,5s-5-2.2-5-5S83.1,872.2,85.9,872.2z"/>
	<path class="st3" d="M1154.3,202.5c2.8,0,5,2.2,5,5s-2.2,5-5,5s-5-2.2-5-5S1151.5,202.5,1154.3,202.5z"/>
	<path class="st3" d="M143.8,62.5c2.8,0,5,2.2,5,5s-2.2,5-5,5s-5-2.2-5-5S141.1,62.5,143.8,62.5z"/>
	<path class="st3" d="M25.3,619.8c2.8,0,5,2.2,5,5s-2.2,5-5,5s-5-2.2-5-5S22.6,619.8,25.3,619.8z"/>
	<path class="st3" d="M1560.8,951.7c2.8,0,5,2.2,5,5s-2.2,5-5,5s-5-2.2-5-5S1558.1,951.7,1560.8,951.7z"/>
	<path class="st3" d="M1050.3,516.6c0.6,0,1,0.4,1,1s-0.4,1-1,1s-1-0.4-1-1S1049.7,516.6,1050.3,516.6z"/>
	<path class="st3" d="M1476.7,84.3c0.6,0,1,0.4,1,1s-0.4,1-1,1s-1-0.4-1-1S1476.1,84.3,1476.7,84.3z"/>
	<path class="st3" d="M441.2,737.3c0.6,0,1,0.4,1,1s-0.4,1-1,1s-1-0.4-1-1S440.7,737.3,441.2,737.3z"/>
	<path class="st3" d="M1451.7,858.4c0.6,0,1,0.4,1,1s-0.4,1-1,1s-1-0.4-1-1S1451.1,858.4,1451.7,858.4z"/>
	<path class="st3" d="M1100.3,326.1c0.6,0,1,0.4,1,1s-0.4,1-1,1s-1-0.4-1-1S1099.8,326.1,1100.3,326.1z"/>
	<circle class="st3" cx="982.5" cy="531.5" r="1"/>
	<path class="st3" d="M1614.8,937.9c0.6,0,1,0.4,1,1s-0.4,1-1,1s-1-0.4-1-1S1614.3,937.9,1614.8,937.9z"/>
	<circle class="st3" cx="1125.3" cy="99.1" r="1"/>
	<circle class="st3" cx="571.5" cy="35.9" r="1"/>
	<path class="st3" d="M345.8,48.7c0.6,0,1,0.4,1,1s-0.4,1-1,1s-1-0.4-1-1S345.3,48.7,345.8,48.7z"/>
	<path class="st3" d="M240.6,254.4c0.6,0,1,0.4,1,1s-0.4,1-1,1s-1-0.4-1-1S240.1,254.4,240.6,254.4z"/>
	<path class="st3" d="M1293.8,128.3c0.6,0,1,0.4,1,1s-0.4,1-1,1s-1-0.4-1-1S1293.3,128.3,1293.8,128.3z"/>
	<path class="st3" d="M265.6,188.7c0.6,0,1,0.4,1,1s-0.4,1-1,1s-1-0.4-1-1S265.1,188.7,265.6,188.7z"/>
	<circle class="st3" cx="466.2" cy="593.2" r="1"/>
	<path class="st3" d="M491.2,224.2c0.6,0,1,0.4,1,1s-0.4,1-1,1s-1-0.4-1-1S490.7,224.2,491.2,224.2z"/>
	<path class="st3" d="M781.9,782.8c0.6,0,1,0.4,1,1s-0.4,1-1,1s-1-0.4-1-1S781.3,782.8,781.9,782.8z"/>
	<path class="st3" d="M114.8,606c0.6,0,1,0.5,1,1c0,0.6-0.5,1-1,1s-1-0.5-1-1C113.8,606.5,114.3,606,114.8,606z"/>
	<path class="st3" d="M596.5,893.9c0.6,0,1,0.4,1,1s-0.4,1-1,1s-1-0.4-1-1S595.9,893.9,596.5,893.9z"/>
	<path class="st3" d="M756.8,456.2c0.6,0,1,0.4,1,1s-0.4,1-1,1s-1-0.4-1-1S756.3,456.2,756.8,456.2z"/>
	<circle class="st3" cx="731.8" cy="814" r="1"/>
	<path class="st3" d="M834.5,907.7c0.6,0,1,0.4,1,1s-0.4,1-1,1s-1-0.4-1-1S833.9,907.7,834.5,907.7z"/>
	<circle class="st3" cx="929.9" cy="1022.5" r="1"/>
	<path class="st3" d="M1426.7,174.9c0.6,0,1,0.4,1,1s-0.4,1-1,1s-1-0.4-1-1S1426.1,174.9,1426.7,174.9z"/>
	<path class="st3" d="M1589.8,282.1c0.6,0,1,0.4,1,1s-0.4,1-1,1s-1-0.4-1-1S1589.3,282.1,1589.8,282.1z"/>
	<path class="st3" d="M1241.2,312.3c0.6,0,1,0.4,1,1s-0.4,1-1,1s-1-0.4-1-1S1240.7,312.3,1241.2,312.3z"/>
	<path class="st3" d="M1216.2,356.3c0.6,0,1,0.4,1,1s-0.4,1-1,1s-1-0.4-1-1S1215.7,356.3,1216.2,356.3z"/>
	<path class="st3" d="M1374.1,268.3c0.6,0,1,0.4,1,1s-0.4,1-1,1s-1-0.4-1-1S1373.5,268.3,1374.1,268.3z"/>
	<path class="st3" d="M1075.3,502.8c0.6,0,1,0.5,1,1s-0.5,1-1,1s-1-0.5-1-1S1074.7,502.8,1075.3,502.8z"/>
	<path class="st3" d="M215.6,674.4c0.6,0,1,0.4,1,1s-0.4,1-1,1s-1-0.4-1-1S215,674.4,215.6,674.4z"/>
	<path class="st3" d="M956.2,544.2c1.3,0,2.3,1,2.3,2.3c0,1.3-1,2.3-2.3,2.3c-1.3,0-2.3-1-2.3-2.3c0,0,0,0,0,0
		C953.9,545.3,954.9,544.2,956.2,544.2z"/>
	<path class="st3" d="M1320.2,339.9c1.3,0,2.3,1,2.3,2.3c0,1.3-1,2.3-2.3,2.3c-1.3,0-2.3-1-2.3-2.3c0,0,0,0,0,0
		C1317.8,340.9,1318.9,339.9,1320.2,339.9z"/>
	<path class="st3" d="M545.2,704.6c1.3,0,2.3,1,2.3,2.3c0,1.3-1,2.3-2.3,2.3c-1.3,0-2.3-1-2.3-2.3
		C542.8,705.6,543.9,704.6,545.2,704.6C545.1,704.6,545.1,704.6,545.2,704.6z"/>
	<path class="st3" d="M319.5,688.2c1.3,0,2.3,1,2.3,2.3s-1,2.3-2.3,2.3s-2.3-1-2.3-2.3l0,0C317.2,689.2,318.2,688.2,319.5,688.2
		C319.5,688.2,319.5,688.2,319.5,688.2z"/>
	<path class="st3" d="M1503,796.6c1.3,0,2.3,1,2.3,2.3c0,1.3-1,2.3-2.3,2.3s-2.3-1-2.3-2.3c0,0,0,0,0,0
		C1500.7,797.6,1501.7,796.6,1503,796.6C1503,796.6,1503,796.6,1503,796.6z"/>
	<path class="st3" d="M903.6,921.5c1.3,0,2.3,1,2.3,2.3s-1,2.3-2.3,2.3s-2.3-1-2.3-2.3c0,0,0,0,0,0
		C901.3,922.6,902.3,921.5,903.6,921.5z"/>
	<path class="st3" d="M808.2,486.4c1.3,0,2.3,1,2.3,2.3c0,1.3-1,2.3-2.3,2.3c-1.3,0-2.3-1-2.3-2.3c0,0,0,0,0,0
		C805.8,487.5,806.9,486.4,808.2,486.4z"/>
	<path class="st3" d="M1530.6,142.1c1.3,0,2.3,1,2.3,2.3c0,1.3-1,2.3-2.3,2.3s-2.3-1-2.3-2.3c0,0,0,0,0,0
		C1528.3,143.1,1529.3,142.1,1530.6,142.1z"/>
	<path class="st3" d="M1400.3,370.1c1.3,0,2.3,1,2.3,2.3c0,1.3-1,2.3-2.3,2.3c-1.3,0-2.3-1-2.3-2.3c0,0,0,0,0,0
		C1398,371.1,1399.1,370.1,1400.3,370.1C1400.3,370.1,1400.3,370.1,1400.3,370.1z"/>
	<path class="st3" d="M705.5,408.2c1.3,0,2.3,1,2.3,2.3s-1,2.3-2.3,2.3c-1.3,0-2.3-1-2.3-2.3C703.2,409.3,704.3,408.2,705.5,408.2
		L705.5,408.2z"/>
	<path class="st3" d="M1347.8,238.1c1.3,0,2.3,1,2.3,2.3c0,1.3-1,2.3-2.3,2.3c-1.3,0-2.3-1-2.3-2.3c0,0,0,0,0,0
		C1345.4,239.1,1346.4,238.1,1347.8,238.1C1347.7,238.1,1347.7,238.1,1347.8,238.1z"/>
	<path class="st3" d="M650.3,470c1.3,0,2.3,1,2.3,2.3c0,1.3-1,2.3-2.3,2.3c-1.3,0-2.3-1-2.3-2.3c0,0,0,0,0,0
		C648,471,649.1,470,650.3,470z"/>
	<path class="st3" d="M414.9,111.9c1.3,0,2.3,1,2.3,2.3c0,1.3-1,2.3-2.3,2.3c-1.3,0-2.3-1-2.3-2.3
		C412.6,112.9,413.6,111.9,414.9,111.9L414.9,111.9z"/>
	<path class="st3" d="M291.9,295.9c1.3,0,2.3,1,2.3,2.3s-1,2.3-2.3,2.3s-2.3-1-2.3-2.3c0,0,0,0,0,0
		C289.6,296.9,290.7,295.9,291.9,295.9z"/>
	<path class="st3" d="M1267.6,158.5c1.3,0,2.3,1,2.3,2.3c0,1.3-1,2.3-2.3,2.3s-2.3-1-2.3-2.3c0,0,0,0,0,0
		C1265.2,159.5,1266.3,158.5,1267.6,158.5z"/>
	<circle class="st3" cx="55.6" cy="723.3" r="2.3"/>
	<path class="st3" d="M517.5,641.6c1.3,0,2.3,1,2.3,2.3s-1,2.3-2.3,2.3s-2.3-1-2.3-2.3c0,0,0,0,0,0
		C515.2,642.6,516.3,641.6,517.5,641.6z"/>
	<path class="st3" d="M677.9,658c1.3,0,2.3,1,2.3,2.3s-1,2.3-2.3,2.3s-2.3-1-2.3-2.3l0,0C675.6,659,676.7,658,677.9,658z"/>
	<path class="st3" d="M622.8,1005.1c1.3,0,2.3,1,2.3,2.3c0,1.3-1,2.3-2.3,2.3c-1.3,0-2.3-1-2.3-2.3c0,0,0,0,0,0
		C620.5,1006.1,621.5,1005.1,622.8,1005.1z"/>
	<path class="st3" d="M1026.3,570.5L1026.3,570.5c-5.5,0-9.9,4.4-9.9,9.9l0,0c0-5.5-4.4-9.9-9.9-9.9l0,0c5.5,0,9.9-4.4,9.9-9.9l0,0
		C1016.4,566.1,1020.8,570.5,1026.3,570.5z"/>
	<path class="st3" d="M878.3,434.5L878.3,434.5c-5.5,0-9.9,4.4-9.9,9.9l0,0c0-5.5-4.4-9.9-9.9-9.9l0,0c5.5,0,9.9-4.4,9.9-9.9l0,0
		C868.4,430.1,872.8,434.5,878.3,434.5z"/>
	<path class="st3" d="M389.6,983.4L389.6,983.4c-5.5,0-9.9,4.4-9.9,9.9l0,0c0-5.5-4.4-9.9-9.9-9.9l0,0c5.5,0,9.9-4.4,9.9-9.9l0,0
		C379.7,979,384.2,983.4,389.6,983.4z"/>
	<path class="st3" d="M191.6,761.1L191.6,761.1c-5.5,0-9.9,4.5-9.9,9.9l0,0l0,0c0-5.5-4.4-9.9-9.9-9.9l0,0c5.5,0,9.9-4.4,9.9-9.9
		l0,0C181.7,756.6,186.1,761.1,191.6,761.1z"/>
	<path class="st3" d="M1658.7,836.7L1658.7,836.7c-5.5,0-9.9,4.4-9.9,9.9l0,0l0,0c0-5.5-4.4-9.9-9.9-9.9l0,0l0,0
		c5.5,0,9.9-4.4,9.9-9.9l0,0l0,0C1648.7,832.2,1653.2,836.7,1658.7,836.7L1658.7,836.7z"/>
</g>
<g>
	<defs>
		<rect id="SVGID_3_" width="1680" height="1050"/>
	</defs>
	<clipPath id="SVGID_4_">
		<use xlink:href="#SVGID_3_"  style="overflow:visible;"/>
	</clipPath>
	<g class="st4">
		<path class="st5" d="M-37,980.6c9.9-110.2,62.4-211.5,143.2-276c42.5-33.9,94.9-58.4,150.7-53.1c59.1,5.5,114.5,43.8,157.8,90.4
			s76.8,101.8,113.7,154c120.5,170.1,280.9,310.2,460.2,402.2c72.6,37.2,149.2,67,227.3,75.9c187,21.4,367.6-87.8,445.6-259
			c40.3-88.3,55-193.6,29.1-293.9c-15.3-59.3-48.1-119.6-100.8-147.8c-79.6-42.5-170.7,4.3-224.3,70.1s-86.4,150-145.7,210.1
			c-106,107.4-282.5,116.2-429.2,52.1s-266.5-190-361.2-327.1c-62.4-90.3-117.2-190-134.3-297c-7.5-46.8-7.1-96,12.1-136.3
			s60.7-69.4,105.1-62.5c56.6,8.8,98,70.7,110.3,130s4,119.1,6.5,178.9c4.3,100.2,41.6,203.5,110.1,279.4s169,121.2,261.9,109.2
			s173.2-85.2,188.6-182.3c8.2-51.4-1.1-106.1-18.8-157.3c-32-92.5-92.3-176.3-169-235c-62-47.4-133.1-78-196.6-122.9
			S583.5,71.5,574.8-5.9c-7.9-70.5,30.2-138,87.9-167.9s131.3-24.2,193.3,8c27.5,14.3,53.7,34.2,71,61.2
			c36.6,57.2,25.3,129,23,194.7c-3.1,88.5,17.1,186.7,80.9,251.2c64.2,64.9,168.2,93.1,198.5,179.6c8.9,25.4,9.7,52.4,15.9,78.5
			s20.3,53.5,44.2,63.7c35.6,15.1,70-16.2,85.6-50.3c49.6-107.7,4.3-247.6-66.8-353.5S1141.9,66.1,1072.7-41
			c-39.4-61-73.9-131.8-135.3-166.2c-65.5-36.7-141.4-20.6-207.5,1.8C383.9-88.2,30.2,62.5-115.5,411.3"/>
	</g>
</g>
<g>
	
		<linearGradient id="SVGID_5_" gradientUnits="userSpaceOnUse" x1="840" y1="-6550.29" x2="840" y2="-5500.29" gradientTransform="matrix(1 0 0 1 0 7599.29)">
		<stop  offset="0" style="stop-color:#4C009F"/>
		<stop  offset="0.99" style="stop-color:#19002A"/>
	</linearGradient>
	<rect y="1049" class="st6" width="1680" height="1050"/>
	
		<linearGradient id="SVGID_6_" gradientUnits="userSpaceOnUse" x1="-3494.5437" y1="-1490.7262" x2="-5170.7041" y2="-3121.406" gradientTransform="matrix(6.123234e-17 1 -1 6.123234e-17 -1317.0098 5753.4102)">
		<stop  offset="0" style="stop-color:#BF126A"/>
		<stop  offset="1" style="stop-color:#1515B8"/>
	</linearGradient>
	<rect y="1049" class="st7" width="1680" height="1050"/>
	<g class="st2">
		<path class="st3" d="M1187.3,1712.5c2.8,0,5-2.2,5-5s-2.2-5-5-5s-5,2.2-5,5S1184.5,1712.5,1187.3,1712.5z"/>
		<path class="st3" d="M85.9,1226.8c2.8,0,5-2.2,5-5s-2.2-5-5-5s-5,2.2-5,5S83.1,1226.8,85.9,1226.8z"/>
		<path class="st3" d="M1154.3,1896.5c2.8,0,5-2.2,5-5s-2.2-5-5-5s-5,2.2-5,5S1151.5,1896.5,1154.3,1896.5z"/>
		<path class="st3" d="M143.8,2036.5c2.8,0,5-2.2,5-5s-2.2-5-5-5s-5,2.2-5,5l0,0C138.8,2034.2,141.1,2036.5,143.8,2036.5z"/>
		<path class="st3" d="M25.3,1479.2c2.8,0,5-2.2,5-5s-2.2-5-5-5s-5,2.2-5,5S22.6,1479.2,25.3,1479.2z"/>
		<path class="st3" d="M1560.8,1147.3c2.8,0,5-2.2,5-5s-2.2-5-5-5s-5,2.2-5,5S1558.1,1147.3,1560.8,1147.3z"/>
		<path class="st3" d="M1050.3,1582.4c0.6,0,1-0.4,1-1s-0.4-1-1-1s-1,0.4-1,1S1049.7,1582.4,1050.3,1582.4z"/>
		<path class="st3" d="M1476.7,2014.7c0.6,0,1-0.4,1-1s-0.4-1-1-1s-1,0.4-1,1S1476.1,2014.7,1476.7,2014.7z"/>
		<path class="st3" d="M441.2,1361.7c0.6,0,1-0.4,1-1s-0.4-1-1-1s-1,0.4-1,1S440.7,1361.7,441.2,1361.7z"/>
		<path class="st3" d="M1451.7,1240.6c0.6,0,1-0.4,1-1s-0.4-1-1-1s-1,0.4-1,1S1451.1,1240.6,1451.7,1240.6z"/>
		<path class="st3" d="M1100.3,1772.9c0.6,0,1-0.4,1-1s-0.4-1-1-1s-1,0.4-1,1S1099.8,1772.9,1100.3,1772.9z"/>
		<circle class="st3" cx="982.5" cy="1567.6" r="1"/>
		<path class="st3" d="M1614.8,1161.1c0.6,0,1-0.4,1-1s-0.4-1-1-1s-1,0.4-1,1S1614.3,1161.1,1614.8,1161.1z"/>
		<circle class="st3" cx="1125.3" cy="1999.9" r="1"/>
		<circle class="st3" cx="571.5" cy="2063.1" r="1"/>
		<path class="st3" d="M345.8,2050.3c0.6,0,1-0.4,1-1s-0.4-1-1-1s-1,0.4-1,1S345.3,2050.3,345.8,2050.3z"/>
		<path class="st3" d="M240.6,1844.6c0.6,0,1-0.4,1-1s-0.4-1-1-1s-1,0.4-1,1S240.1,1844.6,240.6,1844.6z"/>
		<path class="st3" d="M1293.8,1970.7c0.6,0,1-0.4,1-1s-0.4-1-1-1s-1,0.4-1,1S1293.3,1970.7,1293.8,1970.7z"/>
		<path class="st3" d="M265.6,1910.3c0.6,0,1-0.4,1-1s-0.4-1-1-1s-1,0.4-1,1S265.1,1910.3,265.6,1910.3z"/>
		<circle class="st3" cx="466.2" cy="1505.8" r="1"/>
		<path class="st3" d="M491.2,1874.8c0.6,0,1-0.4,1-1s-0.4-1-1-1s-1,0.4-1,1S490.7,1874.8,491.2,1874.8z"/>
		<path class="st3" d="M781.9,1316.2c0.6,0,1-0.4,1-1s-0.4-1-1-1s-1,0.4-1,1S781.3,1316.2,781.9,1316.2z"/>
		<path class="st3" d="M114.8,1493c0.6,0,1-0.4,1-1s-0.4-1-1-1s-1,0.4-1,1S114.3,1493,114.8,1493z"/>
		<path class="st3" d="M596.5,1205.1c0.6,0,1-0.4,1-1s-0.4-1-1-1s-1,0.4-1,1S595.9,1205.1,596.5,1205.1z"/>
		<path class="st3" d="M756.8,1642.8c0.6,0,1-0.4,1-1s-0.4-1-1-1s-1,0.4-1,1S756.3,1642.8,756.8,1642.8z"/>
		<circle class="st3" cx="731.8" cy="1285" r="1"/>
		<path class="st3" d="M834.5,1191.3c0.6,0,1-0.4,1-1s-0.4-1-1-1s-1,0.4-1,1S833.9,1191.3,834.5,1191.3z"/>
		<circle class="st3" cx="929.9" cy="1076.5" r="1"/>
		<path class="st3" d="M1426.7,1924.1c0.6,0,1-0.4,1-1s-0.4-1-1-1s-1,0.4-1,1S1426.1,1924.1,1426.7,1924.1z"/>
		<path class="st3" d="M1589.8,1816.9c0.6,0,1-0.4,1-1s-0.4-1-1-1s-1,0.4-1,1S1589.3,1816.9,1589.8,1816.9z"/>
		<path class="st3" d="M1241.2,1786.7c0.6,0,1-0.4,1-1s-0.4-1-1-1s-1,0.4-1,1S1240.7,1786.7,1241.2,1786.7z"/>
		<path class="st3" d="M1216.2,1742.7c0.6,0,1-0.4,1-1s-0.4-1-1-1s-1,0.4-1,1S1215.7,1742.7,1216.2,1742.7z"/>
		<path class="st3" d="M1374.1,1830.7c0.6,0,1-0.4,1-1s-0.4-1-1-1s-1,0.4-1,1S1373.5,1830.7,1374.1,1830.7z"/>
		<path class="st3" d="M1075.3,1596.2c0.6,0,1-0.4,1-1s-0.4-1-1-1s-1,0.4-1,1S1074.7,1596.2,1075.3,1596.2z"/>
		<path class="st3" d="M215.6,1424.6c0.6,0,1-0.4,1-1s-0.4-1-1-1s-1,0.4-1,1S215,1424.6,215.6,1424.6z"/>
		<path class="st3" d="M956.2,1554.8c1.3,0,2.3-1,2.3-2.3c0-1.3-1-2.3-2.3-2.3c-1.3,0-2.3,1-2.3,2.3c0,0,0,0,0,0
			C953.9,1553.7,954.9,1554.8,956.2,1554.8z"/>
		<path class="st3" d="M1320.2,1759.1c1.3,0,2.3-1,2.3-2.3c0-1.3-1-2.3-2.3-2.3c-1.3,0-2.3,1-2.3,2.3c0,0,0,0,0,0
			C1317.8,1758.1,1318.9,1759.1,1320.2,1759.1z"/>
		<path class="st3" d="M545.2,1394.4c1.3,0,2.3-1,2.3-2.3c0-1.3-1-2.3-2.3-2.3c-1.3,0-2.3,1-2.3,2.3
			C542.8,1393.4,543.9,1394.4,545.2,1394.4C545.1,1394.4,545.1,1394.4,545.2,1394.4z"/>
		<path class="st3" d="M319.5,1410.8c1.3,0,2.3-1,2.3-2.3c0-1.3-1-2.3-2.3-2.3c-1.3,0-2.3,1-2.3,2.3
			C317.2,1409.8,318.2,1410.8,319.5,1410.8C319.5,1410.8,319.5,1410.8,319.5,1410.8z"/>
		<path class="st3" d="M1503,1302.4c1.3,0,2.3-1,2.3-2.3s-1-2.3-2.3-2.3s-2.3,1-2.3,2.3c0,0,0,0,0,0
			C1500.7,1301.4,1501.7,1302.4,1503,1302.4C1503,1302.4,1503,1302.4,1503,1302.4z"/>
		<path class="st3" d="M903.6,1177.5c1.3,0,2.3-1,2.3-2.3c0-1.3-1-2.3-2.3-2.3c-1.3,0-2.3,1-2.3,2.3c0,0,0,0,0,0
			C901.3,1176.4,902.3,1177.5,903.6,1177.5L903.6,1177.5z"/>
		<path class="st3" d="M808.2,1612.6c1.3,0,2.3-1,2.3-2.3c0-1.3-1-2.3-2.3-2.3c-1.3,0-2.3,1-2.3,2.3c0,0,0,0,0,0
			C805.8,1611.5,806.9,1612.6,808.2,1612.6z"/>
		<path class="st3" d="M1530.6,1956.9c1.3,0,2.3-1,2.3-2.3s-1-2.3-2.3-2.3s-2.3,1-2.3,2.3c0,0,0,0,0,0
			C1528.3,1955.9,1529.3,1956.9,1530.6,1956.9z"/>
		<path class="st3" d="M1400.3,1728.9c1.3,0,2.3-1,2.3-2.3c0-1.3-1-2.3-2.3-2.3c-1.3,0-2.3,1-2.3,2.3c0,0,0,0,0,0
			C1398,1727.9,1399.1,1728.9,1400.3,1728.9C1400.3,1728.9,1400.3,1728.9,1400.3,1728.9z"/>
		<path class="st3" d="M705.5,1690.8c1.3,0,2.3-1,2.3-2.3c0-1.3-1-2.3-2.3-2.3s-2.3,1-2.3,2.3l0,0
			C703.2,1689.7,704.3,1690.8,705.5,1690.8z"/>
		<path class="st3" d="M1347.8,1860.9c1.3,0,2.3-1,2.3-2.3c0-1.3-1-2.3-2.3-2.3c-1.3,0-2.3,1-2.3,2.3c0,0,0,0,0,0
			C1345.4,1859.9,1346.4,1860.9,1347.8,1860.9C1347.7,1860.9,1347.7,1860.9,1347.8,1860.9z"/>
		<path class="st3" d="M650.3,1629c1.3,0,2.3-1,2.3-2.3c0-1.3-1-2.3-2.3-2.3c-1.3,0-2.3,1-2.3,2.3c0,0,0,0,0,0
			C648,1628,649.1,1629,650.3,1629z"/>
		<path class="st3" d="M414.9,1987.1c1.3,0,2.3-1,2.3-2.3c0-1.3-1-2.3-2.3-2.3c-1.3,0-2.3,1-2.3,2.3l0,0
			C412.6,1986.1,413.6,1987.1,414.9,1987.1z"/>
		<path class="st3" d="M291.9,1803.1c1.3,0,2.3-1,2.3-2.3c0-1.3-1-2.3-2.3-2.3c-1.3,0-2.3,1-2.3,2.3c0,0,0,0,0,0
			C289.6,1802.1,290.7,1803.1,291.9,1803.1C291.9,1803.1,291.9,1803.1,291.9,1803.1z"/>
		<path class="st3" d="M1267.6,1940.5c1.3,0,2.3-1,2.3-2.3s-1-2.3-2.3-2.3s-2.3,1-2.3,2.3c0,0,0,0,0,0
			C1265.2,1939.5,1266.3,1940.5,1267.6,1940.5z"/>
		<circle class="st3" cx="55.6" cy="1375.7" r="2.3"/>
		<path class="st3" d="M517.5,1457.4c1.3,0,2.3-1,2.3-2.3c0-1.3-1-2.3-2.3-2.3c-1.3,0-2.3,1-2.3,2.3c0,0,0,0,0,0
			C515.2,1456.4,516.3,1457.4,517.5,1457.4L517.5,1457.4z"/>
		<path class="st3" d="M677.9,1441c1.3,0,2.3-1,2.3-2.3c0-1.3-1-2.3-2.3-2.3s-2.3,1-2.3,2.3S676.7,1441,677.9,1441L677.9,1441z"/>
		<path class="st3" d="M622.8,1093.9c1.3,0,2.3-1,2.3-2.3c0-1.3-1-2.3-2.3-2.3c-1.3,0-2.3,1-2.3,2.3c0,0,0,0,0,0
			C620.5,1092.9,621.5,1093.9,622.8,1093.9z"/>
		<path class="st3" d="M1026.3,1528.5L1026.3,1528.5c-5.5,0-9.9-4.4-9.9-9.9l0,0l0,0c0,5.5-4.4,9.9-9.9,9.9l0,0l0,0
			c5.5,0,9.9,4.4,9.9,9.9l0,0l0,0C1016.4,1532.9,1020.8,1528.5,1026.3,1528.5L1026.3,1528.5z"/>
		<path class="st3" d="M878.3,1664.5L878.3,1664.5c-5.5,0-9.9-4.4-9.9-9.9l0,0l0,0c0,5.5-4.4,9.9-9.9,9.9l0,0l0,0
			c5.5,0,9.9,4.4,9.9,9.9l0,0l0,0C868.4,1668.9,872.8,1664.5,878.3,1664.5L878.3,1664.5z"/>
		<path class="st3" d="M389.6,1115.6L389.6,1115.6c-5.5,0-9.9-4.4-9.9-9.9l0,0l0,0c0,5.5-4.4,9.9-9.9,9.9c0,0,0,0,0,0l0,0
			c5.5,0,9.9,4.4,9.9,9.9l0,0C379.7,1120,384.2,1115.6,389.6,1115.6z"/>
		<path class="st3" d="M191.6,1337.9L191.6,1337.9c-5.5,0-9.9-4.4-9.9-9.9l0,0c0,5.5-4.4,9.9-9.9,9.9c0,0,0,0,0,0l0,0
			c5.5,0,9.9,4.4,9.9,9.9l0,0l0,0C181.7,1342.4,186.1,1337.9,191.6,1337.9z"/>
		<path class="st3" d="M1658.7,1262.3L1658.7,1262.3c-5.5,0-9.9-4.4-9.9-9.9c0,0,0,0,0,0l0,0c0,5.5-4.4,9.9-9.9,9.9c0,0,0,0,0,0l0,0
			c5.5,0,9.9,4.4,9.9,9.9c0,0,0,0,0,0l0,0C1648.7,1266.8,1653.2,1262.3,1658.7,1262.3C1658.7,1262.3,1658.7,1262.3,1658.7,1262.3z"
			/>
	</g>
	<g>
		<defs>
			<rect id="SVGID_7_" y="1049" width="1680" height="1050"/>
		</defs>
		<clipPath id="SVGID_8_">
			<use xlink:href="#SVGID_7_"  style="overflow:visible;"/>
		</clipPath>
		<g class="st8">
			<path class="st5" d="M-37,1118.4c9.9,110.2,62.4,211.4,143.2,276c42.5,33.9,94.9,58.4,150.7,53.1c59.1-5.6,114.5-43.8,157.8-90.4
				s76.8-101.8,113.7-154c120.5-170.1,280.9-310.2,460.2-402.2c72.6-37.2,149.2-67,227.3-75.9c187-21.4,367.6,87.8,445.6,259
				c40.3,88.3,55,193.6,29.1,293.9c-15.3,59.3-48.1,119.6-100.8,147.8c-79.6,42.5-170.7-4.3-224.3-70.1s-86.4-150-145.7-210.1
				c-106-107.4-282.5-116.2-429.2-52.1s-266.5,190-361.2,327.1c-62.4,90.3-117.2,190.1-134.3,297.1c-7.5,46.8-7.1,96,12.1,136.3
				s60.7,69.4,105.1,62.5c56.6-8.8,98-70.7,110.3-130s4-119.1,6.5-178.9c4.3-100.2,41.6-203.4,110.1-279.3s169-121.2,261.9-109.2
				s173.2,85.2,188.6,182.3c8.2,51.4-1.1,106.1-18.8,157.3c-32,92.5-92.3,176.3-169,235c-62,47.4-133.1,78-196.6,122.9
				S583.5,2027.6,574.8,2105c-7.9,70.5,30.2,138,87.9,167.9s131.3,24.2,193.3-8c27.5-14.3,53.7-34.2,71-61.2
				c36.6-57.2,25.3-129,23-194.7c-3.1-88.5,17.1-186.7,80.9-251.2c64.2-64.9,168.1-93.1,198.5-179.6c8.9-25.4,9.7-52.4,15.9-78.5
				s20.3-53.5,44.2-63.7c35.6-15.1,70,16.2,85.6,50.3c49.6,107.7,4.3,247.6-66.8,353.5S1142,2033,1072.7,2140.1
				c-39.4,61-73.9,131.8-135.3,166.2c-65.5,36.7-141.4,20.6-207.5-1.8c-345.9-117.4-699.7-268-845.3-616.8"/>
		</g>
	</g>
</g>
</svg>
