<svg xmlns="http://www.w3.org/2000/svg" xmlns:xlink="http://www.w3.org/1999/xlink" viewBox="0 0 93 93"><defs><style>.cls-1{fill:url(#Degradado_sin_nombre_390);}.cls-2{isolation:isolate;}.cls-3{clip-path:url(#clip-path);}.cls-4{fill:#784d79;opacity:0.2;mix-blend-mode:multiply;}</style><linearGradient id="Degradado_sin_nombre_390" x1="-766.41" y1="-1889.1" x2="-852.02" y2="-1755.72" gradientTransform="matrix(0.07, 1, -1, 0.07, -1740.59, 962.58)" gradientUnits="userSpaceOnUse"><stop offset="0" stop-color="#ff3d86"/><stop offset="1" stop-color="#7c38d6"/></linearGradient><clipPath id="clip-path"><circle class="cls-1" cx="46.5" cy="46.5" r="46.49" transform="translate(-17.69 60.78) rotate(-57.55)"/></clipPath></defs><title>Landing 1.0 layout</title><g class="cls-2"><g id="Layer_1" data-name="Layer 1"><circle class="cls-1" cx="46.5" cy="46.5" r="46.49" transform="translate(-17.69 60.78) rotate(-57.55)"/><g class="cls-3"><path class="cls-4" d="M6.86-28.65A48.39,48.39,0,0,1,32.37-44C38-45.26,44-45.5,49.26-43.25s9.55,7.4,9.53,13.12c0,5.95-4.38,10.94-8.92,14.78C43.44-9.9,36.15-5.56,29.58-.28S17,11.48,14.42,19.49c-3.06,9.5-.91,20.08,3.69,28.93A57,57,0,0,0,56.39,77.49a57,57,0,0,0,46.74-11.2c7.17-5.77,13-13.5,15.34-22.38a44.35,44.35,0,0,0,.85-17.14A58,58,0,0,0,95.79-12.31c-5.48-3.9-11.81-7-15.71-12.47,22-2,44.26,10.85,54.43,30.4a59.56,59.56,0,0,1,1.2,51.68c-5.79,12.51-16,22.76-28.09,29.41s-25.95,9.76-39.74,9.87c-7,.06-17.37,6.58-24.06,4.57-7.38-2.22-25.31.2-31.29-4.64C-7,80.7-29.09,40.93-24.41,16.25s49.78-47,72.39-58"/><path class="cls-4" d="M61.85-4.13a16,16,0,0,0-7.45.9,8.26,8.26,0,0,0-5,5.35c-1.07,4.34,2.41,8.42,5.91,11.19A58.09,58.09,0,0,0,89.17,25.66c2.82.09,5.88-.11,8-1.92a8.28,8.28,0,0,0,2.42-7.92,16.33,16.33,0,0,0-4.17-7.51C86.24-1.95,71.66-5.15,58-7.2"/><path class="cls-4" d="M53.54,38.87c1.34,2.39,3.72,4,6.11,5.34A19.85,19.85,0,0,0,67.72,47a8.93,8.93,0,0,0,7.68-3,8.13,8.13,0,0,0,1.08-7.38,11.86,11.86,0,0,0-4.73-6C65.81,26.6,47.36,27.84,53.54,38.87Z"/><path class="cls-4" d="M26.48,20.57c.76,3.59,2.37,7.41,5.71,8.93a10.11,10.11,0,0,0,7.36,0,7.13,7.13,0,0,0,3.29-2,6.74,6.74,0,0,0,1.29-3.28,12.32,12.32,0,0,0-4.22-11.41C33.09,7.36,24.65,12,26.48,20.57Z"/><path class="cls-4" d="M34.08,49.76a14.07,14.07,0,0,0,5.73,3.51A6.11,6.11,0,0,0,46,51.59c1.39-1.71,1.38-4.22.66-6.31a11.29,11.29,0,0,0-7.08-7c-2.51-.81-8.61-.94-10.26,1.76C27.5,43.12,32.1,48,34.08,49.76Z"/><path class="cls-4" d="M80.6,57.72a10.37,10.37,0,0,0-3.2,8.88,11.74,11.74,0,0,0,5,8.08,19,19,0,0,0,8.71,2.82,15,15,0,0,0,7.23-.63c3.81-1.55,6.19-5.59,6.65-9.67.59-5.15-2.07-11.32-7.61-12C92,54.61,85,53.78,80.6,57.72Z"/><path class="cls-4" d="M27.57,76.3a14.94,14.94,0,0,0,4.12,5.91,13.9,13.9,0,0,0,7,3.71c11.48,1.93,15.2-13.12,7.76-20C39.39,59.43,23.9,65.92,27.57,76.3Z"/><path class="cls-4" d="M-14.17,49.32a32.8,32.8,0,0,1,12.79.49A17.3,17.3,0,0,1,7,54a17.46,17.46,0,0,1,3.93,6.92c1.33,4,1.91,8.42.49,12.38S6.16,80.57,2,80.41c-2.52-.1-4.83-1.36-7-2.64-3.61-2.13-7.22-4.51-9.58-8S-17.85,61.56-15.72,58"/><path class="cls-4" d="M-2,18.53c3.11-1.09,6.55-.08,9.57,1.24a28.52,28.52,0,0,1,9.76,6.56,9.2,9.2,0,0,1,2.49,4.46A4.44,4.44,0,0,1,18,35.33a6.24,6.24,0,0,1-2.75.74,18.56,18.56,0,0,1-7.24-.38,23.39,23.39,0,0,1-6.69-3.75l-5.08-3.62a6.65,6.65,0,0,1-2.19-2.16,2.27,2.27,0,0,1,.44-2.82"/><path class="cls-4" d="M62.91,55.76c-2.14-.7-4.56,1-5,3.23a6.17,6.17,0,0,0,2.47,5.91A5.94,5.94,0,0,0,64,66.24a3.92,3.92,0,0,0,3.33-1.84,4.75,4.75,0,0,0,.49-2.78,6.57,6.57,0,0,0-4.29-5.83"/><path class="cls-4" d="M66.56,83.76c-3.26.78-5.61,3.57-7.42,6.39a5,5,0,0,0-.8,1.72,4.27,4.27,0,0,0,.42,2.37,12.19,12.19,0,0,0,10.44,7.27c5.5.25,13.26-4.8,12.11-11.13C80.33,85,71,82.7,66.56,83.76Z"/></g></g></g></svg>